<svg width="1882" height="952" viewBox="0 0 1882 952" fill="none" xmlns="http://www.w3.org/2000/svg">
<path d="M24.6308 573.166C35.6492 625.215 89.1416 669.108 133.238 695.826C213.455 744.429 296.169 787.298 382.771 825.039C516.946 883.512 671.921 887.984 816.645 894.756C942.094 900.626 1067.19 897.354 1192.26 886.893C1253.86 881.742 1315.38 876.143 1377.02 871.43C1435.75 866.939 1497.82 865.283 1553.45 844.696C1621.75 819.424 1658.1 755.588 1697.57 701.461C1722.21 667.673 1746.46 634.343 1761.24 595.444C1775.21 558.672 1783.04 519.609 1787.87 480.908C1797.88 400.702 1791.27 320.465 1759.02 245.023C1741.78 204.697 1717.7 166.86 1694.94 129.177C1676.12 98.0334 1656.65 66.7172 1630.3 40.5887C1602.86 13.3862 1566.7 4.65346 1528.07 1.66758C1505.25 -0.0961927 1482.01 1.99663 1459.27 3.76434C1434.53 5.68741 1407.57 6.81724 1384.23 15.6897C1347.91 29.4993 1311.85 61.9206 1287.97 90.1246C1246.14 139.52 1253.37 208.383 1288.8 259.7C1304.69 282.712 1327.22 301.344 1352.05 315.264C1375.06 328.163 1396.18 329.419 1421.27 335.052C1454.48 342.512 1483.56 361.977 1512.4 378.298C1543.65 395.986 1575.91 412.312 1606.44 431.11C1664.92 467.111 1715.33 514.596 1756.24 567.924C1792.19 614.782 1797.68 664.898 1794.25 721.774C1791.59 765.971 1769.2 813.531 1737.24 846.007C1725.72 857.709 1707.9 861.036 1692.16 864.615C1657.25 872.555 1621.35 878.561 1585.36 878.9C1543.26 879.295 1501.07 873.222 1459.41 868.547C1347.18 855.951 1234.98 845.034 1122.35 836.047C1057.17 830.845 992.065 825.906 926.778 822.156C870.167 818.905 814.359 813.769 757.556 813.769C695.352 813.769 633.176 815.866 570.996 815.866C511.71 815.866 452.878 813.399 393.59 816.128C337.254 818.72 280.98 822.505 224.646 825.039C197.013 826.282 169.368 827.81 141.977 831.722C125.057 834.139 94.4206 838.157 85.1069 854.656C71.565 878.645 203.088 895.392 216.878 895.805C354.032 899.911 491.513 883.464 628.698 882.307C789.802 880.948 950.765 871.103 1111.81 870.381C1192.71 870.019 1273.99 872.908 1354.83 869.726C1399.75 867.958 1443.98 860.946 1487.98 852.559C1524.69 845.563 1562.41 838.022 1596.31 822.418C1640.53 802.068 1668.91 761.384 1698.82 725.967C1734.4 683.833 1749.99 627.824 1761.79 576.049C1774.63 519.729 1781.99 462.158 1788.28 404.901C1795.94 335.25 1785.07 266.202 1748.34 204.398C1708.79 137.866 1645.46 85.9519 1576.2 48.1894C1526.84 21.2763 1473.6 1.13628 1415.86 2.84701C1364.9 4.3566 1314.14 13.5478 1272.02 42.1613C1224.91 74.1618 1178.84 127.88 1171.87 183.824C1165.9 231.784 1193.6 277.046 1235.54 302.946C1250.68 312.294 1273.45 323.268 1292.41 318.671C1314.28 313.371 1334.91 293.462 1352.33 281.192C1371.89 267.411 1391.78 254.211 1411.83 241.091C1430.56 228.846 1448.91 213.426 1470.51 205.84C1498.95 195.852 1531.1 194.47 1561.08 193.914C1596.33 193.261 1638.38 190.449 1672.46 200.598C1702.68 209.593 1722.3 234.134 1739.04 258.128C1769.62 301.933 1794.8 352.094 1810.34 402.542C1830.66 468.492 1811.62 541.017 1796.75 606.19C1784.2 661.139 1767.15 717.286 1737.8 766.592C1723.76 790.173 1706.66 814.649 1683.42 831.067C1661.5 846.554 1634.12 850.821 1607.55 853.345C1536.55 860.091 1466.75 851.217 1396.16 844.958C1259.23 832.817 1121.94 837.722 984.757 831.067C854.397 824.743 724.569 814.939 593.882 817.7C517.14 819.322 440.679 826.121 364.184 831.591C262.657 838.852 161.474 849.089 59.8623 855.704C-7.60157 860.096 -74.5359 860.615 -142.094 860.946C-160.65 861.037 -171.087 863.772 -146.81 873.133C-107.344 888.353 -61.5552 888.939 -19.7553 891.48C66.8113 896.742 153.738 901.643 240.458 903.667C315.585 905.422 390.173 902.742 465.163 898.688C558.552 893.639 651.916 890.66 745.35 886.631C838.269 882.624 930.838 878.161 1023.87 876.934C1120.7 875.656 1217.63 874.788 1314.32 869.333C1432.24 862.68 1554.87 852.02 1658.18 793.457C1687.97 776.57 1723.29 759.339 1748.2 736.058C1767.84 717.697 1765.02 692.689 1759.71 669.092C1746.9 612.176 1718.44 576.505 1664.97 548.529C1619.36 524.663 1570.27 505.531 1520.44 491.13C1483.46 480.44 1445.33 475.697 1407.81 467.279C1334.55 450.84 1259.31 429.009 1191.15 398.479C1171.82 389.818 1155.6 386.033 1177.28 368.207C1196.15 352.7 1220.68 344.509 1244.42 338.329C1303.16 323.034 1364.77 317.994 1425.29 313.692C1486.53 309.339 1549.24 304.239 1610.6 309.76C1660.4 314.241 1709.73 326.162 1757.63 339.377C1771.02 343.07 1789.93 346.8 1801.32 355.627C1815.33 366.475 1820.17 389.909 1824.21 405.294C1843.95 480.391 1799.36 542.989 1760.96 606.059C1729.45 657.819 1700.7 717.929 1642.78 747.721C1600.19 769.628 1551.05 778.97 1503.52 785.201C1429.25 794.937 1353.95 796.538 1279.09 794.898C1169.6 792.5 1060.31 784.428 950.774 781.793C688.515 775.484 426.228 769.719 163.892 766.985C122.301 766.552 80.654 766.283 39.0563 766.592C22.1173 766.717 -4.24883 763.937 -20.0327 772.62C-31.1144 778.716 -36.2763 802.324 -38.0645 812.196C-44.5542 848.023 -32.1201 883.48 -4.22014 908.909C21.7267 932.558 56.4843 943.941 91.4874 948.224C170.339 957.871 254.911 939.949 332.837 931.45C535.572 909.337 738.107 896.284 942.036 890.432C1078.64 886.512 1215.37 882.404 1352.05 885.583C1439.91 887.626 1527.72 890.552 1615.59 892.135C1679.91 893.294 1768.41 896.975 1816.58 848.365C1841.77 822.941 1846.23 784.852 1850.43 751.914C1853.89 724.752 1857.34 695.235 1850.98 668.175C1845.99 646.968 1832.32 630.224 1815.61 615.625C1764.59 571.057 1699.65 539.793 1637.51 511.835C1570.48 481.679 1501.62 457.702 1430.84 436.876C1395.07 426.352 1358.55 416.351 1325.42 399.397C1283.17 377.775 1260.02 345.726 1248.44 302.291C1237.5 261.247 1226.71 202.767 1264.11 170.457C1283.17 153.995 1309.26 144.879 1333.47 137.826C1380.47 124.13 1429.68 117.699 1478.83 118.169C1539.92 118.753 1601.39 126.121 1661.92 133.37C1687.77 136.465 1731.13 136.371 1751.53 155.91C1764.25 168.097 1769.86 190.293 1775.94 205.446C1792.81 247.516 1809.86 289.428 1823.52 332.563C1840.55 386.371 1851.83 439.907 1830.31 494.406C1823.51 511.636 1812.76 527.128 1805.9 544.335C1791.05 581.587 1787.42 622.013 1786.48 661.492C1785.79 690.583 1786.68 720.274 1794.8 748.507C1798.15 760.147 1802.81 771.281 1804.24 783.366C1806.9 806.043 1775.29 812.072 1757.49 815.604C1694.77 828.047 1628.11 826.561 1564.41 829.101C1488.54 832.128 1412.74 834.458 1336.79 834.868C1233.88 835.423 1130.61 840.63 1027.76 836.833C919.866 832.85 813.47 823.269 705.957 814.817C627.164 808.623 547.206 801.975 468.076 801.975C458.308 801.975 449.655 799.892 440.057 798.043C406.531 791.585 372.685 788.527 338.524 787.035C285.586 784.724 226.725 779.576 174.156 788.87C130.092 796.661 85.0343 794.882 40.9982 803.285C32.0317 804.996 20.1541 806.544 20.3309 817.569C20.6368 836.64 38.8219 855.851 53.6205 866.581C150.713 936.979 271.807 873.922 373.339 848.759C529.171 810.137 695.989 793.3 856.87 807.479C924.97 813.48 992.246 827.086 1060.21 834.474C1136.74 842.794 1213.94 849.269 1291.02 849.938C1392.53 850.819 1487.62 833.682 1584.39 806.037C1631.08 792.697 1682.69 779.114 1719.9 747.59C1742.26 728.651 1750.14 705.193 1754.72 678.135C1763.2 628.076 1768.91 575.555 1762.62 524.94C1752.9 446.659 1705.65 368.085 1652.77 308.712C1603.66 253.581 1536.35 208.549 1466.21 180.285C1419.14 161.319 1366.02 160.336 1315.57 159.58C1280.65 159.056 1198.7 150.93 1188.38 195.487C1173.22 260.906 1214.64 313.189 1274.65 341.998C1345.1 375.819 1429.53 370.396 1506.16 372.925C1600.53 376.04 1696.06 386.976 1783.85 421.282C1808.61 430.958 1833.27 441.56 1856.39 454.437C1866.01 459.797 1877.04 465.633 1879.14 476.977C1884.42 505.508 1877.41 538.089 1871.37 565.827C1863.09 603.844 1851.8 642.614 1835.31 678.266C1820.07 711.201 1793.49 742.45 1769.42 769.868C1753.99 787.449 1736.79 806.616 1713.52 814.948C1690.1 823.333 1661.59 824.18 1637.09 827.136C1516.5 841.692 1396.34 843.728 1274.93 838.668C1129.17 832.592 984.176 814.174 838.561 805.382C658.429 794.506 479.923 790.284 299.686 798.436C243.541 800.976 187.844 804.336 131.99 810.362C113.876 812.316 94.7168 811.958 77.0619 816.128" stroke="#E31F26" stroke-linecap="round"/>
</svg>
