<svg width="176" height="190" viewBox="0 0 176 190" fill="none" xmlns="http://www.w3.org/2000/svg">
<path d="M162.047 29.3303C156.598 17.2553 141.525 11.4419 128.553 14.1595C115.582 16.8771 104.949 26.6267 98.2674 38.0714C91.5995 49.5161 88.3636 62.5998 85.618 75.5574C80.1268 66.9423 74.1593 58.5094 66.5529 51.6734C58.9464 44.8514 49.5329 39.6964 39.363 38.6458C29.207 37.6092 18.3087 41.1253 11.8369 49.0399C4.18842 58.3834 3.86623 71.8732 6.93403 83.5561C10.7302 98.0265 18.9951 110.872 29.4172 121.728L30.5798 149.1C30.7339 152.841 36.5614 152.602 36.3933 148.848L35.4827 127.612C37.2477 129.209 39.0548 130.75 40.8899 132.249C47.6278 137.698 55.7105 143.273 64.1575 148.582L65.4742 179.358C65.6283 183.098 71.4557 182.86 71.2876 179.106L70.139 152.266C79.4544 157.884 88.938 163.081 97.3429 167.325C107.121 159.214 116.002 150.081 123.944 140.177L124.939 163.417C125.093 167.157 130.921 166.919 130.752 163.165L129.464 132.949C134.1 126.575 138.345 119.907 142.183 113.015C142.617 118.184 143.052 123.339 143.486 128.508C143.794 132.235 149.621 132.01 149.299 128.256C148.599 119.963 147.912 111.67 147.212 103.378C154.58 88.1787 159.974 72.0413 163.083 55.4276C164.75 46.7565 165.703 37.3991 162.047 29.3303Z" fill="#E31F26"/>
<path d="M78.9222 175.254C77.3533 175.394 76.0645 176.655 76.1346 178.294L76.5128 187.203C76.5828 188.73 77.9836 190.131 79.5526 189.99C81.1215 189.85 82.4102 188.59 82.3402 186.951L81.962 178.041C81.8919 176.515 80.4911 175.114 78.9222 175.254Z" fill="#E31F26"/>
<path d="M118.215 165.896C117.459 165.966 116.688 166.246 116.198 166.835C115.694 167.423 115.4 168.137 115.428 168.922L115.638 173.881C115.666 174.623 116.03 175.394 116.576 175.898C117.109 176.374 117.949 176.724 118.664 176.668C119.42 176.598 120.19 176.318 120.681 175.73C121.185 175.142 121.479 174.427 121.451 173.643L121.241 168.684C121.213 167.941 120.849 167.171 120.302 166.667C119.784 166.176 118.93 165.826 118.215 165.896Z" fill="#E31F26"/>
<path d="M146.176 140.387C144.621 140.527 143.304 141.788 143.388 143.427C143.654 148.414 143.934 153.415 144.2 158.402C144.284 159.929 145.657 161.329 147.24 161.189C148.795 161.049 150.112 159.788 150.028 158.15C149.762 153.163 149.481 148.162 149.215 143.175C149.131 141.648 147.758 140.247 146.176 140.387Z" fill="#E31F26"/>
<path d="M18.5187 118.548C16.9078 118.689 15.7171 119.949 15.7311 121.588L15.8151 127.668C15.8291 128.396 16.2213 129.195 16.7537 129.685C17.286 130.161 18.1265 130.511 18.8409 130.455C20.4518 130.315 21.6425 129.055 21.6285 127.416L21.5445 121.336C21.5305 120.608 21.1382 119.809 20.6059 119.319C20.0876 118.829 19.2471 118.478 18.5187 118.548Z" fill="#E31F26"/>
<path d="M166.053 17.8296C160.604 5.75458 145.531 -0.0588411 132.56 2.65875C119.588 5.37634 108.956 15.1261 102.274 26.5707C95.6059 38.0154 92.37 51.0991 89.6244 64.0567C84.1332 55.4417 78.1657 47.0087 70.5592 40.1727C62.9528 33.3507 53.5393 28.1957 43.3693 27.1451C33.1994 26.0945 22.315 29.6245 15.8432 37.5391C8.19477 46.8826 7.87258 60.3725 10.9404 72.0554C16.0394 91.5268 29.2631 108.098 44.9102 120.748C60.5714 133.411 83.4048 146.747 101.377 155.838C135.333 127.654 159.021 87.3523 167.118 43.9689C168.757 35.2558 169.695 25.9124 166.053 17.8296Z" stroke="white" stroke-width="4" stroke-miterlimit="10" stroke-linecap="round" stroke-linejoin="round"/>
<path d="M28.0303 50.959C26.1252 61.6893 27.2598 72.9238 31.2381 83.0657" stroke="white" stroke-width="4" stroke-miterlimit="10" stroke-linecap="round" stroke-linejoin="round"/>
<path d="M86.1646 58.7756C93.0846 67.993 93.869 77.0143 92.6923 83.5281" stroke="white" stroke-width="4" stroke-miterlimit="10" stroke-linecap="round" stroke-linejoin="round"/>
<path d="M115.329 152.939C115.329 153.569 114.825 154.073 114.195 154.073C113.564 154.073 113.06 153.569 113.06 152.939C113.06 152.308 113.564 151.804 114.195 151.804C114.825 151.804 115.329 152.322 115.329 152.939Z" fill="white"/>
<path d="M115.035 158.878C115.035 159.48 114.545 159.971 113.942 159.971C113.34 159.971 112.85 159.48 112.85 158.878C112.85 158.276 113.34 157.785 113.942 157.785C114.531 157.785 115.035 158.276 115.035 158.878Z" fill="white"/>
<path d="M111.029 160.181C111.029 160.727 110.595 161.161 110.048 161.161C109.502 161.161 109.068 160.727 109.068 160.181C109.068 159.634 109.502 159.2 110.048 159.2C110.595 159.2 111.029 159.648 111.029 160.181Z" fill="white"/>
<path d="M105.103 162.506C105.103 162.814 104.851 163.066 104.543 163.066C104.235 163.066 103.983 162.814 103.983 162.506C103.983 162.198 104.235 161.946 104.543 161.946C104.851 161.932 105.103 162.198 105.103 162.506Z" fill="white"/>
<path d="M104.865 155.446C104.865 155.698 104.655 155.908 104.403 155.908C104.151 155.908 103.941 155.698 103.941 155.446C103.941 155.194 104.151 154.984 104.403 154.984C104.669 154.984 104.865 155.194 104.865 155.446Z" fill="white"/>
<path d="M102.904 150.908C102.904 151.342 102.554 151.692 102.12 151.692C101.685 151.692 101.335 151.342 101.335 150.908C101.335 150.473 101.685 150.123 102.12 150.123C102.554 150.123 102.904 150.473 102.904 150.908Z" fill="white"/>
<path d="M108.045 148.624C108.045 149.143 107.625 149.549 107.121 149.549C106.602 149.549 106.196 149.129 106.196 148.624C106.196 148.106 106.616 147.7 107.121 147.7C107.625 147.7 108.045 148.106 108.045 148.624Z" fill="white"/>
<path d="M108.788 146.551C108.788 147.125 108.325 147.587 107.751 147.587C107.177 147.587 106.714 147.125 106.714 146.551C106.714 145.976 107.177 145.514 107.751 145.514C108.325 145.514 108.788 145.976 108.788 146.551Z" fill="white"/>
<path d="M110.665 148.302C111.129 148.302 111.505 147.925 111.505 147.461C111.505 146.997 111.129 146.621 110.665 146.621C110.201 146.621 109.824 146.997 109.824 147.461C109.824 147.925 110.201 148.302 110.665 148.302Z" fill="white"/>
<path d="M111.099 154.914C111.478 154.914 111.785 154.606 111.785 154.227C111.785 153.848 111.478 153.541 111.099 153.541C110.72 153.541 110.413 153.848 110.413 154.227C110.413 154.606 110.72 154.914 111.099 154.914Z" fill="white"/>
<path d="M112.177 161.988C112.835 161.988 113.368 161.455 113.368 160.797C113.368 160.14 112.835 159.606 112.177 159.606C111.52 159.606 110.987 160.14 110.987 160.797C110.987 161.455 111.52 161.988 112.177 161.988Z" fill="white"/>
<path d="M107.751 164.789C108.339 164.789 108.816 164.313 108.816 163.725C108.816 163.137 108.339 162.66 107.751 162.66C107.163 162.66 106.686 163.137 106.686 163.725C106.686 164.313 107.163 164.789 107.751 164.789Z" fill="white"/>
<path d="M101.643 161.021C101.643 161.568 101.195 162.016 100.649 162.016C100.103 162.016 99.6543 161.568 99.6543 161.021C99.6543 160.475 100.103 160.027 100.649 160.027C101.195 160.027 101.643 160.475 101.643 161.021Z" fill="white"/>
<path d="M99.5701 157.057C99.5701 157.687 99.0658 158.191 98.4354 158.191C97.8051 158.191 97.3008 157.687 97.3008 157.057C97.3008 156.426 97.8051 155.922 98.4354 155.922C99.0518 155.922 99.5701 156.426 99.5701 157.057Z" fill="white"/>
<path d="M93.0702 154.746C93.0702 155.236 92.678 155.628 92.1877 155.628C91.6974 155.628 91.3052 155.236 91.3052 154.746C91.3052 154.255 91.6974 153.863 92.1877 153.863C92.678 153.863 93.0702 154.255 93.0702 154.746Z" fill="white"/>
<path d="M92.1878 152.714C92.4431 152.714 92.6501 152.507 92.6501 152.252C92.6501 151.997 92.4431 151.79 92.1878 151.79C91.9325 151.79 91.7256 151.997 91.7256 152.252C91.7256 152.507 91.9325 152.714 92.1878 152.714Z" fill="white"/>
<path d="M86.6267 148.344C86.6267 148.848 86.2205 149.254 85.7162 149.254C85.2119 149.254 84.8057 148.848 84.8057 148.344C84.8057 147.839 85.2119 147.433 85.7162 147.433C86.2205 147.433 86.6267 147.839 86.6267 148.344Z" fill="white"/>
<path d="M83.9231 140.835C83.9231 141.438 83.4328 141.928 82.8304 141.928C82.2281 141.928 81.7378 141.438 81.7378 140.835C81.7378 140.233 82.2281 139.743 82.8304 139.743C83.4328 139.743 83.9231 140.233 83.9231 140.835Z" fill="white"/>
<path d="M85.1136 133.999C85.1136 134.658 84.5813 135.19 83.9229 135.19C83.2645 135.19 82.7322 134.658 82.7322 133.999C82.7322 133.341 83.2645 132.809 83.9229 132.809C84.5813 132.809 85.1136 133.341 85.1136 133.999Z" fill="white"/>
<path d="M94.0228 139.631C94.0228 140.247 93.5185 140.752 92.9022 140.752C92.2858 140.752 91.7815 140.247 91.7815 139.631C91.7815 139.015 92.2858 138.51 92.9022 138.51C93.5185 138.51 94.0228 139.015 94.0228 139.631Z" fill="white"/>
<path d="M87.0749 144.38C87.0749 144.674 86.8367 144.912 86.5426 144.912C86.2484 144.912 86.0103 144.674 86.0103 144.38C86.0103 144.086 86.2484 143.847 86.5426 143.847C86.8367 143.847 87.0749 144.086 87.0749 144.38Z" fill="white"/>
<path d="M84.8755 151.874C85.2623 151.874 85.5759 151.56 85.5759 151.174C85.5759 150.787 85.2623 150.473 84.8755 150.473C84.4886 150.473 84.175 150.787 84.175 151.174C84.175 151.56 84.4886 151.874 84.8755 151.874Z" fill="white"/>
<path d="M79.1041 149.829C79.8081 149.829 80.3788 149.258 80.3788 148.554C80.3788 147.85 79.8081 147.279 79.1041 147.279C78.4001 147.279 77.8293 147.85 77.8293 148.554C77.8293 149.258 78.4001 149.829 79.1041 149.829Z" fill="white"/>
<path d="M77.0589 147.867C77.0589 148.316 76.6946 148.666 76.2604 148.666C75.8121 148.666 75.4619 148.302 75.4619 147.867C75.4619 147.419 75.8261 147.069 76.2604 147.069C76.7087 147.069 77.0589 147.433 77.0589 147.867Z" fill="white"/>
<path d="M69.9847 147.461C69.9847 148.148 69.4384 148.694 68.752 148.694C68.0656 148.694 67.5193 148.148 67.5193 147.461C67.5193 146.789 68.0656 146.229 68.752 146.229C69.4384 146.229 69.9847 146.789 69.9847 147.461Z" fill="white"/>
<path d="M70.265 142.124C70.265 142.642 69.8448 143.077 69.3125 143.077C68.7941 143.077 68.3599 142.656 68.3599 142.124C68.3599 141.606 68.7801 141.172 69.3125 141.172C69.8308 141.172 70.265 141.592 70.265 142.124Z" fill="white"/>
<path d="M63.1628 137.418C63.1628 137.894 62.7706 138.286 62.2943 138.286C61.818 138.286 61.4258 137.894 61.4258 137.418C61.4258 136.941 61.818 136.549 62.2943 136.549C62.7706 136.549 63.1628 136.941 63.1628 137.418Z" fill="white"/>
<path d="M63.0089 131.31C63.0089 131.968 62.4765 132.501 61.8181 132.501C61.1598 132.501 60.6274 131.968 60.6274 131.31C60.6274 130.651 61.1598 130.119 61.8181 130.119C62.4765 130.119 63.0089 130.651 63.0089 131.31Z" fill="white"/>
<path d="M69.8588 121.952C69.8588 122.569 69.3685 123.059 68.7521 123.059C68.1358 123.059 67.6455 122.569 67.6455 121.952C67.6455 121.336 68.1358 120.846 68.7521 120.846C69.3685 120.846 69.8588 121.336 69.8588 121.952Z" fill="white"/>
<path d="M64.7038 132.304C64.7038 132.654 64.4237 132.935 64.0735 132.935C63.7233 132.935 63.4431 132.654 63.4431 132.304C63.4431 131.954 63.7233 131.674 64.0735 131.674C64.4237 131.674 64.7038 131.954 64.7038 132.304Z" fill="white"/>
<path d="M59.4508 134.083C59.4508 134.392 59.1986 134.644 58.8904 134.644C58.5823 134.644 58.3301 134.392 58.3301 134.083C58.3301 133.775 58.5823 133.523 58.8904 133.523C59.1986 133.509 59.4508 133.761 59.4508 134.083Z" fill="white"/>
<path d="M52.7548 138.244C53.1184 138.244 53.4132 137.949 53.4132 137.585C53.4132 137.222 53.1184 136.927 52.7548 136.927C52.3912 136.927 52.0964 137.222 52.0964 137.585C52.0964 137.949 52.3912 138.244 52.7548 138.244Z" fill="white"/>
<path d="M48.9446 134.027C48.9446 134.714 48.3843 135.274 47.6979 135.274C47.0115 135.274 46.4512 134.714 46.4512 134.027C46.4512 133.341 47.0115 132.781 47.6979 132.781C48.3843 132.781 48.9446 133.341 48.9446 134.027Z" fill="white"/>
<path d="M47.5438 131.338C47.714 131.338 47.852 131.2 47.852 131.03C47.852 130.859 47.714 130.721 47.5438 130.721C47.3736 130.721 47.2356 130.859 47.2356 131.03C47.2356 131.2 47.3736 131.338 47.5438 131.338Z" fill="white"/>
<path d="M37.0376 126.785C37.5482 126.785 37.9621 126.371 37.9621 125.861C37.9621 125.35 37.5482 124.936 37.0376 124.936C36.527 124.936 36.113 125.35 36.113 125.861C36.113 126.371 36.527 126.785 37.0376 126.785Z" fill="white"/>
<path d="M41.5621 121.532C42.065 121.532 42.4727 121.125 42.4727 120.622C42.4727 120.119 42.065 119.711 41.5621 119.711C41.0593 119.711 40.6516 120.119 40.6516 120.622C40.6516 121.125 41.0593 121.532 41.5621 121.532Z" fill="white"/>
<path d="M40.3434 113.968C40.3434 114.486 39.9232 114.892 39.4189 114.892C38.9146 114.892 38.4944 114.472 38.4944 113.968C38.4944 113.463 38.9146 113.043 39.4189 113.043C39.9232 113.043 40.3434 113.449 40.3434 113.968Z" fill="white"/>
<path d="M46.7592 112.287C46.7592 112.777 46.367 113.169 45.8767 113.169C45.3864 113.169 44.9941 112.777 44.9941 112.287C44.9941 111.796 45.3864 111.404 45.8767 111.404C46.367 111.404 46.7592 111.796 46.7592 112.287Z" fill="white"/>
<path d="M44.1676 119.851C44.1676 120.117 43.9575 120.327 43.6914 120.327C43.4252 120.327 43.2151 120.117 43.2151 119.851C43.2151 119.585 43.4252 119.375 43.6914 119.375C43.9575 119.375 44.1676 119.585 44.1676 119.851Z" fill="white"/>
<path d="M40.3576 113.744C40.3576 113.912 40.2175 114.052 40.0494 114.052C39.8813 114.052 39.7412 113.912 39.7412 113.744C39.7412 113.576 39.8813 113.436 40.0494 113.436C40.2175 113.436 40.3576 113.576 40.3576 113.744Z" fill="white"/>
<path d="M32.0226 117.008C32.5873 117.008 33.0452 116.55 33.0452 115.985C33.0452 115.42 32.5873 114.962 32.0226 114.962C31.4578 114.962 31 115.42 31 115.985C31 116.55 31.4578 117.008 32.0226 117.008Z" fill="white"/>
<path d="M24.5423 115.06C24.7744 115.06 24.9626 114.872 24.9626 114.64C24.9626 114.408 24.7744 114.22 24.5423 114.22C24.3102 114.22 24.1221 114.408 24.1221 114.64C24.1221 114.872 24.3102 115.06 24.5423 115.06Z" fill="white"/>
<path d="M25.5228 105.815C25.5228 106.319 25.1165 106.726 24.6122 106.726C24.1079 106.726 23.7017 106.319 23.7017 105.815C23.7017 105.311 24.1079 104.905 24.6122 104.905C25.1025 104.905 25.5228 105.311 25.5228 105.815Z" fill="white"/>
<path d="M27.652 101.696C27.652 102.187 27.2597 102.579 26.7694 102.579C26.2792 102.579 25.887 102.187 25.887 101.696C25.887 101.206 26.2792 100.814 26.7694 100.814C27.2597 100.814 27.652 101.206 27.652 101.696Z" fill="white"/>
<path d="M21.7406 96.2054C21.7406 96.8218 21.2363 97.3261 20.6199 97.3261C20.0036 97.3261 19.4993 96.8218 19.4993 96.2054C19.4993 95.589 20.0036 95.0848 20.6199 95.0848C21.2363 95.0707 21.7406 95.575 21.7406 96.2054Z" fill="white"/>
<path d="M165.829 16.5271C165.829 16.9194 165.507 17.2416 165.115 17.2416C164.722 17.2416 164.4 16.9194 164.4 16.5271C164.4 16.1349 164.722 15.8127 165.115 15.8127C165.507 15.8127 165.829 16.1349 165.829 16.5271Z" fill="white"/>
<path d="M169.289 16.3309C169.56 16.3309 169.779 16.1114 169.779 15.8406C169.779 15.5699 169.56 15.3503 169.289 15.3503C169.018 15.3503 168.799 15.5699 168.799 15.8406C168.799 16.1114 169.018 16.3309 169.289 16.3309Z" fill="white"/>
<path d="M171.292 20.4492C171.548 20.4492 171.755 20.2422 171.755 19.9869C171.755 19.7316 171.548 19.5247 171.292 19.5247C171.037 19.5247 170.83 19.7316 170.83 19.9869C170.83 20.2422 171.037 20.4492 171.292 20.4492Z" fill="white"/>
<path d="M169.555 28.154C169.555 28.6022 169.191 28.9664 168.743 28.9664C168.295 28.9664 167.93 28.6022 167.93 28.154C167.93 27.7057 168.295 27.3415 168.743 27.3415C169.191 27.3274 169.555 27.6917 169.555 28.154Z" fill="white"/>
<path d="M170.928 31.7679C170.928 32.2722 170.522 32.6785 170.017 32.6785C169.513 32.6785 169.107 32.2722 169.107 31.7679C169.107 31.2637 169.513 30.8574 170.017 30.8574C170.522 30.8574 170.928 31.2637 170.928 31.7679Z" fill="white"/>
<path d="M170.312 35.2279C170.312 35.7322 169.906 36.1384 169.401 36.1384C168.897 36.1384 168.491 35.7322 168.491 35.2279C168.491 34.7236 168.897 34.3174 169.401 34.3174C169.906 34.3174 170.312 34.7236 170.312 35.2279Z" fill="white"/>
<path d="M169.303 25.2538C169.303 25.59 169.023 25.8702 168.687 25.8702C168.351 25.8702 168.071 25.59 168.071 25.2538C168.071 24.9176 168.351 24.6375 168.687 24.6375C169.037 24.6375 169.303 24.9036 169.303 25.2538Z" fill="white"/>
<path d="M173.492 35.0598C173.492 35.4941 173.141 35.8443 172.707 35.8443C172.273 35.8443 171.923 35.4941 171.923 35.0598C171.923 34.6256 172.273 34.2754 172.707 34.2754C173.141 34.2754 173.492 34.6256 173.492 35.0598Z" fill="white"/>
<path d="M171.615 41.1394C171.615 41.6717 171.18 42.106 170.648 42.106C170.116 42.106 169.681 41.6717 169.681 41.1394C169.681 40.6071 170.116 40.1729 170.648 40.1729C171.18 40.1729 171.615 40.6071 171.615 41.1394Z" fill="white"/>
<path d="M172.217 47.1491C172.217 47.7935 171.685 48.3258 171.04 48.3258C170.396 48.3258 169.864 47.7935 169.864 47.1491C169.864 46.5047 170.396 45.9724 171.04 45.9724C171.685 45.9724 172.217 46.4907 172.217 47.1491Z" fill="white"/>
<path d="M160.422 48.4376C160.886 48.4376 161.263 48.0613 161.263 47.5971C161.263 47.1329 160.886 46.7566 160.422 46.7566C159.958 46.7566 159.582 47.1329 159.582 47.5971C159.582 48.0613 159.958 48.4376 160.422 48.4376Z" fill="white"/>
<path d="M165.423 58.2154C165.423 58.8598 164.904 59.3781 164.26 59.3781C163.616 59.3781 163.097 58.8598 163.097 58.2154C163.097 57.571 163.616 57.0527 164.26 57.0527C164.919 57.0527 165.423 57.571 165.423 58.2154Z" fill="white"/>
<path d="M165.031 51.3793C165.031 51.7855 164.708 52.1077 164.302 52.1077C163.896 52.1077 163.574 51.7855 163.574 51.3793C163.574 50.9731 163.896 50.6509 164.302 50.6509C164.694 50.6509 165.031 50.9871 165.031 51.3793Z" fill="white"/>
<path d="M169.555 50.3288C169.555 51.0012 169.009 51.5475 168.337 51.5475C167.664 51.5475 167.118 51.0012 167.118 50.3288C167.118 49.6564 167.664 49.1101 168.337 49.1101C169.009 49.1241 169.555 49.6704 169.555 50.3288Z" fill="white"/>
<path d="M170.732 50.9311C170.732 51.6175 170.172 52.1778 169.485 52.1778C168.799 52.1778 168.239 51.6175 168.239 50.9311C168.239 50.2447 168.799 49.6843 169.485 49.6843C170.186 49.6843 170.732 50.2447 170.732 50.9311Z" fill="white"/>
<path d="M175.551 49.7965C175.551 50.3428 175.117 50.7771 174.57 50.7771C174.024 50.7771 173.59 50.3428 173.59 49.7965C173.59 49.2501 174.024 48.8159 174.57 48.8159C175.117 48.8159 175.551 49.2642 175.551 49.7965Z" fill="white"/>
<path d="M168.183 57.4588C168.183 58.1592 167.608 58.7335 166.908 58.7335C166.207 58.7335 165.633 58.1592 165.633 57.4588C165.633 56.7584 166.207 56.1841 166.908 56.1841C167.608 56.1841 168.183 56.7584 168.183 57.4588Z" fill="white"/>
<path d="M167.692 61.7314C167.692 62.4178 167.132 62.9781 166.445 62.9781C165.759 62.9781 165.199 62.4178 165.199 61.7314C165.199 61.045 165.759 60.4846 166.445 60.4846C167.132 60.4846 167.692 61.045 167.692 61.7314Z" fill="white"/>
<path d="M169.527 67.3346C169.527 67.8529 169.107 68.2731 168.589 68.2731C168.07 68.2731 167.65 67.8529 167.65 67.3346C167.65 66.8163 168.07 66.396 168.589 66.396C169.121 66.41 169.527 66.8163 169.527 67.3346Z" fill="white"/>
<path d="M165.605 69.5482C165.605 69.8003 165.395 70.0105 165.143 70.0105C164.891 70.0105 164.68 69.8003 164.68 69.5482C164.68 69.296 164.891 69.0859 165.143 69.0859C165.395 69.0859 165.605 69.296 165.605 69.5482Z" fill="white"/>
<path d="M171.11 64.5613C171.396 64.5613 171.628 64.3292 171.628 64.043C171.628 63.7567 171.396 63.5247 171.11 63.5247C170.824 63.5247 170.592 63.7567 170.592 64.043C170.592 64.3292 170.824 64.5613 171.11 64.5613Z" fill="white"/>
<path d="M161.472 64.8551C161.472 65.1913 161.192 65.4715 160.856 65.4715C160.52 65.4715 160.24 65.1913 160.24 64.8551C160.24 64.5189 160.52 64.2388 160.856 64.2388C161.192 64.2248 161.472 64.5049 161.472 64.8551Z" fill="white"/>
<path d="M163.882 71.1029C163.882 71.7333 163.378 72.2376 162.747 72.2376C162.117 72.2376 161.613 71.7333 161.613 71.1029C161.613 70.4726 162.117 69.9683 162.747 69.9683C163.378 69.9683 163.882 70.4726 163.882 71.1029Z" fill="white"/>
<path d="M163.574 76.6362C163.574 76.9584 163.308 77.2245 162.986 77.2245C162.663 77.2245 162.397 76.9584 162.397 76.6362C162.397 76.314 162.663 76.0479 162.986 76.0479C163.308 76.0479 163.574 76.314 163.574 76.6362Z" fill="white"/>
<path d="M159.385 84.1444C160.035 84.1444 160.562 83.6176 160.562 82.9677C160.562 82.3178 160.035 81.791 159.385 81.791C158.736 81.791 158.209 82.3178 158.209 82.9677C158.209 83.6176 158.736 84.1444 159.385 84.1444Z" fill="white"/>
<path d="M153.74 84.3548C153.74 84.5229 153.6 84.663 153.432 84.663C153.264 84.663 153.124 84.5229 153.124 84.3548C153.124 84.1867 153.264 84.0466 153.432 84.0466C153.6 84.0466 153.74 84.1867 153.74 84.3548Z" fill="white"/>
<path d="M155.323 82.7577C155.323 82.9678 155.155 83.1359 154.945 83.1359C154.734 83.1359 154.566 82.9678 154.566 82.7577C154.566 82.5476 154.734 82.3795 154.945 82.3795C155.155 82.3655 155.323 82.5336 155.323 82.7577Z" fill="white"/>
<path d="M149.341 80.5164C149.341 80.7826 149.117 81.0067 148.851 81.0067C148.585 81.0067 148.361 80.7826 148.361 80.5164C148.361 80.2503 148.585 80.0261 148.851 80.0261C149.117 80.0261 149.341 80.2503 149.341 80.5164Z" fill="white"/>
<path d="M153.11 77.827C153.11 78.0092 152.97 78.1492 152.788 78.1492C152.605 78.1492 152.465 78.0092 152.465 77.827C152.465 77.6449 152.605 77.5049 152.788 77.5049C152.97 77.5049 153.11 77.6449 153.11 77.827Z" fill="white"/>
<path d="M161.024 80.2642C161.024 80.6004 160.758 80.8666 160.422 80.8666C160.086 80.8666 159.82 80.6004 159.82 80.2642C159.82 79.928 160.086 79.6619 160.422 79.6619C160.758 79.6759 161.024 79.942 161.024 80.2642Z" fill="white"/>
<path d="M159.82 87.5065C159.82 87.8707 159.526 88.1649 159.161 88.1649C158.797 88.1649 158.503 87.8707 158.503 87.5065C158.503 87.1423 158.797 86.8481 159.161 86.8481C159.526 86.8481 159.82 87.1423 159.82 87.5065Z" fill="white"/>
<path d="M164.484 92.7318C164.484 93.068 164.218 93.3341 163.882 93.3341C163.546 93.3341 163.28 93.068 163.28 92.7318C163.28 92.3956 163.546 92.1294 163.882 92.1294C164.218 92.1294 164.484 92.3956 164.484 92.7318Z" fill="white"/>
<path d="M156.234 96.1776C156.234 96.6959 155.813 97.1302 155.281 97.1302C154.749 97.1302 154.328 96.71 154.328 96.1776C154.328 95.6593 154.749 95.2251 155.281 95.2251C155.813 95.2251 156.234 95.6593 156.234 96.1776Z" fill="white"/>
<path d="M155.631 104.569C155.631 105.073 155.225 105.493 154.707 105.493C154.188 105.493 153.782 105.087 153.782 104.569C153.782 104.05 154.188 103.644 154.707 103.644C155.225 103.644 155.631 104.064 155.631 104.569Z" fill="white"/>
<path d="M146.596 103.49C147.099 103.49 147.506 103.082 147.506 102.579C147.506 102.077 147.099 101.669 146.596 101.669C146.093 101.669 145.685 102.077 145.685 102.579C145.685 103.082 146.093 103.49 146.596 103.49Z" fill="white"/>
<path d="M144.158 108.225C144.158 108.547 143.906 108.799 143.584 108.799C143.262 108.799 143.01 108.547 143.01 108.225C143.01 107.903 143.262 107.651 143.584 107.651C143.892 107.651 144.158 107.903 144.158 108.225Z" fill="white"/>
<path d="M104.711 25.7585C104.711 26.2488 104.319 26.641 103.829 26.641C103.339 26.641 102.946 26.2488 102.946 25.7585C102.946 25.2682 103.339 24.876 103.829 24.876C104.319 24.89 104.711 25.2822 104.711 25.7585Z" fill="white"/>
<path d="M106.91 28.6025C107.39 28.6025 107.779 28.2136 107.779 27.734C107.779 27.2543 107.39 26.8655 106.91 26.8655C106.431 26.8655 106.042 27.2543 106.042 27.734C106.042 28.2136 106.431 28.6025 106.91 28.6025Z" fill="white"/>
<path d="M107.303 34.1217C107.303 34.7941 106.757 35.3264 106.098 35.3264C105.426 35.3264 104.894 34.7801 104.894 34.1217C104.894 33.4493 105.44 32.917 106.098 32.917C106.757 32.903 107.303 33.4493 107.303 34.1217Z" fill="white"/>
<path d="M104.025 33.8135C104.025 34.4018 103.549 34.8781 102.96 34.8781C102.372 34.8781 101.896 34.4018 101.896 33.8135C101.896 33.2251 102.372 32.7488 102.96 32.7488C103.549 32.7348 104.025 33.2251 104.025 33.8135Z" fill="white"/>
<path d="M103.142 26.557C103.142 27.0333 102.75 27.4255 102.274 27.4255C101.798 27.4255 101.405 27.0333 101.405 26.557C101.405 26.0807 101.798 25.6885 102.274 25.6885C102.75 25.6885 103.142 26.0807 103.142 26.557Z" fill="white"/>
<path d="M107.849 23.9658C108.105 23.9658 108.312 23.7588 108.312 23.5035C108.312 23.2482 108.105 23.0413 107.849 23.0413C107.594 23.0413 107.387 23.2482 107.387 23.5035C107.387 23.7588 107.594 23.9658 107.849 23.9658Z" fill="white"/>
<path d="M109.516 18.5022C109.516 18.6703 109.39 18.7964 109.222 18.7964C109.054 18.7964 108.928 18.6703 108.928 18.5022C108.928 18.3341 109.054 18.208 109.222 18.208C109.39 18.208 109.516 18.3341 109.516 18.5022Z" fill="white"/>
<path d="M111.085 16.1212C111.511 16.1212 111.856 15.7763 111.856 15.3508C111.856 14.9252 111.511 14.5803 111.085 14.5803C110.66 14.5803 110.315 14.9252 110.315 15.3508C110.315 15.7763 110.66 16.1212 111.085 16.1212Z" fill="white"/>
<path d="M108.269 9.85928C108.269 10.4336 107.807 10.8819 107.247 10.8819C106.672 10.8819 106.224 10.4196 106.224 9.85928C106.224 9.28495 106.686 8.83667 107.247 8.83667C107.807 8.83667 108.269 9.29896 108.269 9.85928Z" fill="white"/>
<path d="M104.473 14.6922C104.473 15.1824 104.081 15.5747 103.591 15.5747C103.1 15.5747 102.708 15.1824 102.708 14.6922C102.708 14.2019 103.1 13.8097 103.591 13.8097C104.067 13.7957 104.473 14.2019 104.473 14.6922Z" fill="white"/>
<path d="M107.597 25.6325C108.27 25.6325 108.816 25.0869 108.816 24.4138C108.816 23.7407 108.27 23.1951 107.597 23.1951C106.924 23.1951 106.378 23.7407 106.378 24.4138C106.378 25.0869 106.924 25.6325 107.597 25.6325Z" fill="white"/>
<path d="M97.8473 22.3407C97.8473 22.929 97.371 23.3913 96.7967 23.3913C96.2084 23.3913 95.7461 22.915 95.7461 22.3407C95.7461 21.7523 96.2224 21.29 96.7967 21.29C97.371 21.29 97.8473 21.7523 97.8473 22.3407Z" fill="white"/>
<path d="M105.65 26.8233C105.65 27.2155 105.328 27.5377 104.935 27.5377C104.543 27.5377 104.221 27.2155 104.221 26.8233C104.221 26.431 104.543 26.1089 104.935 26.1089C105.328 26.1089 105.65 26.431 105.65 26.8233Z" fill="white"/>
<path d="M101.588 20.4774C101.588 21.1778 101.013 21.7521 100.313 21.7521C99.6124 21.7521 99.0381 21.1778 99.0381 20.4774C99.0381 19.777 99.6124 19.2026 100.313 19.2026C101.027 19.2026 101.588 19.777 101.588 20.4774Z" fill="white"/>
<path d="M103.142 14.2441C103.142 14.6083 102.848 14.9025 102.484 14.9025C102.12 14.9025 101.826 14.6083 101.826 14.2441C101.826 13.8799 102.12 13.5857 102.484 13.5857C102.848 13.5857 103.142 13.8799 103.142 14.2441Z" fill="white"/>
<path d="M11.9769 83.4721C12.619 83.4721 13.1396 82.9516 13.1396 82.3094C13.1396 81.6673 12.619 81.1467 11.9769 81.1467C11.3347 81.1467 10.8142 81.6673 10.8142 82.3094C10.8142 82.9516 11.3347 83.4721 11.9769 83.4721Z" fill="white"/>
<path d="M12.9156 72.9382C12.9156 73.6246 12.3552 74.1849 11.6688 74.1849C10.9824 74.1849 10.4221 73.6246 10.4221 72.9382C10.4221 72.2518 10.9824 71.6914 11.6688 71.6914C12.3552 71.6914 12.9156 72.2518 12.9156 72.9382Z" fill="white"/>
<path d="M10.9825 73.1622C10.9825 73.7785 10.4783 74.2828 9.86189 74.2828C9.24553 74.2828 8.74121 73.7785 8.74121 73.1622C8.74121 72.5458 9.24553 72.0415 9.86189 72.0415C10.4783 72.0415 10.9825 72.5458 10.9825 73.1622Z" fill="white"/>
<path d="M6.05145 74.1427C6.05145 74.4368 5.81331 74.675 5.51913 74.675C5.22496 74.675 4.98682 74.4368 4.98682 74.1427C4.98682 73.8485 5.22496 73.6104 5.51913 73.6104C5.81331 73.6104 6.05145 73.8485 6.05145 74.1427Z" fill="white"/>
<path d="M2.64758 69.0018C3.15046 69.0018 3.55815 68.5941 3.55815 68.0912C3.55815 67.5884 3.15046 67.1807 2.64758 67.1807C2.14471 67.1807 1.73706 67.5884 1.73706 68.0912C1.73706 68.5941 2.14471 69.0018 2.64758 69.0018Z" fill="white"/>
<path d="M4.34271 62.2355C4.34271 62.8519 3.85241 63.3422 3.23605 63.3422C2.61969 63.3422 2.12939 62.8519 2.12939 62.2355C2.12939 61.6192 2.61969 61.1289 3.23605 61.1289C3.85241 61.1289 4.34271 61.6332 4.34271 62.2355Z" fill="white"/>
<path d="M5.07108 55.3579C5.07108 55.8902 4.63682 56.3245 4.10451 56.3245C3.5722 56.3245 3.13794 55.8902 3.13794 55.3579C3.13794 54.8256 3.5722 54.3914 4.10451 54.3914C4.63682 54.3914 5.07108 54.8256 5.07108 55.3579Z" fill="white"/>
<path d="M13.6019 51.8275C13.6019 52.3459 13.1816 52.7801 12.6493 52.7801C12.117 52.7801 11.6968 52.3599 11.6968 51.8275C11.6968 51.2952 12.117 50.875 12.6493 50.875C13.1816 50.875 13.6019 51.2952 13.6019 51.8275Z" fill="white"/>
<path d="M17.3423 57.5149C17.3423 58.0892 16.88 58.5515 16.3056 58.5515C15.7313 58.5515 15.269 58.0892 15.269 57.5149C15.269 56.9405 15.7313 56.4783 16.3056 56.4783C16.88 56.4783 17.3423 56.9405 17.3423 57.5149Z" fill="white"/>
<path d="M12.9997 64.169C12.9997 64.6173 12.6355 64.9815 12.1873 64.9815C11.739 64.9815 11.3748 64.6173 11.3748 64.169C11.3748 63.7208 11.739 63.3566 12.1873 63.3566C12.6355 63.3426 12.9997 63.7068 12.9997 64.169Z" fill="white"/>
<path d="M10.7863 60.4985C11.3897 60.4985 11.8789 60.0093 11.8789 59.4059C11.8789 58.8024 11.3897 58.3132 10.7863 58.3132C10.1828 58.3132 9.6936 58.8024 9.6936 59.4059C9.6936 60.0093 10.1828 60.4985 10.7863 60.4985Z" fill="white"/>
<path d="M2.74553 57.1086C2.74553 57.4308 2.4794 57.6969 2.15721 57.6969C1.83502 57.6969 1.56885 57.4308 1.56885 57.1086C1.56885 56.7864 1.83502 56.5203 2.15721 56.5203C2.4794 56.5203 2.74553 56.7864 2.74553 57.1086Z" fill="white"/>
<path d="M9.80569 51.1131C10.0533 51.1131 10.254 50.9124 10.254 50.6648C10.254 50.4173 10.0533 50.2166 9.80569 50.2166C9.55813 50.2166 9.35742 50.4173 9.35742 50.6648C9.35742 50.9124 9.55813 51.1131 9.80569 51.1131Z" fill="white"/>
<path d="M1.26073 44.2632C1.26073 44.6134 0.980591 44.8935 0.630386 44.8935C0.280181 44.8935 0 44.6134 0 44.2632C0 43.913 0.280181 43.6328 0.630386 43.6328C0.980591 43.6328 1.26073 43.913 1.26073 44.2632Z" fill="white"/>
<path d="M4.44068 40.3829C4.99771 40.3829 5.44927 39.9313 5.44927 39.3743C5.44927 38.8173 4.99771 38.3657 4.44068 38.3657C3.88365 38.3657 3.43213 38.8173 3.43213 39.3743C3.43213 39.9313 3.88365 40.3829 4.44068 40.3829Z" fill="white"/>
<path d="M7.52242 32.6644C7.52242 33.2107 7.07414 33.645 6.54183 33.645C6.00952 33.645 5.56128 33.1967 5.56128 32.6644C5.56128 32.1321 6.00952 31.6838 6.54183 31.6838C7.07414 31.6838 7.52242 32.1181 7.52242 32.6644Z" fill="white"/>
<path d="M16.5576 31.5156C17.0063 31.5156 17.3701 31.1518 17.3701 30.7031C17.3701 30.2544 17.0063 29.8906 16.5576 29.8906C16.1089 29.8906 15.7451 30.2544 15.7451 30.7031C15.7451 31.1518 16.1089 31.5156 16.5576 31.5156Z" fill="white"/>
<path d="M18.897 27.9437C19.5778 27.9437 20.1298 27.3918 20.1298 26.711C20.1298 26.0302 19.5778 25.4783 18.897 25.4783C18.2162 25.4783 17.6643 26.0302 17.6643 26.711C17.6643 27.3918 18.2162 27.9437 18.897 27.9437Z" fill="white"/>
<path d="M19.4993 30.6333C19.6849 30.6333 19.8355 30.4828 19.8355 30.2971C19.8355 30.1114 19.6849 29.9609 19.4993 29.9609C19.3136 29.9609 19.1631 30.1114 19.1631 30.2971C19.1631 30.4828 19.3136 30.6333 19.4993 30.6333Z" fill="white"/>
<path d="M29.9775 29.0222C29.9775 29.6946 29.4311 30.2409 28.7587 30.2409C28.0864 30.2409 27.54 29.6946 27.54 29.0222C27.54 28.3498 28.0864 27.8035 28.7587 27.8035C29.4451 27.8035 29.9775 28.3498 29.9775 29.0222Z" fill="white"/>
<path d="M27.414 35.4099C27.414 35.6621 27.2039 35.8722 26.9518 35.8722C26.6996 35.8722 26.4895 35.6621 26.4895 35.4099C26.4895 35.1578 26.6996 34.9477 26.9518 34.9477C27.2039 34.9337 27.414 35.1438 27.414 35.4099Z" fill="white"/>
<path d="M31.6165 41.0274C31.6165 41.4616 31.2663 41.8118 30.8321 41.8118C30.3978 41.8118 30.0476 41.4616 30.0476 41.0274C30.0476 40.5931 30.3978 40.2429 30.8321 40.2429C31.2663 40.2429 31.6165 40.5931 31.6165 41.0274Z" fill="white"/>
<path d="M28.8848 47.0369C29.2329 47.0369 29.5152 46.7547 29.5152 46.4065C29.5152 46.0584 29.2329 45.7761 28.8848 45.7761C28.5366 45.7761 28.2544 46.0584 28.2544 46.4065C28.2544 46.7547 28.5366 47.0369 28.8848 47.0369Z" fill="white"/>
<path d="M20.6901 46.084C20.6901 46.3222 20.508 46.5043 20.2699 46.5043C20.0317 46.5043 19.8496 46.3222 19.8496 46.084C19.8496 45.8459 20.0317 45.6638 20.2699 45.6638C20.508 45.6638 20.6901 45.8599 20.6901 46.084Z" fill="white"/>
<path d="M19.1072 55.2456C19.4167 55.2456 19.6676 54.9948 19.6676 54.6853C19.6676 54.3759 19.4167 54.125 19.1072 54.125C18.7977 54.125 18.5469 54.3759 18.5469 54.6853C18.5469 54.9948 18.7977 55.2456 19.1072 55.2456Z" fill="white"/>
<path d="M13.5038 52.094C13.5038 52.4162 13.2377 52.6823 12.9155 52.6823C12.5933 52.6823 12.3271 52.4162 12.3271 52.094C12.3271 51.7718 12.5933 51.5056 12.9155 51.5056C13.2517 51.5056 13.5038 51.7718 13.5038 52.094Z" fill="white"/>
<path d="M19.5414 43.6186C19.5414 44.235 19.0511 44.7252 18.4348 44.7252C17.8184 44.7252 17.3281 44.235 17.3281 43.6186C17.3281 43.0023 17.8184 42.512 18.4348 42.512C19.0511 42.526 19.5414 43.0163 19.5414 43.6186Z" fill="white"/>
<path d="M17.3142 41.0275C17.3142 41.5878 16.852 42.0501 16.2917 42.0501C15.7313 42.0501 15.269 41.5878 15.269 41.0275C15.269 40.4672 15.7313 40.0049 16.2917 40.0049C16.866 40.0049 17.3142 40.4672 17.3142 41.0275Z" fill="white"/>
<path d="M16.3896 33.8831C16.5675 33.8831 16.7117 33.7389 16.7117 33.5609C16.7117 33.383 16.5675 33.2388 16.3896 33.2388C16.2116 33.2388 16.0674 33.383 16.0674 33.5609C16.0674 33.7389 16.2116 33.8831 16.3896 33.8831Z" fill="white"/>
<path d="M21.6427 29.961C21.6427 30.2272 21.4186 30.4513 21.1524 30.4513C20.8862 30.4513 20.6621 30.2272 20.6621 29.961C20.6621 29.6948 20.8862 29.4707 21.1524 29.4707C21.4326 29.4707 21.6427 29.6808 21.6427 29.961Z" fill="white"/>
</svg>
