<svg width="164" height="225" viewBox="0 0 164 225" fill="none" xmlns="http://www.w3.org/2000/svg">
<path d="M155.688 115.733C155.356 111.261 154.528 106.755 152.557 102.714C150.586 98.672 147.373 95.1273 143.248 93.4046C139.124 91.682 134.005 91.9801 130.477 94.7463C128.87 89.7937 124.58 85.2551 119.711 83.3999C114.841 81.5448 109.143 82.0251 104.637 84.6754C107.917 76.3271 109.954 67.6972 110.965 58.7858C111.859 50.8516 111.81 42.6525 109.341 35.0496C106.873 27.4467 101.772 20.4566 94.5498 17.0113C87.3445 13.566 77.9858 14.2451 72.1387 19.6947C67.3848 24.1173 65.5296 30.776 64.3867 37.1698C62.3659 48.5658 62.0512 60.2766 63.4426 71.772C60.0138 66.1899 56.7341 61.5023 53.3219 55.9202C48.5184 48.0854 43.5326 40.0353 36.1119 34.6355C28.6912 29.2356 18.1234 27.0491 10.272 31.8361C5.23656 34.9005 2.00657 40.4163 0.747705 46.164C-0.527725 51.9283 -0.0142383 57.941 1.11212 63.7219C3.64641 76.6915 9.19536 88.8992 16.1191 100.163C23.0263 111.41 34.3396 123.17 42.6713 133.407C30.8777 137.465 25.9913 149.076 25.5109 157.59C25.0306 166.104 28.0452 174.635 33.1138 181.509C38.1824 188.383 45.189 193.65 52.825 197.46C61.8855 201.982 71.708 205.344 81.8949 205.891C103.958 207.05 128.324 195.489 140.681 176.987C144.308 171.57 143.48 164.332 143.712 157.822C152.358 145.664 156.797 130.624 155.688 115.733Z" fill="#E31F26"/>
<path d="M97.3823 194.528V222.24C97.3823 225.37 102.236 225.37 102.236 222.24V194.528C102.236 191.398 97.3823 191.398 97.3823 194.528Z" fill="#E31F26"/>
<path d="M35.9462 177.782C35.5983 188.499 35.2505 199.216 34.9026 209.933C34.8032 213.063 39.6565 213.063 39.7559 209.933C40.1037 199.216 40.4516 188.499 40.7994 177.782C40.9154 174.651 36.0456 174.651 35.9462 177.782Z" fill="#E31F26"/>
<path d="M50.6056 208.541C49.297 208.608 48.1707 209.601 48.1707 210.976V218.215C48.1707 219.49 49.2804 220.699 50.6056 220.65C51.9141 220.583 53.0405 219.59 53.0405 218.215V210.976C53.0405 209.701 51.9141 208.475 50.6056 208.541Z" fill="#E31F26"/>
<path d="M111.561 188.681C110.236 188.681 109.143 189.791 109.126 191.116C109.093 196.681 109.043 202.23 109.01 207.796C108.994 209.104 110.137 210.231 111.445 210.231C112.77 210.231 113.863 209.121 113.88 207.796C113.913 202.23 113.963 196.681 113.996 191.116C113.996 189.807 112.853 188.681 111.561 188.681Z" fill="#E31F26"/>
<path d="M133.31 170.444C133.293 186.428 133.277 202.429 133.26 218.413C133.26 221.544 138.113 221.544 138.113 218.413C138.13 202.429 138.146 186.428 138.163 170.444C138.163 167.313 133.31 167.313 133.31 170.444Z" fill="#E31F26"/>
<path d="M19.4484 89.8102C19.2331 86.7127 14.3633 86.6796 14.5952 89.8102C15.2412 98.9535 15.8706 108.097 16.5166 117.24C16.7319 120.338 21.6018 120.371 21.3699 117.24C20.7239 108.097 20.0779 98.9535 19.4484 89.8102Z" fill="#E31F26"/>
<path d="M21.8999 126.201C21.8171 125.539 21.6846 124.976 21.1876 124.479C20.7735 124.065 20.0779 123.733 19.465 123.766C18.8356 123.8 18.1896 123.998 17.7423 124.479C17.3448 124.926 16.9473 125.572 17.0301 126.201C17.2951 128.272 17.5436 130.342 17.8086 132.413C17.8914 133.075 18.0239 133.639 18.5208 134.136C18.9349 134.55 19.6306 134.881 20.2435 134.848C20.8729 134.815 21.5189 134.616 21.9662 134.136C22.3637 133.688 22.7612 133.042 22.6784 132.413C22.43 130.326 22.1649 128.272 21.8999 126.201Z" fill="#E31F26"/>
<path d="M160.938 110.068C160.607 105.596 159.779 101.09 157.808 97.0488C155.837 93.0072 152.623 89.4625 148.499 87.7398C144.358 86.0006 139.256 86.3153 135.728 89.0815C134.121 84.1289 129.831 79.5903 124.961 77.7351C120.091 75.88 114.393 76.3603 109.888 79.0106C113.168 70.6623 115.205 62.0324 116.216 53.121C117.11 45.1868 117.06 36.9876 114.592 29.3847C112.124 21.7819 107.022 14.7918 99.8005 11.3465C92.5952 7.9012 83.2365 8.58034 77.3894 14.0299C72.6355 18.4525 70.7804 25.1112 69.6374 31.5049C67.6166 42.901 67.3019 54.6118 68.6933 66.1072C65.2645 60.5251 61.9849 55.8375 58.5727 50.2554C53.7691 42.4206 48.7833 34.3705 41.3627 28.9706C33.942 23.5708 23.3741 21.3843 15.5228 26.1713C10.4873 29.2357 7.2573 34.7515 5.99844 40.4992C4.72301 46.2635 5.23649 52.2763 6.36285 58.0571C8.89714 71.0267 14.4461 83.2344 21.3699 94.498C28.2771 105.745 39.5903 117.505 47.922 127.742C36.1284 131.8 31.242 143.412 30.7617 151.925C30.2813 160.439 33.296 168.97 38.3646 175.844C43.4332 182.718 50.4397 187.985 58.0757 191.795C65.7118 195.605 73.9772 197.99 82.3255 199.779C94.3178 202.33 105.929 198.023 117.325 193.518C128.721 189.012 139.107 181.509 145.915 171.322C149.542 165.905 148.714 158.667 148.946 152.157C157.626 139.999 162.048 124.943 160.938 110.068Z" stroke="white" stroke-width="4" stroke-miterlimit="10" stroke-linecap="round" stroke-linejoin="round"/>
<path d="M42.7542 130.359C53.8686 123.899 67.6002 122.094 80.0067 125.473C83.1538 126.334 86.3672 127.61 88.504 130.078C91.1045 133.109 91.6677 137.565 90.5082 141.391C89.3653 145.217 86.6985 148.447 83.6011 150.948C80.487 153.449 76.9092 155.305 73.3645 157.127" stroke="white" stroke-width="4" stroke-miterlimit="10" stroke-linecap="round" stroke-linejoin="round"/>
<path d="M134.121 85.603C139.786 98.9536 138.925 110.979 135.231 123.634C134.072 127.643 132.399 131.668 129.334 134.5C125.508 138.012 119.793 139.155 114.774 137.829C109.756 136.504 105.499 132.877 102.931 128.355C100.38 123.833 99.4527 118.499 99.8337 113.331" stroke="white" stroke-width="4" stroke-miterlimit="10" stroke-linecap="round" stroke-linejoin="round"/>
<path d="M133.127 131.585C133.773 136.57 138.13 140.861 143.248 141.871C148.366 142.881 153.899 140.711 157.013 136.753" stroke="white" stroke-width="4" stroke-miterlimit="10" stroke-linecap="round" stroke-linejoin="round"/>
<path d="M62.2334 55.3735C68.7762 65.312 74.0767 76.0786 78.0024 87.309" stroke="white" stroke-width="4" stroke-miterlimit="10" stroke-linecap="round" stroke-linejoin="round"/>
<path d="M86.301 19.3136C86.301 19.6449 86.036 19.9099 85.7047 19.9099C85.3734 19.9099 85.1084 19.6449 85.1084 19.3136C85.1084 18.9823 85.3734 18.7173 85.7047 18.7173C86.036 18.7007 86.301 18.9658 86.301 19.3136Z" fill="white"/>
<path d="M82.4415 15.0402C82.4415 15.7194 81.8949 16.2494 81.2324 16.2494C80.5532 16.2494 80.0232 15.7028 80.0232 15.0402C80.0232 14.3777 80.5698 13.8311 81.2324 13.8311C81.8949 13.8311 82.4415 14.3611 82.4415 15.0402Z" fill="white"/>
<path d="M76.1804 20.4565C76.1804 20.9369 75.7995 21.3179 75.3191 21.3179C74.8387 21.3179 74.4578 20.9369 74.4578 20.4565C74.4578 19.9762 74.8387 19.5952 75.3191 19.5952C75.7829 19.5952 76.1804 19.9762 76.1804 20.4565Z" fill="white"/>
<path d="M75.3358 27.3969C75.3358 27.5956 75.1701 27.7613 74.9713 27.7613C74.7726 27.7613 74.6069 27.5956 74.6069 27.3969C74.6069 27.1981 74.7726 27.0325 74.9713 27.0325C75.1701 27.0325 75.3358 27.1981 75.3358 27.3969Z" fill="white"/>
<path d="M80.487 24.1834C80.487 24.9951 79.841 25.6411 79.0294 25.6411C78.2178 25.6411 77.5718 24.9951 77.5718 24.1834C77.5718 23.3718 78.2178 22.7258 79.0294 22.7258C79.841 22.7258 80.487 23.3884 80.487 24.1834Z" fill="white"/>
<path d="M91.2205 19.6779C91.2205 19.8766 91.0549 20.0423 90.8561 20.0423C90.6573 20.0423 90.4917 19.8766 90.4917 19.6779C90.4917 19.4791 90.6573 19.3135 90.8561 19.3135C91.0549 19.3135 91.2205 19.4791 91.2205 19.6779Z" fill="white"/>
<path d="M84.1808 9.64031C84.1808 9.83908 84.0317 9.98817 83.833 9.98817C83.6342 9.98817 83.4851 9.83908 83.4851 9.64031C83.4851 9.44154 83.6342 9.29248 83.833 9.29248C84.0317 9.29248 84.1808 9.44154 84.1808 9.64031Z" fill="white"/>
<path d="M83.2035 1.82203C83.7067 1.82203 84.1145 1.41417 84.1145 0.911027C84.1145 0.407883 83.7067 0 83.2035 0C82.7004 0 82.2925 0.407883 82.2925 0.911027C82.2925 1.41417 82.7004 1.82203 83.2035 1.82203Z" fill="white"/>
<path d="M87.3778 7.96734C87.3778 8.24893 87.1459 8.48082 86.8643 8.48082C86.5827 8.48082 86.3508 8.24893 86.3508 7.96734C86.3508 7.68575 86.5827 7.45386 86.8643 7.45386C87.1459 7.45386 87.3778 7.68575 87.3778 7.96734Z" fill="white"/>
<path d="M91.4027 14.7086C91.4027 15.1724 91.0218 15.5368 90.5745 15.5368C90.1107 15.5368 89.7463 15.1558 89.7463 14.7086C89.7463 14.2448 90.1273 13.8804 90.5745 13.8804C91.0218 13.8804 91.4027 14.2448 91.4027 14.7086Z" fill="white"/>
<path d="M96.637 19.9431C97.1127 19.9431 97.4983 19.5575 97.4983 19.0818C97.4983 18.6061 97.1127 18.2205 96.637 18.2205C96.1613 18.2205 95.7756 18.6061 95.7756 19.0818C95.7756 19.5575 96.1613 19.9431 96.637 19.9431Z" fill="white"/>
<path d="M95.5439 26.9496C95.9098 26.9496 96.2065 26.653 96.2065 26.2871C96.2065 25.9211 95.9098 25.6245 95.5439 25.6245C95.178 25.6245 94.8813 25.9211 94.8813 26.2871C94.8813 26.653 95.178 26.9496 95.5439 26.9496Z" fill="white"/>
<path d="M104.273 20.9533C104.273 21.152 104.107 21.3177 103.909 21.3177C103.71 21.3177 103.544 21.152 103.544 20.9533C103.544 20.7545 103.71 20.5889 103.909 20.5889C104.107 20.5889 104.273 20.7545 104.273 20.9533Z" fill="white"/>
<path d="M104.306 14.013C104.306 14.5265 103.892 14.9571 103.362 14.9571C102.849 14.9571 102.418 14.543 102.418 14.013C102.418 13.4995 102.832 13.0688 103.362 13.0688C103.892 13.0854 104.306 13.4995 104.306 14.013Z" fill="white"/>
<path d="M110.65 9.30901C110.65 9.92187 110.153 10.4188 109.54 10.4188C108.928 10.4188 108.431 9.92187 108.431 9.30901C108.431 8.69614 108.928 8.19922 109.54 8.19922C110.153 8.19922 110.65 8.69614 110.65 9.30901Z" fill="white"/>
<path d="M112.969 1.441C112.969 1.83854 112.654 2.15327 112.257 2.15327C111.859 2.15327 111.545 1.83854 111.545 1.441C111.545 1.04346 111.859 0.72876 112.257 0.72876C112.654 0.72876 112.969 1.04346 112.969 1.441Z" fill="white"/>
<path d="M108.281 11.8265C108.474 11.8265 108.629 11.6708 108.629 11.4787C108.629 11.2866 108.474 11.1309 108.281 11.1309C108.089 11.1309 107.934 11.2866 107.934 11.4787C107.934 11.6708 108.089 11.8265 108.281 11.8265Z" fill="white"/>
<path d="M107.602 19.9926C107.904 19.9926 108.149 19.7479 108.149 19.446C108.149 19.1441 107.904 18.8994 107.602 18.8994C107.3 18.8994 107.056 19.1441 107.056 19.446C107.056 19.7479 107.3 19.9926 107.602 19.9926Z" fill="white"/>
<path d="M113.483 23.8359C113.483 24.5482 112.903 25.1445 112.174 25.1445C111.462 25.1445 110.865 24.5647 110.865 23.8359C110.865 23.1237 111.445 22.5273 112.174 22.5273C112.903 22.5273 113.483 23.1071 113.483 23.8359Z" fill="white"/>
<path d="M116.017 35.646C116.785 35.646 117.408 35.0231 117.408 34.2547C117.408 33.4862 116.785 32.8633 116.017 32.8633C115.248 32.8633 114.625 33.4862 114.625 34.2547C114.625 35.0231 115.248 35.646 116.017 35.646Z" fill="white"/>
<path d="M109.474 38.1799C109.474 38.5608 109.176 38.859 108.795 38.859C108.414 38.859 108.116 38.5608 108.116 38.1799C108.116 37.7989 108.414 37.5007 108.795 37.5007C109.16 37.5007 109.474 37.8155 109.474 38.1799Z" fill="white"/>
<path d="M117.11 34.3042C117.11 34.4864 116.961 34.652 116.779 34.652C116.597 34.652 116.448 34.5029 116.448 34.3042C116.448 34.122 116.597 33.9729 116.779 33.9729C116.961 33.9729 117.11 34.122 117.11 34.3042Z" fill="white"/>
<path d="M109.789 24.9125C109.789 25.1278 109.623 25.2934 109.408 25.2934C109.192 25.2934 109.027 25.1278 109.027 24.9125C109.027 24.6971 109.192 24.5315 109.408 24.5315C109.623 24.5315 109.789 24.6971 109.789 24.9125Z" fill="white"/>
<path d="M113.665 18.4357C114.305 18.4357 114.824 17.9165 114.824 17.2762C114.824 16.6358 114.305 16.1167 113.665 16.1167C113.025 16.1167 112.505 16.6358 112.505 17.2762C112.505 17.9165 113.025 18.4357 113.665 18.4357Z" fill="white"/>
<path d="M121.284 10.2866C121.284 10.6013 121.036 10.8498 120.721 10.8498C120.406 10.8498 120.158 10.6013 120.158 10.2866C120.158 9.97184 120.406 9.72339 120.721 9.72339C121.036 9.72339 121.284 9.97184 121.284 10.2866Z" fill="white"/>
<path d="M122.344 20.7051C122.912 20.7051 123.371 20.2453 123.371 19.6781C123.371 19.1109 122.912 18.6511 122.344 18.6511C121.777 18.6511 121.317 19.1109 121.317 19.6781C121.317 20.2453 121.777 20.7051 122.344 20.7051Z" fill="white"/>
<path d="M118.883 26.4529C118.883 27.0989 118.353 27.6289 117.707 27.6289C117.061 27.6289 116.531 27.0989 116.531 26.4529C116.531 25.8069 117.061 25.2769 117.707 25.2769C118.353 25.2769 118.883 25.8069 118.883 26.4529Z" fill="white"/>
<path d="M121.963 33.5088C121.963 33.8069 121.715 34.0554 121.417 34.0554C121.119 34.0554 120.87 33.8069 120.87 33.5088C120.87 33.2106 121.119 32.9622 121.417 32.9622C121.715 32.9787 121.963 33.2106 121.963 33.5088Z" fill="white"/>
<path d="M120.622 39.9693C120.622 40.6649 120.058 41.2447 119.346 41.2447C118.651 41.2447 118.071 40.6815 118.071 39.9693C118.071 39.2736 118.634 38.6938 119.346 38.6938C120.042 38.6938 120.622 39.2736 120.622 39.9693Z" fill="white"/>
<path d="M117.59 48.0852C117.59 48.5159 117.243 48.8637 116.812 48.8637C116.381 48.8637 116.033 48.5159 116.033 48.0852C116.033 47.6545 116.381 47.3067 116.812 47.3067C117.243 47.2901 117.59 47.6545 117.59 48.0852Z" fill="white"/>
<path d="M113.797 50.1229C113.797 50.7357 113.3 51.2327 112.687 51.2327C112.075 51.2327 111.578 50.7357 111.578 50.1229C111.578 49.51 112.075 49.0131 112.687 49.0131C113.3 48.9965 113.797 49.51 113.797 50.1229Z" fill="white"/>
<path d="M110.634 43.8617C110.634 44.6733 109.971 45.3193 109.176 45.3193C108.381 45.3193 107.718 44.6568 107.718 43.8617C107.718 43.0666 108.381 42.4041 109.176 42.4041C109.971 42.4041 110.634 43.0501 110.634 43.8617Z" fill="white"/>
<path d="M119.396 37.5837C119.396 37.8322 119.197 38.0309 118.949 38.0309C118.7 38.0309 118.501 37.8322 118.501 37.5837C118.501 37.3353 118.7 37.1365 118.949 37.1365C119.181 37.1365 119.396 37.3353 119.396 37.5837Z" fill="white"/>
<path d="M111.528 40.2669C111.528 40.6147 111.246 40.8797 110.915 40.8797C110.567 40.8797 110.302 40.5982 110.302 40.2669C110.302 39.919 110.584 39.654 110.915 39.654C111.246 39.6375 111.528 39.919 111.528 40.2669Z" fill="white"/>
<path d="M111.114 43.0499C111.873 43.0499 112.489 42.4344 112.489 41.6751C112.489 40.9158 111.873 40.3003 111.114 40.3003C110.355 40.3003 109.739 40.9158 109.739 41.6751C109.739 42.4344 110.355 43.0499 111.114 43.0499Z" fill="white"/>
<path d="M118.236 48.5326C118.236 49.2449 117.657 49.808 116.961 49.808C116.249 49.808 115.686 49.2283 115.686 48.5326C115.686 47.8204 116.265 47.2572 116.961 47.2572C117.657 47.2406 118.236 47.8204 118.236 48.5326Z" fill="white"/>
<path d="M113.483 54.1479C113.483 54.9264 112.853 55.5724 112.058 55.5724C111.28 55.5724 110.634 54.943 110.634 54.1479C110.634 53.3528 111.263 52.7234 112.058 52.7234C112.853 52.7234 113.483 53.3528 113.483 54.1479Z" fill="white"/>
<path d="M117.044 64.1029C117.044 64.517 116.713 64.8483 116.299 64.8483C115.884 64.8483 115.553 64.517 115.553 64.1029C115.553 63.6888 115.884 63.3575 116.299 63.3575C116.713 63.3409 117.044 63.6888 117.044 64.1029Z" fill="white"/>
<path d="M109.093 67.0842C109.093 67.8627 108.464 68.4921 107.685 68.4921C106.907 68.4921 106.277 67.8627 106.277 67.0842C106.277 66.3057 106.907 65.6763 107.685 65.6763C108.464 65.6763 109.093 66.3057 109.093 67.0842Z" fill="white"/>
<path d="M46.0007 122.458C46.0007 123.021 45.5369 123.485 44.9737 123.485C44.4106 123.485 43.9468 123.021 43.9468 122.458C43.9468 121.894 44.4106 121.431 44.9737 121.431C45.5369 121.431 46.0007 121.878 46.0007 122.458Z" fill="white"/>
<path d="M40.0044 120.818C40.5441 120.818 40.9816 120.381 40.9816 119.841C40.9816 119.301 40.5441 118.864 40.0044 118.864C39.4646 118.864 39.0271 119.301 39.0271 119.841C39.0271 120.381 39.4646 120.818 40.0044 120.818Z" fill="white"/>
<path d="M35.4494 118.665C35.4494 119.278 34.9525 119.758 34.3561 119.758C33.7433 119.758 33.2629 119.261 33.2629 118.665C33.2629 118.068 33.7598 117.572 34.3561 117.572C34.9525 117.572 35.4494 118.068 35.4494 118.665Z" fill="white"/>
<path d="M31.3248 112.304C31.3248 112.834 30.8941 113.265 30.364 113.265C29.834 113.265 29.4033 112.834 29.4033 112.304C29.4033 111.774 29.834 111.344 30.364 111.344C30.8941 111.344 31.3248 111.774 31.3248 112.304Z" fill="white"/>
<path d="M32.6334 104.155C32.6334 104.668 32.2193 105.099 31.6893 105.099C31.1758 105.099 30.7451 104.685 30.7451 104.155C30.7451 103.625 31.1592 103.21 31.6893 103.21C32.2193 103.21 32.6334 103.641 32.6334 104.155Z" fill="white"/>
<path d="M37.3045 98.4069C37.3045 98.9038 36.907 99.3014 36.4101 99.3014C35.9132 99.3014 35.5156 98.9038 35.5156 98.4069C35.5156 97.91 35.9132 97.5125 36.4101 97.5125C36.907 97.529 37.3045 97.9266 37.3045 98.4069Z" fill="white"/>
<path d="M44.8245 95.6075C44.8245 96.3198 44.2447 96.8995 43.5325 96.8995C42.8202 96.8995 42.2405 96.3198 42.2405 95.6075C42.2405 94.8953 42.8202 94.3155 43.5325 94.3155C44.2447 94.299 44.8245 94.8787 44.8245 95.6075Z" fill="white"/>
<path d="M45.0895 95.8397C45.0895 96.171 44.8079 96.4526 44.4766 96.4526C44.1453 96.4526 43.8638 96.171 43.8638 95.8397C43.8638 95.5084 44.1453 95.2268 44.4766 95.2268C44.8079 95.2268 45.0895 95.4918 45.0895 95.8397Z" fill="white"/>
<path d="M38.0995 99.8148C38.3557 99.8148 38.5633 99.6071 38.5633 99.351C38.5633 99.0949 38.3557 98.8872 38.0995 98.8872C37.8434 98.8872 37.6357 99.0949 37.6357 99.351C37.6357 99.6071 37.8434 99.8148 38.0995 99.8148Z" fill="white"/>
<path d="M37.8014 99.848C37.8014 100.13 37.5695 100.361 37.2879 100.361C37.0063 100.361 36.7744 100.13 36.7744 99.848C36.7744 99.5664 37.0063 99.3345 37.2879 99.3345C37.5695 99.3345 37.8014 99.5664 37.8014 99.848Z" fill="white"/>
<path d="M30.5628 104.337C30.5628 105.132 29.9168 105.778 29.1218 105.778C28.3267 105.778 27.6807 105.132 27.6807 104.337C27.6807 103.542 28.3267 102.896 29.1218 102.896C29.9168 102.896 30.5628 103.542 30.5628 104.337Z" fill="white"/>
<path d="M22.4135 102.945C22.4135 103.492 21.9662 103.939 21.4196 103.939C20.873 103.939 20.4258 103.492 20.4258 102.945C20.4258 102.399 20.873 101.951 21.4196 101.951C21.9662 101.951 22.4135 102.399 22.4135 102.945Z" fill="white"/>
<path d="M19.614 94.1996C19.614 94.3983 19.4484 94.5805 19.233 94.5805C19.0177 94.5805 18.8521 94.4149 18.8521 94.1996C18.8521 93.9842 19.0177 93.8186 19.233 93.8186C19.4484 93.8186 19.614 93.9842 19.614 94.1996Z" fill="white"/>
<path d="M13.9988 91.0524C14.6941 91.0524 15.2577 90.4888 15.2577 89.7935C15.2577 89.0983 14.6941 88.5347 13.9988 88.5347C13.3036 88.5347 12.74 89.0983 12.74 89.7935C12.74 90.4888 13.3036 91.0524 13.9988 91.0524Z" fill="white"/>
<path d="M20.1772 83.4494C20.1772 83.7476 19.9288 83.996 19.6306 83.996C19.3324 83.996 19.084 83.7476 19.084 83.4494C19.084 83.1513 19.3324 82.9028 19.6306 82.9028C19.9453 82.9194 20.1772 83.1513 20.1772 83.4494Z" fill="white"/>
<path d="M15.705 75.5816C15.705 76.327 15.0922 76.9399 14.3468 76.9399C13.6014 76.9399 12.9885 76.327 12.9885 75.5816C12.9885 74.8362 13.6014 74.2234 14.3468 74.2234C15.0922 74.2234 15.705 74.8362 15.705 75.5816Z" fill="white"/>
<path d="M19.5147 70.3308C19.5147 70.9271 19.0343 71.4075 18.438 71.4075C17.8417 71.4075 17.3613 70.9271 17.3613 70.3308C17.3613 69.7345 17.8417 69.2542 18.438 69.2542C19.0343 69.2542 19.5147 69.7345 19.5147 70.3308Z" fill="white"/>
<path d="M20.0447 77.4203C20.0447 78.2153 19.3987 78.8779 18.587 78.8779C17.792 78.8779 17.1294 78.2319 17.1294 77.4203C17.1294 76.6252 17.7754 75.9626 18.587 75.9626C19.3821 75.9626 20.0447 76.6086 20.0447 77.4203Z" fill="white"/>
<path d="M21.138 72.5834C21.138 73.0803 20.7405 73.4779 20.2436 73.4779C19.7467 73.4779 19.3491 73.0803 19.3491 72.5834C19.3491 72.0865 19.7467 71.689 20.2436 71.689C20.7405 71.7055 21.138 72.1031 21.138 72.5834Z" fill="white"/>
<path d="M14.0983 81.6445C14.0983 82.3567 13.5186 82.9531 12.7898 82.9531C12.0775 82.9531 11.4812 82.3733 11.4812 81.6445C11.4812 80.9157 12.061 80.3359 12.7898 80.3359C13.5186 80.3525 14.0983 80.9322 14.0983 81.6445Z" fill="white"/>
<path d="M11.4479 74.9522C11.4479 75.7639 10.7853 76.4264 9.97371 76.4264C9.16207 76.4264 8.49951 75.7639 8.49951 74.9522C8.49951 74.1406 9.16207 73.478 9.97371 73.478C10.7853 73.478 11.4479 74.1406 11.4479 74.9522Z" fill="white"/>
<path d="M4.98801 69.2377C4.98801 69.453 4.82237 69.6186 4.60704 69.6186C4.39171 69.6186 4.22607 69.453 4.22607 69.2377C4.22607 69.0223 4.39171 68.8567 4.60704 68.8567C4.82237 68.8567 4.98801 69.0223 4.98801 69.2377Z" fill="white"/>
<path d="M3.26538 62.1318C3.62216 62.1318 3.91138 61.8426 3.91138 61.4858C3.91138 61.1291 3.62216 60.8398 3.26538 60.8398C2.90861 60.8398 2.61938 61.1291 2.61938 61.4858C2.61938 61.8426 2.90861 62.1318 3.26538 62.1318Z" fill="white"/>
<path d="M8.26756 53.6012C8.26756 54.2803 7.72095 54.8435 7.02526 54.8435C6.34614 54.8435 5.78296 54.2969 5.78296 53.6012C5.78296 52.9055 6.32957 52.3589 7.02526 52.3589C7.70439 52.3589 8.26756 52.9221 8.26756 53.6012Z" fill="white"/>
<path d="M12.3591 48.4994C12.5512 48.4994 12.7069 48.3437 12.7069 48.1515C12.7069 47.9594 12.5512 47.8037 12.3591 47.8037C12.167 47.8037 12.0112 47.9594 12.0112 48.1515C12.0112 48.3437 12.167 48.4994 12.3591 48.4994Z" fill="white"/>
<path d="M18.9351 43.9939C18.9351 44.4743 18.5541 44.8552 18.0737 44.8552C17.5934 44.8552 17.2124 44.4743 17.2124 43.9939C17.2124 43.5135 17.5934 43.1326 18.0737 43.1326C18.5375 43.1326 18.9351 43.5135 18.9351 43.9939Z" fill="white"/>
<path d="M16.5332 36.0433C16.5332 36.6728 16.0198 37.1697 15.4069 37.1697C14.794 37.1697 14.2805 36.6562 14.2805 36.0433C14.2805 35.4139 14.794 34.917 15.4069 34.917C16.0198 34.917 16.5332 35.4139 16.5332 36.0433Z" fill="white"/>
<path d="M15.6221 34.9997C15.6221 35.2316 15.4233 35.4304 15.1914 35.4304C14.9595 35.4304 14.7607 35.2316 14.7607 34.9997C14.7607 34.7679 14.9595 34.5691 15.1914 34.5691C15.4399 34.5857 15.6221 34.7679 15.6221 34.9997Z" fill="white"/>
<path d="M23.5232 40.5815C23.5232 41.2441 22.9931 41.7741 22.3306 41.7741C21.668 41.7741 21.1379 41.2441 21.1379 40.5815C21.1379 39.919 21.668 39.3889 22.3306 39.3889C22.9765 39.3889 23.5232 39.919 23.5232 40.5815Z" fill="white"/>
<path d="M14.7609 47.5884C15.264 47.5884 15.6719 47.1805 15.6719 46.6774C15.6719 46.1742 15.264 45.7664 14.7609 45.7664C14.2577 45.7664 13.8499 46.1742 13.8499 46.6774C13.8499 47.1805 14.2577 47.5884 14.7609 47.5884Z" fill="white"/>
<path d="M12.7401 50.3877C13.3713 50.3877 13.883 49.8759 13.883 49.2447C13.883 48.6135 13.3713 48.1018 12.7401 48.1018C12.1089 48.1018 11.5972 48.6135 11.5972 49.2447C11.5972 49.8759 12.1089 50.3877 12.7401 50.3877Z" fill="white"/>
<path d="M18.8355 41.1449C19.0642 41.1449 19.2496 40.9595 19.2496 40.7308C19.2496 40.502 19.0642 40.3167 18.8355 40.3167C18.6068 40.3167 18.4214 40.502 18.4214 40.7308C18.4214 40.9595 18.6068 41.1449 18.8355 41.1449Z" fill="white"/>
<path d="M11.1996 32.9955C11.1996 33.5089 10.7855 33.923 10.2721 33.923C9.75858 33.923 9.34448 33.5089 9.34448 32.9955C9.34448 32.482 9.75858 32.0679 10.2721 32.0679C10.7855 32.0844 11.1996 32.4985 11.1996 32.9955Z" fill="white"/>
<path d="M18.4381 29.0867C18.7034 29.0867 18.9185 28.8716 18.9185 28.6063C18.9185 28.341 18.7034 28.126 18.4381 28.126C18.1728 28.126 17.9578 28.341 17.9578 28.6063C17.9578 28.8716 18.1728 29.0867 18.4381 29.0867Z" fill="white"/>
<path d="M21.5355 20.6056C21.5355 21.3345 20.9392 21.9307 20.2104 21.9307C19.4816 21.9307 18.8853 21.3345 18.8853 20.6056C18.8853 19.8768 19.4816 19.2805 20.2104 19.2805C20.9392 19.2805 21.5355 19.8768 21.5355 20.6056Z" fill="white"/>
<path d="M28.7076 22.6928C29.1559 22.6928 29.5193 22.3295 29.5193 21.8812C29.5193 21.4329 29.1559 21.0696 28.7076 21.0696C28.2594 21.0696 27.896 21.4329 27.896 21.8812C27.896 22.3295 28.2594 22.6928 28.7076 22.6928Z" fill="white"/>
<path d="M32.1033 23.9517C32.1033 24.2001 31.9045 24.3823 31.6726 24.3823C31.4241 24.3823 31.2419 24.1835 31.2419 23.9517C31.2419 23.7032 31.4407 23.521 31.6726 23.521C31.9045 23.521 32.1033 23.7198 32.1033 23.9517Z" fill="white"/>
<path d="M27.7471 31.5876C27.7471 31.8361 27.5483 32.0183 27.3164 32.0183C27.0679 32.0183 26.8857 31.8195 26.8857 31.5876C26.8857 31.3392 27.0845 31.157 27.3164 31.157C27.5483 31.1404 27.7471 31.3392 27.7471 31.5876Z" fill="white"/>
<path d="M144.606 155.371C145.411 155.371 146.064 154.718 146.064 153.913C146.064 153.108 145.411 152.456 144.606 152.456C143.801 152.456 143.149 153.108 143.149 153.913C143.149 154.718 143.801 155.371 144.606 155.371Z" fill="white"/>
<path d="M154.76 158.468C155.446 158.468 156.002 157.912 156.002 157.226C156.002 156.54 155.446 155.983 154.76 155.983C154.074 155.983 153.518 156.54 153.518 157.226C153.518 157.912 154.074 158.468 154.76 158.468Z" fill="white"/>
<path d="M149.725 158.634C149.725 159.313 149.178 159.876 148.482 159.876C147.803 159.876 147.24 159.33 147.24 158.634C147.24 157.955 147.787 157.392 148.482 157.392C149.178 157.392 149.725 157.955 149.725 158.634Z" fill="white"/>
<path d="M147.571 166.667C148.331 166.667 148.946 166.052 148.946 165.293C148.946 164.533 148.331 163.918 147.571 163.918C146.812 163.918 146.197 164.533 146.197 165.293C146.197 166.052 146.812 166.667 147.571 166.667Z" fill="white"/>
<path d="M147.141 171.802C147.36 171.802 147.538 171.624 147.538 171.405C147.538 171.185 147.36 171.007 147.141 171.007C146.921 171.007 146.743 171.185 146.743 171.405C146.743 171.624 146.921 171.802 147.141 171.802Z" fill="white"/>
<path d="M149.426 178.577C149.426 179.388 148.764 180.051 147.952 180.051C147.141 180.051 146.478 179.388 146.478 178.577C146.478 177.765 147.141 177.103 147.952 177.103C148.764 177.103 149.426 177.765 149.426 178.577Z" fill="white"/>
<path d="M148.002 181.095C148.578 181.095 149.046 180.628 149.046 180.051C149.046 179.475 148.578 179.008 148.002 179.008C147.426 179.008 146.958 179.475 146.958 180.051C146.958 180.628 147.426 181.095 148.002 181.095Z" fill="white"/>
<path d="M147.041 172.051C147.041 172.614 146.577 173.078 146.014 173.078C145.451 173.078 144.987 172.614 144.987 172.051C144.987 171.487 145.451 171.024 146.014 171.024C146.577 171.024 147.041 171.471 147.041 172.051Z" fill="white"/>
<path d="M141.774 168.274C141.774 168.556 141.559 168.771 141.277 168.771C140.995 168.771 140.78 168.556 140.78 168.274C140.78 167.993 140.995 167.777 141.277 167.777C141.542 167.777 141.774 167.993 141.774 168.274Z" fill="white"/>
<path d="M145.733 175.066C145.733 175.828 145.103 176.457 144.341 176.457C143.579 176.457 142.95 175.828 142.95 175.066C142.95 174.304 143.579 173.674 144.341 173.674C145.12 173.674 145.733 174.287 145.733 175.066Z" fill="white"/>
<path d="M140.117 182.635C140.712 182.635 141.194 182.153 141.194 181.559C141.194 180.964 140.712 180.482 140.117 180.482C139.523 180.482 139.041 180.964 139.041 181.559C139.041 182.153 139.523 182.635 140.117 182.635Z" fill="white"/>
<path d="M138.279 184.705C138.279 185.202 137.881 185.616 137.368 185.616C136.871 185.616 136.457 185.219 136.457 184.705C136.457 184.209 136.854 183.794 137.368 183.794C137.881 183.794 138.279 184.209 138.279 184.705Z" fill="white"/>
<path d="M138.627 193.485C138.627 194.164 138.08 194.71 137.401 194.71C136.722 194.71 136.175 194.164 136.175 193.485C136.175 192.806 136.722 192.259 137.401 192.259C138.08 192.259 138.627 192.806 138.627 193.485Z" fill="white"/>
<path d="M135.844 193.137C135.844 193.733 135.364 194.213 134.767 194.213C134.171 194.213 133.691 193.733 133.691 193.137C133.691 192.54 134.171 192.06 134.767 192.06C135.364 192.06 135.844 192.54 135.844 193.137Z" fill="white"/>
<path d="M135.132 207.597C135.132 208.326 134.552 208.906 133.823 208.906C133.094 208.906 132.515 208.326 132.515 207.597C132.515 206.868 133.094 206.289 133.823 206.289C134.552 206.289 135.132 206.868 135.132 207.597Z" fill="white"/>
<path d="M124.332 204.268C124.753 204.268 125.094 203.926 125.094 203.506C125.094 203.085 124.753 202.744 124.332 202.744C123.911 202.744 123.57 203.085 123.57 203.506C123.57 203.926 123.911 204.268 124.332 204.268Z" fill="white"/>
<path d="M128.059 196.151C128.717 196.151 129.251 195.617 129.251 194.959C129.251 194.3 128.717 193.766 128.059 193.766C127.4 193.766 126.866 194.3 126.866 194.959C126.866 195.617 127.4 196.151 128.059 196.151Z" fill="white"/>
<path d="M132.034 189.095C132.29 189.095 132.498 188.888 132.498 188.632C132.498 188.375 132.29 188.168 132.034 188.168C131.778 188.168 131.571 188.375 131.571 188.632C131.571 188.888 131.778 189.095 132.034 189.095Z" fill="white"/>
<path d="M127.231 194.81C127.569 194.81 127.844 194.536 127.844 194.197C127.844 193.859 127.569 193.584 127.231 193.584C126.892 193.584 126.618 193.859 126.618 194.197C126.618 194.536 126.892 194.81 127.231 194.81Z" fill="white"/>
<path d="M129.666 204.251C130.196 204.251 130.626 203.821 130.626 203.29C130.626 202.76 130.196 202.33 129.666 202.33C129.135 202.33 128.705 202.76 128.705 203.29C128.705 203.821 129.135 204.251 129.666 204.251Z" fill="white"/>
<path d="M119.032 205.411C119.032 206.156 118.435 206.753 117.69 206.753C116.944 206.753 116.348 206.156 116.348 205.411C116.348 204.665 116.944 204.069 117.69 204.069C118.419 204.069 119.032 204.665 119.032 205.411Z" fill="white"/>
<path d="M119.346 206.868C119.346 207.282 119.015 207.614 118.601 207.614C118.187 207.614 117.855 207.282 117.855 206.868C117.855 206.454 118.187 206.123 118.601 206.123C119.015 206.123 119.346 206.454 119.346 206.868Z" fill="white"/>
<path d="M120.373 202.098C120.373 202.678 119.909 203.142 119.33 203.142C118.75 203.142 118.286 202.678 118.286 202.098C118.286 201.518 118.75 201.055 119.33 201.055C119.909 201.055 120.373 201.518 120.373 202.098Z" fill="white"/>
<path d="M106.741 200.475C106.741 201.038 106.277 201.502 105.714 201.502C105.151 201.502 104.687 201.038 104.687 200.475C104.687 199.912 105.151 199.448 105.714 199.448C106.277 199.465 106.741 199.912 106.741 200.475Z" fill="white"/>
<path d="M109.11 192.176C109.732 192.176 110.236 191.672 110.236 191.05C110.236 190.428 109.732 189.924 109.11 189.924C108.488 189.924 107.983 190.428 107.983 191.05C107.983 191.672 108.488 192.176 109.11 192.176Z" fill="white"/>
</svg>
