<svg width="1323" height="741" viewBox="0 0 1323 741" fill="none" xmlns="http://www.w3.org/2000/svg">
<rect x="33" y="200.001" width="1280" height="541" fill="#F7F7F7"/>
<rect width="115.29" height="274.876" rx="20" transform="matrix(0.992902 0.118934 -0.118898 0.992906 32.6823 155.001)" fill="#F7F7F7"/>
<rect width="115.29" height="230.878" rx="20" transform="matrix(0.91981 0.392364 -0.392331 0.919824 187.58 88)" fill="#F7F7F7"/>
<rect width="115.29" height="274.876" rx="20" transform="matrix(0.89531 -0.445444 0.445476 0.895294 227 113.355)" fill="#F7F7F7"/>
<rect width="115.29" height="274.876" rx="20" transform="matrix(0.998777 -0.0494449 0.0494814 0.998775 376 89.7012)" fill="#F7F7F7"/>
<rect width="115.29" height="217.094" rx="20" transform="matrix(0.960195 -0.279332 0.279367 0.960184 526 76.2051)" fill="#F7F7F7"/>
<rect width="132.411" height="274.876" rx="20" transform="matrix(0.803247 -0.595646 0.595675 0.803225 637 133.871)" fill="#F7F7F7"/>
<rect width="115.29" height="274.876" rx="20" transform="matrix(0.94539 0.325941 -0.325906 0.945402 821.584 13.001)" fill="#F7F7F7"/>
<rect width="99.3857" height="274.876" rx="20" transform="matrix(0.919961 -0.392011 0.392045 0.919946 851 126.961)" fill="#F7F7F7"/>
<rect width="115.29" height="274.876" rx="20" transform="matrix(0.992902 0.118934 -0.118898 0.992906 974.536 21.001)" fill="#F7F7F7"/>
<rect width="89.4629" height="213.298" rx="20" transform="matrix(0.992902 0.118934 -0.118898 0.992906 1089.2 0.000976562)" fill="#F7F7F7"/>
<rect width="89.4629" height="213.298" rx="20" transform="matrix(0.992902 0.118934 -0.118898 0.992906 1162.18 43.001)" fill="#F7F7F7"/>
<rect width="89.4629" height="213.298" rx="20" transform="matrix(0.992902 0.118934 -0.118898 0.992906 1233.36 154.001)" fill="#F7F7F7"/>
<rect width="81.4735" height="194.25" rx="20" transform="matrix(0.992902 0.118934 -0.118898 0.992906 497.096 39.001)" fill="#F7F7F7"/>
</svg>
