<svg width="600" height="437" viewBox="0 0 600 437" fill="none" xmlns="http://www.w3.org/2000/svg">
<path d="M89.5001 226C97.8153 240.032 105.526 257.034 114.71 270.528C132.779 297.08 157.645 318.961 186.766 332.828C260.793 368.079 340.432 370.735 419.5 382.306C446.986 386.328 478.789 374.784 505.651 382.306C520.501 386.463 533.551 394.119 548.021 399.17C553.887 401.217 559.017 403.17 564.188 406.696C569.177 410.098 576.915 413.322 580.773 417.846C583.241 420.739 587.383 422.03 589.205 425.372C591.099 428.844 594.715 436.104 599.31 436.104M239.869 48.5642C198.358 19.6869 135.777 29.8162 95.7293 56.7574C67.8218 75.5316 51.2107 115.735 51.4252 148.552C51.84 212.005 115.039 256.795 173.868 258.553C210.705 259.654 247.94 251.903 273.78 223.96C290.096 206.315 302.702 186.345 305.718 162.905M305.718 162.905C306.324 158.189 306.543 153.331 306.325 148.324C304.646 109.7 269.685 68.9576 230.083 67.7576C210.824 67.174 190.525 66.9382 171.896 72.3852C157.709 76.5334 140.704 79.6146 128.578 88.4682C97.7302 110.992 83.5945 142.663 89.2809 180.718C93.7666 210.737 115.944 230.105 144.433 237.767C162.787 242.703 182.385 242.874 201.255 242.319C216.187 241.879 232.058 240.494 244.724 231.698C250.444 227.726 255.25 222.552 259.346 216.638M305.718 162.905C299.633 176.439 291.465 189.16 282.959 199.835C276.551 207.878 268.385 213.324 259.346 216.638M305.718 162.905C311.693 149.613 315.659 135.537 315.96 121.848C316.739 86.4007 292.152 62.4915 262.78 47.8056C220.492 26.6619 173.401 12.8107 126.985 4.56362C105.034 0.663384 78.0305 -0.523899 56.2046 5.09466C42.5007 8.6224 27.2333 11.5767 14.5558 17.9155C9.84307 20.2719 6.15701 23.1085 0.900391 23.9846M259.346 216.638C271.154 199.585 277.054 176.371 281.897 158.035C287.66 136.221 283.231 116.688 269.456 98.9373C252.722 77.3728 220.416 81.6516 197.234 89.5303C181.063 95.0265 138.82 104.444 138.82 128.069C138.82 147.033 149.832 171.423 160.137 186.635C172.801 205.329 193.117 213.612 214.379 218.422C229.267 221.789 245.352 221.769 259.346 216.638Z" stroke="#E31F26" stroke-linecap="round"/>
</svg>
