<svg width="1352" height="332" viewBox="0 0 1352 332" fill="none" xmlns="http://www.w3.org/2000/svg">
<path d="M1145.33 121.979C1144.22 121.238 1142.99 120.774 1141.7 120.535M1145.33 121.979C1151.5 124.551 1157.56 127.688 1163.42 131.073M1145.33 121.979C1144.12 121.475 1142.91 120.993 1141.7 120.535M1141.7 120.535C1138.34 119.917 1134.51 120.807 1130.9 122.293M1141.7 120.535C1138.77 119.433 1135.83 118.471 1132.88 117.681C1127.6 116.266 1121.75 116.598 1115.77 117.974M1130.9 122.293C1129.99 122.667 1129.1 123.078 1128.22 123.513M1130.9 122.293C1133.18 121.508 1135.47 121.42 1137.7 122.485C1139.53 123.361 1141.34 124.276 1143.13 125.226M1130.9 122.293C1130 122.601 1129.11 123.017 1128.22 123.513M1128.22 123.513C1125.18 125.032 1122.44 126.835 1120.47 128.299C1106.91 138.382 1094.2 152.656 1085.45 167.044C1080.35 175.425 1077.42 184.703 1075.58 194.323M1128.22 123.513C1122.83 126.529 1117.7 132.494 1113.89 135.126C1094.71 148.363 1084.4 169.802 1076.88 191.325M1075.58 194.323C1075.46 194.956 1075.34 195.591 1075.23 196.228M1075.58 194.323C1076.01 193.323 1076.45 192.323 1076.88 191.325M1075.58 194.323C1074.57 196.675 1073.56 199.028 1072.53 201.365C1067.43 212.961 1066.17 224.161 1066.02 236.605M1075.23 196.228C1072.85 209.737 1072.47 223.84 1071.14 237.013C1070.05 247.762 1068.99 258.433 1069.68 269.248C1070.42 280.778 1073.42 288.781 1079.36 296.167M1075.23 196.228C1075.44 195.556 1075.66 194.887 1075.89 194.223C1076.21 193.257 1076.54 192.291 1076.88 191.325M1075.23 196.228C1072.22 205.822 1070.53 216.123 1068.29 225.889C1067.48 229.408 1066.7 232.989 1066.02 236.605M1079.36 296.167C1082.17 299.66 1085.63 303.014 1089.82 306.539C1092.07 308.432 1094.42 310.19 1096.86 311.815M1079.36 296.167C1074.1 291.803 1069.84 286.388 1067.11 279.664M1079.36 296.167C1093.25 307.681 1114.19 311.874 1132.88 313.491C1153.01 315.232 1173.15 315.474 1192.88 311.029M1096.86 311.815C1108.48 319.568 1122.1 324.294 1136.3 326.21M1096.86 311.815C1085.4 306.88 1075.35 299.754 1068.17 289.276M1096.86 311.815C1116.54 320.292 1140.36 322.304 1160.88 323.731C1164.47 323.98 1168.28 324.279 1172.23 324.532M1136.3 326.21C1146.85 327.634 1157.72 327.507 1168.32 325.917M1136.3 326.21C1134.91 326.191 1133.52 326.165 1132.12 326.133C1113.34 325.689 1091.14 323.251 1073.73 313.917M1136.3 326.21C1147.72 326.364 1159.09 326.039 1170.42 325.221M1168.32 325.917C1170.15 325.643 1171.98 325.325 1173.79 324.963M1168.32 325.917C1168.08 325.991 1167.83 326.063 1167.59 326.133C1146.64 332.106 1123.91 330.971 1102.36 330.81C1090.87 330.723 1080.66 331.333 1075.76 319.37C1075.03 317.585 1074.35 315.766 1073.73 313.917M1168.32 325.917C1169.02 325.703 1169.72 325.471 1170.42 325.221M1173.79 324.963C1174.21 324.879 1174.63 324.792 1175.06 324.703M1173.79 324.963C1172.67 325.054 1171.54 325.14 1170.42 325.221M1173.79 324.963C1174.58 324.899 1175.37 324.833 1176.16 324.764M1175.06 324.703C1190.78 321.385 1205.63 314.807 1217.62 305.275C1220.06 303.342 1222.3 301.469 1224.37 299.549M1175.06 324.703C1174.11 324.649 1173.16 324.592 1172.23 324.532M1175.06 324.703C1175.42 324.724 1175.79 324.744 1176.16 324.764M1224.37 299.549C1229.98 294.349 1234.26 288.799 1237.26 280.751C1241.2 270.162 1245.05 258.626 1245.93 247.315C1245.93 247.286 1245.94 247.257 1245.94 247.229M1224.37 299.549C1215.85 304.492 1205.97 307.674 1197.29 309.952C1195.82 310.338 1194.35 310.696 1192.88 311.029M1224.37 299.549C1232.73 294.7 1239.78 288.157 1243.08 279.108C1244.39 275.539 1245.22 271.784 1245.74 267.93M1245.94 247.229C1246.29 242.641 1246.18 237.913 1245.62 233.347C1245.45 232.055 1245.24 230.804 1244.96 229.59M1245.94 247.229C1245.98 249.549 1246 251.855 1246 254.142C1246 258.569 1245.96 263.219 1245.74 267.93M1245.94 247.229C1245.84 241.392 1245.57 235.472 1244.96 229.59M1244.96 229.59C1243.22 221.838 1239.31 215.571 1234.46 209.577M1244.96 229.59C1243.71 217.379 1241.02 205.332 1235.36 194.539C1232.52 189.126 1229.06 184.057 1225.15 179.288M1234.46 209.577C1231.4 205.779 1227.96 202.091 1224.46 198.205C1200.18 171.189 1175.44 142.403 1143.13 125.226M1234.46 209.577C1235.2 222.185 1232.97 235.044 1229.66 247.126C1225.18 263.42 1219.02 281.051 1208.38 294.403C1203.96 299.947 1198.72 305.803 1192.88 311.029M1234.46 209.577C1234.36 207.781 1234.19 205.991 1233.96 204.209C1232.85 195.638 1229.4 187.226 1225.15 179.288M1143.13 125.226C1145.55 125.588 1147.94 126.157 1150.24 126.783C1154.63 127.978 1159.04 129.414 1163.42 131.073M1143.13 125.226C1139.67 124.708 1136.15 124.616 1132.76 125.392C1115.88 129.256 1103.63 150.972 1093.11 163.189C1085.95 171.506 1081.25 181.338 1076.88 191.325M1066.02 236.605C1064.16 246.502 1063.02 256.667 1063.98 266.593C1064.45 271.424 1065.52 275.764 1067.11 279.664M1066.02 236.605C1066.01 237.076 1066.01 237.549 1066.01 238.024C1065.93 251.164 1065.87 265.523 1067.11 279.664M1067.11 279.664C1067.39 282.885 1067.74 286.094 1068.17 289.276M1192.88 311.029C1186.59 316.65 1179.62 321.542 1172.23 324.532M1245.74 267.93C1247.21 256.933 1246.12 245.123 1246.12 234.485C1246.12 216.721 1243.44 201.371 1233.9 186.132C1229.04 178.377 1223.05 171.113 1216.26 164.468M1245.74 267.93C1244.82 287.113 1240.76 307.308 1223.13 317.593M1216.26 164.468C1201.39 149.927 1182.65 138.349 1163.42 131.073M1216.26 164.468C1219.28 169.148 1222.38 174.117 1225.15 179.288M1216.26 164.468C1216.04 164.124 1215.82 163.782 1215.6 163.442C1204.65 146.542 1187.39 132.831 1170.63 121.979C1159.89 115.027 1146.1 108.618 1133.01 108.01C1127.19 107.74 1121.01 112.735 1115.77 117.974M1163.42 131.073C1169.69 134.692 1175.72 138.595 1181.4 142.394C1196.75 152.673 1213.08 164.546 1225.15 179.288M1068.17 289.276C1069.33 297.802 1071.08 306.124 1073.73 313.917M1068.17 289.276C1066.38 286.651 1064.76 283.815 1063.35 280.751C1048.27 248.052 1042.74 203.078 1067.15 173.428C1080.09 157.705 1093.09 141.256 1107.43 126.783C1109.64 124.544 1112.52 121.212 1115.77 117.974M1073.73 313.917C1069.7 311.761 1065.94 309.238 1062.52 306.286C1050.35 295.759 1045.65 279.202 1041.81 264.191C1030.06 218.179 1033.28 161.344 1078.42 135.126C1088.13 129.485 1102.28 121.077 1115.77 117.974M1170.42 325.221C1171.03 325.004 1171.63 324.774 1172.23 324.532M1176.16 324.764C1192.24 325.617 1209.9 325.252 1223.01 317.663C1223.05 317.64 1223.09 317.617 1223.13 317.593M1176.16 324.764C1188.63 323.679 1201.05 321.992 1213.44 319.686C1216.7 319.079 1219.92 318.358 1223.13 317.593M1223.13 317.593C1234.29 314.928 1245.25 311.726 1256.83 310.963C1288.1 308.902 1319.66 308.056 1351 308.056M1076.86 139.579C1057.73 106.868 1055.73 102.376 1025.68 78.7418C970.793 35.5622 909.268 14.4317 840.21 8.5124C734.911 -0.513253 629.634 1.11435 524.073 1.11435C417.452 1.11435 311.671 10.8692 205.332 16.0147C160.684 18.175 116.803 19.87 72.063 19.87H71.9935C53.1945 19.87 35.0728 19.87 16.8381 14.6601C11.6637 13.1817 6.44401 10.4922 1 10.4922" stroke="#E31F26" stroke-linecap="round"/>
</svg>
