<svg width="1115" height="848" viewBox="0 0 1115 848" fill="none" xmlns="http://www.w3.org/2000/svg">
<path fill-rule="evenodd" clip-rule="evenodd" d="M920.298 -60.9718C917.924 -65.9585 920.042 -71.9253 925.029 -74.2991L1009.9 -114.702C1014.89 -117.076 1020.86 -114.957 1023.23 -109.971L1113.92 80.5446C1116.3 85.5313 1114.18 91.4981 1109.19 93.8719L1062.72 115.996L1083.92 160.545C1086.3 165.531 1084.18 171.498 1079.19 173.872L1046.57 189.398L1070.92 240.545C1073.3 245.531 1071.18 251.498 1066.19 253.872L1042.54 265.129L1068.92 320.545C1071.3 325.531 1069.18 331.498 1064.19 333.872L1030.84 349.747C1025.86 352.121 1019.89 350.003 1017.51 345.016L1015.36 340.493L1011.15 342.5L1036.4 395.545C1038.77 400.531 1036.65 406.498 1031.67 408.872L1030.02 409.657L1040.47 431.609C1042.84 436.596 1040.72 442.563 1035.74 444.936L950.861 485.339C945.875 487.713 939.908 485.595 937.534 480.608L928.477 461.581C923.233 487.907 920.986 508.388 923.008 520C929.41 556.758 929.537 624.743 928.001 684.517L965.789 714.49C970.116 717.922 970.842 724.212 967.409 728.539L955.36 743.729L977.294 788.217C979.737 793.17 977.701 799.166 972.747 801.608L915.121 830.021C910.167 832.463 904.172 830.427 901.729 825.474L897.433 816.76L876.222 843.502C872.789 847.829 866.5 848.554 862.173 845.122L822.003 813.26L796.317 825.488C791.33 827.862 785.363 825.743 782.989 820.757L774.799 803.552L720.317 829.488C715.33 831.862 709.363 829.743 706.989 824.757L699.393 808.8L700.185 816.968C700.718 822.466 696.694 827.354 691.197 827.887L627.247 834.088C621.75 834.62 616.861 830.596 616.328 825.099L615.848 820.146L577.317 838.488C572.33 840.862 566.363 838.743 563.989 833.757L559.735 824.819L516.317 845.488C511.33 847.862 505.363 845.743 502.989 840.757L495.242 824.482L437.352 837.749C431.969 838.983 426.605 835.619 425.371 830.236L420.58 809.33L408.951 818.837C404.675 822.332 398.375 821.7 394.879 817.424L380.635 800H290.182L252.708 839.952C248.93 843.98 242.601 844.183 238.573 840.405L195.496 800H192.785L139.748 809.223C134.307 810.169 129.129 806.525 128.183 801.084L127.994 800H125.553L98.2606 827.266C94.3535 831.169 88.0219 831.166 84.1185 827.259L56.8858 800H40.268L13.1127 812.927C8.12604 815.301 2.15919 813.182 -0.214613 808.196L-4.11604 800H-29V0H907.005L941.505 -16.423L920.298 -60.9718Z" fill="#F7F7F7"/>
</svg>
