<svg width="43" height="50" viewBox="0 0 43 50" fill="none" xmlns="http://www.w3.org/2000/svg">
<path d="M3.18457 27.5796L8.75557 44.0144C9.35099 45.7709 11.0758 46.8878 12.9221 46.7124L17.7509 46.2536M3.18457 27.5796L31.2998 17.2828M3.18457 27.5796L8.30073 5.88343C8.97965 3.00434 12.4406 1.83266 14.7289 3.70726L31.2998 17.2828M31.2998 17.2828L40.0154 38.9823C41.0115 41.4621 39.3423 44.2025 36.6819 44.4552L32.2102 44.88M17.7509 46.2536C17.7509 46.2536 13.4667 34.0218 20.375 32.1736C27.2833 30.3255 32.2102 44.88 32.2102 44.88M17.7509 46.2536L32.2102 44.88" stroke="#E31F26" stroke-width="5" stroke-linejoin="round"/>
</svg>
