<svg width="205" height="171" viewBox="0 0 205 171" fill="none" xmlns="http://www.w3.org/2000/svg">
<path d="M99.7937 118.942V151.557C99.7937 154.375 104.163 154.375 104.163 151.557V118.942C104.163 116.124 99.7937 116.124 99.7937 118.942Z" fill="black"/>
<path d="M119.833 108.927C118.653 108.985 117.648 109.89 117.648 111.117V119.876C117.648 121.015 118.653 122.125 119.833 122.066C121.013 122.008 122.017 121.103 122.017 119.876V111.117C122.017 109.978 121.013 108.868 119.833 108.927Z" fill="black"/>
<path d="M124.712 106.649V143.367C124.712 146.185 129.081 146.185 129.081 143.367V106.649C129.081 103.831 124.712 103.817 124.712 106.649Z" fill="black"/>
<path d="M142.887 113.394C141.707 113.453 140.702 114.358 140.702 115.584V121.555C140.702 122.694 141.707 123.804 142.887 123.745C144.067 123.687 145.071 122.782 145.071 121.555V115.584C145.071 114.445 144.067 113.35 142.887 113.394Z" fill="black"/>
<path d="M159.475 95.2763V117.832C159.475 120.65 163.844 120.65 163.844 117.832V95.2763C163.844 92.4586 159.475 92.4586 159.475 95.2763Z" fill="black"/>
<path d="M82.8855 122.11V143.542C82.8855 146.36 87.2545 146.36 87.2545 143.542V122.11C87.2545 119.292 82.8855 119.292 82.8855 122.11Z" fill="black"/>
<path d="M30.3843 99.3787C30.326 96.561 25.957 96.561 26.0152 99.3787C26.2919 114.095 26.5686 128.826 26.8454 143.542C26.9036 146.36 31.2726 146.36 31.2144 143.542C30.9377 128.826 30.661 114.095 30.3843 99.3787Z" fill="black"/>
<path d="M39.1951 131.614V168.887C39.1951 171.704 43.5641 171.704 43.5641 168.887V131.614C43.5641 128.797 39.1951 128.797 39.1951 131.614Z" fill="black"/>
<path d="M8.52438 107.146C8.14573 106.766 7.51951 106.474 6.98066 106.503C5.80102 106.562 4.79614 107.467 4.79614 108.693V114.095C4.79614 114.65 5.04372 115.248 5.43694 115.642C5.81559 116.022 6.44181 116.314 6.98066 116.285C8.1603 116.226 9.16518 115.321 9.16518 114.095V108.693C9.16518 108.138 8.9176 107.54 8.52438 107.146Z" fill="black"/>
<path d="M68.759 150.944C68.3804 150.564 67.7541 150.272 67.2153 150.302C66.0356 150.36 65.0308 151.265 65.0308 152.492V157.149C65.0308 157.704 65.2783 158.302 65.6716 158.696C66.0502 159.076 66.6764 159.368 67.2153 159.339C68.3949 159.28 69.3998 158.375 69.3998 157.149V152.492C69.3998 151.937 69.1522 151.338 68.759 150.944Z" fill="black"/>
<path d="M19.6947 36.163L3.55835 83.2463L52.7392 155.514C101.541 111.482 179.499 99.5685 179.499 99.5685L190.422 68.895L19.6947 36.163Z" fill="black"/>
<path d="M19.6946 36.1629C78.0212 11.4168 164.251 21.6073 164.251 21.6073L190.422 68.9096C130.901 74.9975 67.5938 110.854 67.5938 110.854L19.6946 36.1629Z" fill="#E31F26"/>
<path d="M129.357 58.2666C127.289 49.8719 117.998 47.171 110.236 45.5796C108.561 41.1852 106.697 36.8637 104.643 32.6299C107.891 32.4693 111.197 33.535 113.818 35.5936C117.051 38.1339 121.275 33.3161 118.027 30.7611C113.352 27.0821 107.279 25.4761 101.556 26.5565C101.119 25.7389 100.682 24.9067 100.216 24.0892C98.2062 20.4685 92.9197 24.1038 94.9149 27.6953C95.1187 28.0748 95.3227 28.4544 95.5265 28.834C88.6235 32.9949 85.4632 42.7035 93.1964 47.8717C96.7936 50.2806 101.294 50.6018 105.532 51.2588C107.672 57.2738 109.435 63.4056 110.833 69.6395C106.813 68.7782 103.26 66.0043 100.653 62.7778C98.0606 59.5951 92.7449 63.172 95.3517 66.3839C99.6334 71.6689 105.532 75.7713 112.173 76.2677C112.406 77.567 112.624 78.881 112.828 80.1804C113.44 84.239 119.847 83.7718 119.221 79.6694C119.017 78.3116 118.784 76.9539 118.551 75.6107C125.906 73.4792 131.28 66.0481 129.357 58.2666ZM99.2548 43.6525C93.9246 42.0611 94.5799 37.1849 98.5266 34.5716C100.114 37.7981 101.585 41.083 102.939 44.3971C101.687 44.2219 100.449 44.0175 99.2548 43.6525ZM117.299 69.26C116.076 63.6538 114.561 58.1352 112.77 52.7042C116.76 53.6531 121.027 55.1715 122.644 58.4563C124.93 63.1282 121.595 67.654 117.299 69.26Z" fill="black"/>
<path d="M18.1363 28.907L2 75.9903L51.1808 148.258C99.9829 104.226 177.941 92.3125 177.941 92.3125L188.878 61.639" stroke="white" stroke-width="4" stroke-miterlimit="10" stroke-linecap="round" stroke-linejoin="round"/>
<path d="M18.1362 28.907C76.4629 4.16084 162.693 14.3513 162.693 14.3513L188.864 61.6536C129.343 67.7416 66.0354 103.598 66.0354 103.598L18.1362 28.907Z" stroke="white" stroke-width="4" stroke-miterlimit="10" stroke-linecap="round" stroke-linejoin="round"/>
<path d="M65.9043 103.7C61.1711 118.343 56.4526 132.972 51.7195 147.615" stroke="white" stroke-width="4" stroke-miterlimit="10" stroke-linecap="round" stroke-linejoin="round"/>
<path d="M84.604 103.379C101.454 93.8892 119.687 86.8815 138.547 82.6768" stroke="white" stroke-width="4" stroke-miterlimit="10" stroke-linecap="round" stroke-linejoin="round"/>
<path d="M22.0103 58.8505C32.7581 70.7491 41.2631 84.6624 46.9429 99.6706" stroke="white" stroke-width="4" stroke-miterlimit="10" stroke-linecap="round" stroke-linejoin="round"/>
<path d="M148.188 11.9861C148.188 12.2343 147.984 12.4241 147.751 12.4241C147.504 12.4241 147.314 12.2197 147.314 11.9861C147.314 11.738 147.518 11.5482 147.751 11.5482C147.984 11.5482 148.188 11.738 148.188 11.9861Z" fill="white"/>
<path d="M139.712 5.57703C139.873 5.57703 140.003 5.44629 140.003 5.28503C140.003 5.12377 139.873 4.99304 139.712 4.99304C139.551 4.99304 139.421 5.12377 139.421 5.28503C139.421 5.44629 139.551 5.57703 139.712 5.57703Z" fill="white"/>
<path d="M135.168 15.1543C135.168 15.3879 134.979 15.5923 134.731 15.5923C134.498 15.5923 134.294 15.4025 134.294 15.1543C134.294 14.9061 134.484 14.7163 134.731 14.7163C134.964 14.7163 135.168 14.9061 135.168 15.1543Z" fill="white"/>
<path d="M129.285 19.3589C129.51 19.3589 129.693 19.1759 129.693 18.9501C129.693 18.7243 129.51 18.5413 129.285 18.5413C129.06 18.5413 128.877 18.7243 128.877 18.9501C128.877 19.1759 129.06 19.3589 129.285 19.3589Z" fill="white"/>
<path d="M125.775 24.3081C125.775 24.6001 125.542 24.8337 125.251 24.8337C124.959 24.8337 124.726 24.6001 124.726 24.3081C124.726 24.0161 124.959 23.7825 125.251 23.7825C125.542 23.7971 125.775 24.0307 125.775 24.3081Z" fill="white"/>
<path d="M118.1 21.505C118.1 22.1766 117.561 22.7168 116.891 22.7168C116.221 22.7168 115.682 22.1766 115.682 21.505C115.682 20.8335 116.221 20.2933 116.891 20.2933C117.561 20.3079 118.1 20.8481 118.1 21.505Z" fill="white"/>
<path d="M112.944 16.6726C112.944 17.3588 112.391 17.9282 111.692 17.9282C111.007 17.9282 110.439 17.3734 110.439 16.6726C110.439 15.9864 110.993 15.4171 111.692 15.4171C112.376 15.4171 112.944 15.9864 112.944 16.6726Z" fill="white"/>
<path d="M109.799 8.99329C110.04 8.99329 110.236 8.79719 110.236 8.5553C110.236 8.31341 110.04 8.11731 109.799 8.11731C109.557 8.11731 109.362 8.31341 109.362 8.5553C109.362 8.79719 109.557 8.99329 109.799 8.99329Z" fill="white"/>
<path d="M107.774 3.91266C107.774 4.42364 107.367 4.84704 106.857 4.84704C106.347 4.84704 105.925 4.43824 105.925 3.91266C105.925 3.40167 106.333 2.9929 106.857 2.9929C107.367 2.9929 107.774 3.40167 107.774 3.91266Z" fill="white"/>
<path d="M104.221 6.33617C104.221 6.59897 104.017 6.80337 103.755 6.80337C103.493 6.80337 103.289 6.59897 103.289 6.33617C103.289 6.07338 103.493 5.869 103.755 5.869C104.002 5.869 104.221 6.07338 104.221 6.33617Z" fill="white"/>
<path d="M91.5943 5.577C91.5943 5.85439 91.3759 6.07338 91.0992 6.07338C90.8225 6.07338 90.604 5.85439 90.604 5.577C90.604 5.29961 90.8225 5.08061 91.0992 5.08061C91.3613 5.06601 91.5943 5.29961 91.5943 5.577Z" fill="white"/>
<path d="M89.2789 12.0299C89.874 12.0299 90.3565 11.5462 90.3565 10.9496C90.3565 10.3529 89.874 9.8692 89.2789 9.8692C88.6837 9.8692 88.2012 10.3529 88.2012 10.9496C88.2012 11.5462 88.6837 12.0299 89.2789 12.0299Z" fill="white"/>
<path d="M89.8032 15.9718C90.1329 15.9718 90.4003 15.7038 90.4003 15.3732C90.4003 15.0427 90.1329 14.7747 89.8032 14.7747C89.4734 14.7747 89.2061 15.0427 89.2061 15.3732C89.2061 15.7038 89.4734 15.9718 89.8032 15.9718Z" fill="white"/>
<path d="M85.8127 18.3954C85.8127 19.0086 85.3175 19.4903 84.7204 19.4903C84.1088 19.4903 83.6282 18.994 83.6282 18.3954C83.6282 17.7822 84.1233 17.3004 84.7204 17.3004C85.3175 17.2858 85.8127 17.7822 85.8127 18.3954Z" fill="white"/>
<path d="M84.6041 16.7748C84.6041 17.4464 84.0652 17.9866 83.3953 17.9866C82.7254 17.9866 82.1865 17.4464 82.1865 16.7748C82.1865 16.1032 82.7254 15.563 83.3953 15.563C84.0652 15.563 84.6041 16.1032 84.6041 16.7748Z" fill="white"/>
<path d="M78.8806 22.4978C78.8806 23.2132 78.2981 23.7971 77.5845 23.7971C76.8709 23.7971 76.2883 23.2132 76.2883 22.4978C76.2883 21.7824 76.8709 21.1984 77.5845 21.1984C78.2981 21.1984 78.8806 21.7824 78.8806 22.4978Z" fill="white"/>
<path d="M75.531 14.6141C75.531 15.2711 74.9921 15.8112 74.3368 15.8112C73.6814 15.8112 73.1426 15.2711 73.1426 14.6141C73.1426 13.9571 73.6814 13.4169 74.3368 13.4169C74.9921 13.4169 75.531 13.9571 75.531 14.6141Z" fill="white"/>
<path d="M73.5647 8.30716C73.5647 8.73054 73.2152 9.08093 72.7929 9.08093C72.3705 9.08093 72.021 8.73054 72.021 8.30716C72.021 7.88377 72.3705 7.53339 72.7929 7.53339C73.2152 7.53339 73.5647 7.86917 73.5647 8.30716Z" fill="white"/>
<path d="M70.7249 2.59871C71.4407 2.59871 72.021 2.01697 72.021 1.29935C72.021 0.581739 71.4407 0 70.7249 0C70.009 0 69.4287 0.581739 69.4287 1.29935C69.4287 2.01697 70.009 2.59871 70.7249 2.59871Z" fill="white"/>
<path d="M67.2443 2.8031C67.2443 3.41628 66.7492 3.89806 66.1521 3.89806C65.5404 3.89806 65.0598 3.40168 65.0598 2.8031C65.0598 2.18992 65.555 1.70814 66.1521 1.70814C66.7637 1.69354 67.2443 2.18992 67.2443 2.8031Z" fill="white"/>
<path d="M60.0208 10.1174C60.0208 10.3072 59.8606 10.4678 59.6713 10.4678C59.482 10.4678 59.3218 10.3072 59.3218 10.1174C59.3218 9.92761 59.482 9.76703 59.6713 9.76703C59.8752 9.76703 60.0208 9.92761 60.0208 10.1174Z" fill="white"/>
<path d="M64.9286 14.8769C64.9286 15.5339 64.4043 16.0594 63.749 16.0594C63.0936 16.0594 62.5693 15.5339 62.5693 14.8769C62.5693 14.2199 63.0936 13.6943 63.749 13.6943C64.3898 13.6943 64.9286 14.2199 64.9286 14.8769Z" fill="white"/>
<path d="M57.9966 18.2785C57.9966 18.7165 57.6471 19.0523 57.2247 19.0523C56.7878 19.0523 56.4529 18.7019 56.4529 18.2785C56.4529 17.8405 56.8024 17.5048 57.2247 17.5048C57.6471 17.5048 57.9966 17.8551 57.9966 18.2785Z" fill="white"/>
<path d="M57.5742 16.5996C57.8798 16.5996 58.1275 16.3512 58.1275 16.0448C58.1275 15.7384 57.8798 15.4901 57.5742 15.4901C57.2685 15.4901 57.0208 15.7384 57.0208 16.0448C57.0208 16.3512 57.2685 16.5996 57.5742 16.5996Z" fill="white"/>
<path d="M54.7635 18.7166C54.7635 19.3152 54.2829 19.7969 53.6858 19.7969C53.0887 19.7969 52.6082 19.3152 52.6082 18.7166C52.6082 18.118 53.0887 17.6362 53.6858 17.6362C54.2829 17.6362 54.7635 18.118 54.7635 18.7166Z" fill="white"/>
<path d="M52.04 14.1177C52.04 14.8331 51.4575 15.4171 50.7439 15.4171C50.0303 15.4171 49.4478 14.8331 49.4478 14.1177C49.4478 13.4023 50.0303 12.8184 50.7439 12.8184C51.4721 12.8184 52.04 13.4023 52.04 14.1177Z" fill="white"/>
<path d="M56.7295 7.27052C56.7295 7.57711 56.482 7.81072 56.1907 7.81072C55.8849 7.81072 55.6519 7.56251 55.6519 7.27052C55.6519 6.96393 55.8994 6.73035 56.1907 6.73035C56.4965 6.71575 56.7295 6.96393 56.7295 7.27052Z" fill="white"/>
<path d="M115.886 73.5376C115.886 73.8004 115.682 74.0048 115.42 74.0048C115.158 74.0048 114.954 73.8004 114.954 73.5376C114.954 73.2748 115.158 73.0704 115.42 73.0704C115.668 73.0704 115.886 73.2748 115.886 73.5376Z" fill="white"/>
<path d="M122.716 67.5518C122.716 68.0919 122.279 68.5153 121.755 68.5153C121.216 68.5153 120.794 68.0773 120.794 67.5518C120.794 67.0116 121.231 66.5882 121.755 66.5882C122.294 66.5736 122.716 67.0116 122.716 67.5518Z" fill="white"/>
<path d="M131.134 73.0558C131.134 73.6982 130.61 74.2092 129.983 74.2092C129.343 74.2092 128.833 73.6836 128.833 73.0558C128.833 72.4135 129.357 71.9025 129.983 71.9025C130.624 71.9025 131.134 72.4135 131.134 73.0558Z" fill="white"/>
<path d="M134.44 78.3117C134.44 78.6913 134.134 78.9978 133.756 78.9978C133.377 78.9978 133.071 78.6913 133.071 78.3117C133.071 77.9321 133.377 77.6255 133.756 77.6255C134.134 77.6255 134.44 77.9321 134.44 78.3117Z" fill="white"/>
<path d="M143.207 79.319C143.207 79.8737 142.756 80.3263 142.202 80.3263C141.649 80.3263 141.198 79.8737 141.198 79.319C141.198 78.7642 141.649 78.3116 142.202 78.3116C142.756 78.3116 143.207 78.7642 143.207 79.319Z" fill="white"/>
<path d="M142.756 90.4584C142.756 90.7942 142.479 91.057 142.159 91.057C141.824 91.057 141.562 90.7796 141.562 90.4584C141.562 90.1227 141.838 89.8599 142.159 89.8599C142.479 89.8599 142.756 90.1227 142.756 90.4584Z" fill="white"/>
<path d="M151.698 87.8305C151.698 88.4291 151.217 88.9255 150.605 88.9255C149.994 88.9255 149.513 88.4437 149.513 87.8305C149.513 87.2319 149.994 86.7355 150.605 86.7355C151.217 86.7355 151.698 87.2173 151.698 87.8305Z" fill="white"/>
<path d="M153.897 83.7134C153.897 84.0054 153.664 84.239 153.372 84.239C153.081 84.239 152.848 84.0054 152.848 83.7134C152.848 83.4214 153.081 83.1879 153.372 83.1879C153.664 83.1879 153.897 83.436 153.897 83.7134Z" fill="white"/>
<path d="M156.955 77.6547C156.955 78.1364 156.562 78.5306 156.081 78.5306C155.6 78.5306 155.207 78.1364 155.207 77.6547C155.207 77.1729 155.6 76.7787 156.081 76.7787C156.562 76.7787 156.955 77.1729 156.955 77.6547Z" fill="white"/>
<path d="M162.038 71.5813C162.472 71.5813 162.824 71.2283 162.824 70.7929C162.824 70.3575 162.472 70.0045 162.038 70.0045C161.603 70.0045 161.251 70.3575 161.251 70.7929C161.251 71.2283 161.603 71.5813 162.038 71.5813Z" fill="white"/>
<path d="M157.581 65.4934C157.75 65.4934 157.887 65.3561 157.887 65.1868C157.887 65.0174 157.75 64.8802 157.581 64.8802C157.413 64.8802 157.276 65.0174 157.276 65.1868C157.276 65.3561 157.413 65.4934 157.581 65.4934Z" fill="white"/>
<path d="M161.149 59.0257C161.149 59.3177 160.916 59.5512 160.625 59.5512C160.334 59.5512 160.101 59.3177 160.101 59.0257C160.101 58.7337 160.334 58.5001 160.625 58.5001C160.916 58.5001 161.149 58.7337 161.149 59.0257Z" fill="white"/>
<path d="M163.319 60.0186C163.319 60.6318 162.824 61.1282 162.213 61.1282C161.601 61.1282 161.106 60.6318 161.106 60.0186C161.106 59.4054 161.601 58.9091 162.213 58.9091C162.824 58.9091 163.319 59.4054 163.319 60.0186Z" fill="white"/>
<path d="M160.508 58.5586C161.023 58.5586 161.441 58.1402 161.441 57.6242C161.441 57.1081 161.023 56.6898 160.508 56.6898C159.994 56.6898 159.576 57.1081 159.576 57.6242C159.576 58.1402 159.994 58.5586 160.508 58.5586Z" fill="white"/>
<path d="M165.271 61.3909C165.271 61.7997 164.95 62.1209 164.543 62.1209C164.135 62.1209 163.814 61.7997 163.814 61.3909C163.814 60.9821 164.135 60.6609 164.543 60.6609C164.95 60.6609 165.271 60.9821 165.271 61.3909Z" fill="white"/>
<path d="M173.062 60.7193C173.062 61.3617 172.553 61.8727 171.912 61.8727C171.271 61.8727 170.761 61.3617 170.761 60.7193C170.761 60.077 171.271 59.566 171.912 59.566C172.553 59.5806 173.062 60.0916 173.062 60.7193Z" fill="white"/>
<path d="M180.402 61.4492C180.402 61.9602 179.98 62.3836 179.47 62.3836C178.96 62.3836 178.538 61.9602 178.538 61.4492C178.538 60.9382 178.96 60.5148 179.47 60.5148C179.98 60.5148 180.402 60.9382 180.402 61.4492Z" fill="white"/>
<path d="M186.228 63.6976C186.228 64.0188 185.965 64.2816 185.645 64.2816C185.325 64.2816 185.062 64.0188 185.062 63.6976C185.062 63.3765 185.325 63.1136 185.645 63.1136C185.965 63.1282 186.228 63.3765 186.228 63.6976Z" fill="white"/>
<path d="M187.422 75.64C187.422 76.0925 187.058 76.4575 186.606 76.4575C186.155 76.4575 185.791 76.0925 185.791 75.64C185.791 75.1874 186.155 74.8224 186.606 74.8224C187.058 74.8224 187.422 75.1874 187.422 75.64Z" fill="white"/>
<path d="M196.801 69.0703C196.801 69.7564 196.247 70.3112 195.563 70.3112C194.878 70.3112 194.325 69.7564 194.325 69.0703C194.325 68.3841 194.878 67.8293 195.563 67.8293C196.247 67.8147 196.801 68.3841 196.801 69.0703Z" fill="white"/>
<path d="M197.966 69.187C198.593 69.187 199.102 68.6772 199.102 68.0482C199.102 67.4193 198.593 66.9095 197.966 66.9095C197.338 66.9095 196.83 67.4193 196.83 68.0482C196.83 68.6772 197.338 69.187 197.966 69.187Z" fill="white"/>
<path d="M201.65 61.4054C201.65 61.8288 201.301 62.1792 200.879 62.1792C200.456 62.1792 200.107 61.8288 200.107 61.4054C200.107 60.9821 200.456 60.6317 200.879 60.6317C201.315 60.6171 201.65 60.9675 201.65 61.4054Z" fill="white"/>
<path d="M205 54.2079C205 54.5583 204.723 54.8356 204.374 54.8356C204.024 54.8356 203.748 54.5583 203.748 54.2079C203.748 53.8575 204.024 53.5801 204.374 53.5801C204.723 53.5801 205 53.8575 205 54.2079Z" fill="white"/>
<path d="M198.243 48.2075C198.243 48.4995 198.01 48.7331 197.718 48.7331C197.427 48.7331 197.194 48.4995 197.194 48.2075C197.194 47.9155 197.427 47.6819 197.718 47.6819C198.01 47.6819 198.243 47.9155 198.243 48.2075Z" fill="white"/>
<path d="M190.815 46.149C191.378 46.149 191.835 45.6914 191.835 45.127C191.835 44.5626 191.378 44.105 190.815 44.105C190.252 44.105 189.796 44.5626 189.796 45.127C189.796 45.6914 190.252 46.149 190.815 46.149Z" fill="white"/>
<path d="M185.048 47.3315C185.048 47.5213 184.888 47.6819 184.698 47.6819C184.509 47.6819 184.349 47.5213 184.349 47.3315C184.349 47.1417 184.509 46.9811 184.698 46.9811C184.888 46.9811 185.048 47.1417 185.048 47.3315Z" fill="white"/>
<path d="M180.621 37.6375C180.621 37.9003 180.402 38.1193 180.14 38.1193C179.878 38.1193 179.659 37.9003 179.659 37.6375C179.659 37.3747 179.878 37.1557 180.14 37.1557C180.402 37.1557 180.621 37.3747 180.621 37.6375Z" fill="white"/>
<path d="M172.494 42.1633C172.494 42.8495 171.941 43.4043 171.256 43.4043C170.572 43.4043 170.019 42.8495 170.019 42.1633C170.019 41.4772 170.572 40.9224 171.256 40.9224C171.941 40.9224 172.494 41.4772 172.494 42.1633Z" fill="white"/>
<path d="M166.407 39.6813C166.632 39.6813 166.815 39.4983 166.815 39.2726C166.815 39.0468 166.632 38.8638 166.407 38.8638C166.182 38.8638 165.999 39.0468 165.999 39.2726C165.999 39.4983 166.182 39.6813 166.407 39.6813Z" fill="white"/>
<path d="M174.577 40.6304C174.577 41.2874 174.053 41.813 173.397 41.813C172.742 41.813 172.218 41.2874 172.218 40.6304C172.218 39.9735 172.742 39.4479 173.397 39.4479C174.053 39.4625 174.577 39.9881 174.577 40.6304Z" fill="white"/>
<path d="M177.446 34.7614C177.446 35.4768 176.863 36.0608 176.15 36.0608C175.436 36.0608 174.854 35.4768 174.854 34.7614C174.854 34.0461 175.436 33.4621 176.15 33.4621C176.863 33.4621 177.446 34.0461 177.446 34.7614Z" fill="white"/>
<path d="M181.8 29.5056C181.8 30.002 181.392 30.4107 180.897 30.4107C180.402 30.4107 179.994 30.002 179.994 29.5056C179.994 29.0092 180.402 28.6004 180.897 28.6004C181.407 28.6004 181.8 29.0092 181.8 29.5056Z" fill="white"/>
<path d="M59.9769 132.14C59.9769 132.505 59.6856 132.782 59.3361 132.782C58.972 132.782 58.6953 132.49 58.6953 132.14C58.6953 131.775 58.9866 131.497 59.3361 131.497C59.6856 131.497 59.9769 131.789 59.9769 132.14Z" fill="white"/>
<path d="M56.6566 136.359C56.6566 136.943 56.176 137.425 55.5934 137.425C55.0109 137.425 54.5303 136.943 54.5303 136.359C54.5303 135.775 55.0109 135.293 55.5934 135.293C56.176 135.293 56.6566 135.775 56.6566 136.359Z" fill="white"/>
<path d="M52.0836 140.126C52.0836 140.695 51.6175 141.148 51.0641 141.148C50.4962 141.148 50.0447 140.681 50.0447 140.126C50.0447 139.556 50.5107 139.104 51.0641 139.104C51.6175 139.089 52.0836 139.556 52.0836 140.126Z" fill="white"/>
<path d="M48.4575 147.922C49.1331 147.922 49.6808 147.373 49.6808 146.696C49.6808 146.018 49.1331 145.469 48.4575 145.469C47.7818 145.469 47.2341 146.018 47.2341 146.696C47.2341 147.373 47.7818 147.922 48.4575 147.922Z" fill="white"/>
<path d="M45.0931 142.958C45.0931 143.206 44.8892 143.411 44.6416 143.411C44.3941 143.411 44.1902 143.206 44.1902 142.958C44.1902 142.71 44.3941 142.505 44.6416 142.505C44.8892 142.505 45.0931 142.71 45.0931 142.958Z" fill="white"/>
<path d="M36.661 143.381C37.3447 143.381 37.8989 142.826 37.8989 142.14C37.8989 141.455 37.3447 140.899 36.661 140.899C35.9773 140.899 35.4231 141.455 35.4231 142.14C35.4231 142.826 35.9773 143.381 36.661 143.381Z" fill="white"/>
<path d="M45.7921 137.06C45.7921 137.527 45.4135 137.907 44.9474 137.907C44.4814 137.907 44.1028 137.527 44.1028 137.06C44.1028 136.593 44.4814 136.213 44.9474 136.213C45.4135 136.213 45.7921 136.593 45.7921 137.06Z" fill="white"/>
<path d="M44.3212 130.417C44.3212 130.753 44.0445 131.03 43.7095 131.03C43.3746 131.03 43.0979 130.753 43.0979 130.417C43.0979 130.081 43.3746 129.804 43.7095 129.804C44.0445 129.818 44.3212 130.081 44.3212 130.417Z" fill="white"/>
<path d="M39.1222 126.3C39.1222 126.68 38.8164 127.001 38.4231 127.001C38.0445 127.001 37.7241 126.694 37.7241 126.3C37.7241 125.921 38.0299 125.599 38.4231 125.599C38.8018 125.599 39.1222 125.921 39.1222 126.3Z" fill="white"/>
<path d="M36.326 126.519C36.6397 126.519 36.894 126.264 36.894 125.95C36.894 125.635 36.6397 125.38 36.326 125.38C36.0123 125.38 35.7581 125.635 35.7581 125.95C35.7581 126.264 36.0123 126.519 36.326 126.519Z" fill="white"/>
<path d="M30.1074 124.913C30.1074 125.556 29.5977 126.067 28.9569 126.067C28.3161 126.067 27.8064 125.556 27.8064 124.913C27.8064 124.271 28.3161 123.76 28.9569 123.76C29.5977 123.76 30.1074 124.285 30.1074 124.913Z" fill="white"/>
<path d="M24.4276 130.052C24.4276 130.724 23.8888 131.279 23.2043 131.279C22.5198 131.279 21.981 130.738 21.981 130.052C21.981 129.381 22.5198 128.826 23.2043 128.826C23.8888 128.826 24.4276 129.381 24.4276 130.052Z" fill="white"/>
<path d="M18.8788 125.57C18.8788 126.125 18.442 126.563 17.8885 126.563C17.3351 126.563 16.8982 126.125 16.8982 125.57C16.8982 125.015 17.3351 124.577 17.8885 124.577C18.4274 124.577 18.8788 125.015 18.8788 125.57Z" fill="white"/>
<path d="M19.8983 118.314C19.8983 118.913 19.4177 119.395 18.8206 119.395C18.2235 119.395 17.7429 118.913 17.7429 118.314C17.7429 117.716 18.2235 117.234 18.8206 117.234C19.4177 117.234 19.8983 117.716 19.8983 118.314Z" fill="white"/>
<path d="M24.9955 114.197C24.9955 114.854 24.4712 115.38 23.8159 115.38C23.1605 115.38 22.6362 114.854 22.6362 114.197C22.6362 113.54 23.1605 113.015 23.8159 113.015C24.4567 113.015 24.9955 113.54 24.9955 114.197Z" fill="white"/>
<path d="M31.418 114.022C31.418 114.183 31.2869 114.314 31.1267 114.314C30.9665 114.314 30.8354 114.183 30.8354 114.022C30.8354 113.861 30.9665 113.73 31.1267 113.73C31.2869 113.73 31.418 113.861 31.418 114.022Z" fill="white"/>
<path d="M35.6852 107.219C35.6852 107.467 35.4814 107.686 35.2192 107.686C34.9716 107.686 34.7532 107.481 34.7532 107.219C34.7532 106.97 34.9571 106.751 35.2192 106.751C35.4668 106.751 35.6852 106.956 35.6852 107.219Z" fill="white"/>
<path d="M39.399 98.9699C40.0666 98.9699 40.6077 98.4274 40.6077 97.7581C40.6077 97.0889 40.0666 96.5464 39.399 96.5464C38.7314 96.5464 38.1902 97.0889 38.1902 97.7581C38.1902 98.4274 38.7314 98.9699 39.399 98.9699Z" fill="white"/>
<path d="M31.3161 93.4075C31.3161 93.6995 31.0831 93.9331 30.7918 93.9331C30.5006 93.9331 30.2676 93.6995 30.2676 93.4075C30.2676 93.1155 30.5006 92.8819 30.7918 92.8819C31.0685 92.8673 31.3161 93.1155 31.3161 93.4075Z" fill="white"/>
<path d="M25.8694 98.1231C25.8694 98.6925 25.418 99.1451 24.85 99.1451C24.2821 99.1451 23.8306 98.6925 23.8306 98.1231C23.8306 97.5538 24.2821 97.1012 24.85 97.1012C25.418 97.1012 25.8694 97.5538 25.8694 98.1231Z" fill="white"/>
<path d="M18.8354 92.2979C18.8354 92.4731 18.6897 92.6191 18.515 92.6191C18.3402 92.6191 18.1946 92.4731 18.1946 92.2979C18.1946 92.1227 18.3402 91.9767 18.515 91.9767C18.6897 91.9767 18.8354 92.1227 18.8354 92.2979Z" fill="white"/>
<path d="M12.7768 90.6482C12.7768 91.0424 12.4565 91.3635 12.0632 91.3635C11.67 91.3635 11.3496 91.0424 11.3496 90.6482C11.3496 90.254 11.67 89.9328 12.0632 89.9328C12.4419 89.9182 12.7768 90.2394 12.7768 90.6482Z" fill="white"/>
<path d="M5.72816 96.342C5.72816 96.8238 5.33492 97.2326 4.83977 97.2326C4.35917 97.2326 3.95142 96.8384 3.95142 96.342C3.95142 95.8602 4.34461 95.4514 4.83977 95.4514C5.33492 95.4514 5.72816 95.8602 5.72816 96.342Z" fill="white"/>
<path d="M6.03386 88.8963C6.03386 89.4219 5.61152 89.8452 5.08724 89.8452C4.56296 89.8452 4.14062 89.4219 4.14062 88.8963C4.14062 88.3707 4.56296 87.9473 5.08724 87.9473C5.61152 87.9473 6.03386 88.3707 6.03386 88.8963Z" fill="white"/>
<path d="M12.573 86.6771C13.0315 86.6771 13.4031 86.3045 13.4031 85.845C13.4031 85.3854 13.0315 85.0128 12.573 85.0128C12.1145 85.0128 11.7429 85.3854 11.7429 85.845C11.7429 86.3045 12.1145 86.6771 12.573 86.6771Z" fill="white"/>
<path d="M12.2088 77.5817C12.2088 78.3117 11.6263 78.8956 10.8981 78.8956C10.1699 78.8956 9.5874 78.3117 9.5874 77.5817C9.5874 76.8517 10.1699 76.2677 10.8981 76.2677C11.6263 76.2677 12.2088 76.8663 12.2088 77.5817Z" fill="white"/>
</svg>
