<svg width="1706" height="1138" viewBox="0 0 1706 1138" fill="none" xmlns="http://www.w3.org/2000/svg">
<path d="M1450.77 1C1449.1 7.68017 1416.72 15.517 1411.27 17.3113C1354.14 36.1462 1291.33 44.7055 1232.37 55.0639C1092.13 79.7027 949.784 91.9545 809.14 114.126C677.194 134.927 545.474 160.882 412.237 172.531C295.937 182.7 170.005 188.539 67.991 252.377C38.3801 270.908 21.6406 288.763 12.1745 323.016C-1.76848 373.468 21.1217 412.751 68.5176 434.564C103.811 450.806 144.263 455.65 182.52 458.767C236.826 463.193 291.582 462.672 346.021 463.24C495.966 464.803 646.002 460.346 795.976 460.346C918.875 460.346 1041.64 459.812 1164.44 465.082C1285.7 470.285 1406.02 472.12 1526.2 491.127C1569.55 497.984 1610.65 509.098 1652.44 522.302C1697.02 536.388 1742.5 548.162 1786.59 563.738C1800.65 568.706 1822 573.411 1822 591.757C1822 614.421 1808.84 634.242 1795.14 651.214C1774.97 676.216 1751.1 699.822 1725.9 719.748C1686 751.295 1640.4 765.834 1591.1 776.311C1484.11 799.048 1374.31 809.691 1265.68 821.035C1183.64 829.602 1101.7 836.774 1019.24 839.188C869.033 843.586 718.598 842.278 569.024 858.919C478.805 868.957 385.734 882.022 298.761 909.563C253.209 923.988 208.251 942.894 164.617 962.312C124.796 980.032 84.2112 1000.11 50.8775 1028.61C19.7477 1055.22 -7.51594 1094.08 3.48607 1137" stroke="#E31F26" stroke-linecap="round"/>
</svg>
