<svg width="267" height="496" viewBox="0 0 267 496" fill="none" xmlns="http://www.w3.org/2000/svg">
<path fill-rule="evenodd" clip-rule="evenodd" d="M112.762 6.29688C113.833 8.44072 113.833 10.54 112.762 12.5938C107.12 14.8868 101.629 17.3087 96.2869 19.8594C92.4967 20.8533 88.782 22.1456 85.1419 23.7344C81.7741 21.2214 80.6432 17.9926 81.7499 14.0469C90.7774 10.0169 99.9842 6.46447 109.37 3.39062C110.962 3.85369 112.093 4.82244 112.762 6.29688Z" fill="white"/>
<path fill-rule="evenodd" clip-rule="evenodd" d="M133.114 103.172C136.973 102.06 139.234 103.675 139.898 108.016C137.66 106.432 135.399 104.818 133.114 103.172Z" fill="#474747"/>
<path fill-rule="evenodd" clip-rule="evenodd" d="M114.701 4.35938C116.996 6.73863 117.965 9.64488 117.608 13.0781C112.669 16.1927 107.501 18.7753 102.102 20.8281C101.027 20.8833 100.058 21.2059 99.1945 21.7969C98.8834 20.2972 97.9143 19.6511 96.2871 19.8594C101.629 17.3087 107.12 14.8868 112.762 12.5938C113.833 10.54 113.833 8.44072 112.762 6.29688C114.413 7.42062 115.058 6.77447 114.701 4.35938Z" fill="#474747"/>
<path fill-rule="evenodd" clip-rule="evenodd" d="M98.2254 29.5469C93.5977 29.7116 93.275 30.6803 97.2562 32.4531C94.9952 32.4531 92.7333 32.4531 90.4723 32.4531C90.417 31.3788 90.0943 30.41 89.5031 29.5469C92.5113 28.3117 95.4187 28.3117 98.2254 29.5469Z" fill="#474747"/>
<path fill-rule="evenodd" clip-rule="evenodd" d="M112.762 0.484375C113.828 1.55484 114.475 2.84619 114.701 4.35938C115.058 6.77447 114.413 7.42062 112.762 6.29688C112.093 4.82244 110.962 3.85369 109.37 3.39062C99.9843 6.46447 90.7776 10.0169 81.7501 14.0469C80.6433 17.9926 81.7743 21.2214 85.142 23.7344C88.7821 22.1456 92.4968 20.8533 96.2871 19.8594C97.9143 19.6511 98.8834 20.2972 99.1945 21.7969C94.6618 23.4186 90.1389 25.0325 85.6266 26.6406C85.6266 27.6094 85.6266 28.5781 85.6266 29.5469C86.9185 29.5469 88.2113 29.5469 89.5031 29.5469C90.0943 30.41 90.417 31.3788 90.4723 32.4531C89.3335 32.241 88.3644 32.5636 87.5649 33.4219C91.0925 34.8353 94.3227 34.5127 97.2562 32.4531C93.275 30.6803 93.5977 29.7116 98.2254 29.5469C99.7304 31.373 101.669 32.3417 104.04 32.4531C105.192 33.2901 106.322 34.2589 107.432 35.3594C116.531 56.0277 124.769 77.0176 132.145 98.3281C132.145 99.2969 132.145 100.266 132.145 101.234C131.176 101.234 130.207 101.234 129.238 101.234C129.271 105.186 130.563 105.832 133.114 103.172C135.399 104.818 137.66 106.432 139.898 108.016C139.504 113.537 138.858 119.026 137.96 124.484C140.666 124.438 142.442 125.729 143.29 128.359C145.775 133.874 147.875 139.525 149.59 145.312C148.963 148.03 147.509 150.128 145.228 151.609C142.544 147.31 140.121 142.789 137.96 138.047C136.832 144.481 136.67 150.939 137.475 157.422C139.267 161.488 140.236 165.685 140.383 170.016C136.973 171.794 133.581 173.571 130.207 175.344C127.981 176.567 127.173 178.344 127.784 180.672C130.336 176.248 134.051 174.794 138.929 176.312C139.783 176.998 140.428 177.806 140.867 178.734C140.992 180.397 141.315 182.012 141.836 183.578C139.892 181.957 137.954 180.342 136.022 178.734C133.139 179.207 130.878 180.66 129.238 183.094C127.985 183.568 126.692 183.73 125.361 183.578C124.585 182.084 124.262 180.47 124.392 178.734C126.254 173.259 130.13 170.03 136.022 169.047C136.344 168.24 136.668 167.432 136.991 166.625C132.262 154.792 131.939 142.844 136.022 130.781C135.524 128.222 135.202 125.638 135.053 123.031C135.945 118.032 136.43 113.026 136.506 108.016C135.081 105.689 133.627 105.85 132.145 108.5C131.176 109.146 130.207 109.146 129.238 108.5C127.827 106.81 126.535 105.034 125.361 103.172C125.038 104.948 124.715 106.724 124.392 108.5C128.51 122.665 128.025 136.712 122.938 150.641C121.832 158.027 121.347 165.455 121.485 172.922C120.707 180.231 122 187.012 125.361 193.266C130.613 201.877 132.551 211.241 131.176 221.359C131.237 228.405 132.206 235.186 134.083 241.703C134.73 246.224 135.375 250.744 136.022 255.266C137.249 263.116 138.218 270.866 138.929 278.516C139.483 280.216 140.292 281.831 141.352 283.359C146.531 287.062 149.923 291.906 151.528 297.891C153.143 297.891 154.758 297.891 156.374 297.891C161.989 299.585 167.804 300.877 173.818 301.766C172.444 303.517 170.505 304.163 168.003 303.703C163.084 303.107 158.238 302.139 153.466 300.797C153.143 301.281 152.82 301.766 152.497 302.25C159.08 352.279 163.926 402.493 167.034 452.891C167.14 457.519 166.655 462.039 165.58 466.453C163.298 467.72 160.875 468.689 158.312 469.359C158.958 470.651 159.604 471.943 160.25 473.234C164.087 474.036 167.963 474.52 171.88 474.688C173.3 475.303 174.593 476.111 175.756 477.109C178.637 475.368 180.576 472.946 181.571 469.844C179.1 464.09 177.322 458.116 176.241 451.922C175.526 426.85 174.072 401.823 171.88 376.844C171.752 372.323 172.398 367.963 173.818 363.766C174.562 363.026 175.047 362.058 175.272 360.859C175.967 361.386 176.451 362.033 176.725 362.797C176.172 370.042 175.849 377.308 175.756 384.594C177.8 406.007 178.931 427.481 179.148 449.016C180.365 455.962 182.142 462.743 184.478 469.359C183.978 473.266 182.04 476.334 178.664 478.562C183.425 483.625 183.748 489.115 179.633 495.031C176.311 495.71 173.079 495.388 169.941 494.062C162.999 490.433 156.216 486.558 149.59 482.438C147.56 481.222 146.591 479.446 146.682 477.109C147.005 472.761 149.267 471.308 153.466 472.75C155.404 475.01 157.343 477.271 159.281 479.531C163.258 481.843 167.458 483.618 171.88 484.859C172.351 482.624 172.351 480.526 171.88 478.562C167.68 478.24 163.48 477.916 159.281 477.594C157.242 475.616 156.111 473.194 155.889 470.328C153.139 469.19 150.393 469.351 147.651 470.812C144.547 474.078 151.008 467.491 147.651 470.36L148.05 470.609C147.651 470.36 138.523 479.531 137.96 476.141C141.553 470.287 146.722 466.735 153.466 465.484C153.39 451.781 151.936 438.219 149.105 424.797C149.071 412.848 149.071 400.9 149.105 388.953C146.06 378.872 144.606 368.539 144.744 357.953C144.879 350.15 143.587 342.723 140.867 335.672C138.601 324.805 137.793 313.827 138.444 302.734C140.291 298.787 143.36 296.527 147.651 295.953C146.714 293.89 145.583 291.952 144.259 290.141C134.768 282.003 131.214 271.67 133.599 259.141C129.193 242.312 127.255 225.198 127.784 207.797C127.551 205.518 126.744 203.581 125.361 201.984C124.185 198.662 122.731 195.432 121 192.297C117.028 178.233 116.543 164.024 119.546 149.672C123.3 140.763 124.754 131.398 123.907 121.578C123.141 120.372 122.656 119.081 122.454 117.703C121.814 114.482 121.169 111.253 120.515 108.016C120.489 104.517 121.781 101.611 124.392 99.2969C122.942 95.5643 121.812 91.5285 120.031 88.1562C116.335 77.5475 113.104 67.2148 108.401 57.1562L104.525 48.4375C104.525 48.4375 100.796 41.1428 99.1945 37.2969C97.5789 36.1673 95.9634 36.1673 94.3488 37.2969C90.7998 37.7483 87.5697 37.1022 84.6575 35.3594C82.1755 33.8152 79.2681 32.8464 75.9352 32.4531C73.6248 29.1138 72.9794 25.5624 73.997 21.7969C75.7928 21.0209 77.4074 20.6973 78.8426 20.8281C76.9364 18.3946 76.6136 15.811 77.8735 13.0781C88.6736 6.57297 100.303 2.37538 112.762 0.484375Z" fill="#474747"/>
<path d="M124.392 108.5C128.51 122.665 123.907 148.703 122.938 150.641C121.969 152.578 121 176.312 121 176.312L121.485 179.703V182.609L122.454 185.516L125.361 183.578C125.361 183.578 123.733 180.672 124.392 178.734C126.254 173.259 130.13 170.03 136.022 169.047C136.344 168.24 136.668 167.432 136.991 166.625C132.262 154.792 131.939 142.844 136.022 130.781C135.524 128.222 135.202 125.638 135.052 123.031C135.945 118.032 136.43 113.026 136.506 108.016C135.081 105.689 133.627 105.849 132.145 108.5C131.176 109.146 130.207 109.146 129.238 108.5C127.827 106.81 126.535 105.034 125.361 103.172C125.038 104.948 124.715 106.724 124.392 108.5Z" fill="white"/>
<path fill-rule="evenodd" clip-rule="evenodd" d="M141.836 183.578C141.836 184.224 142.159 184.547 142.805 184.547H149.589C149.589 184.547 149.589 187.938 149.589 188.422C154.864 190.988 160.356 193.087 166.065 194.719C176.438 195.57 186.776 196.539 197.077 197.625C199.461 199.037 201.561 200.813 203.376 202.953C207.007 209.305 208.621 216.086 208.222 223.297C203.065 226.272 198.381 229.824 194.17 233.953C194.372 234.521 194.696 235.005 195.139 235.406C201.451 236.17 206.942 234.394 211.614 230.078C214.239 237.957 215.048 246.031 214.037 254.297C211.524 256.561 208.778 256.723 205.799 254.781C203.177 252.484 200.916 249.902 199.015 247.031C197.565 246.54 196.434 247.024 195.623 248.484C194.429 260.502 196.045 272.127 200.469 283.359C201.274 289.842 201.113 296.3 199.984 302.734C195.202 303.653 190.356 303.975 185.447 303.703C183.387 303.172 181.449 302.526 179.633 301.766C180.349 301.893 180.995 301.731 181.571 301.281C178.916 300.287 176.655 299.319 174.787 297.406C172.392 296.209 169.485 296.371 168.003 294.016C166.4 293.427 166.065 292.078 164.126 290.141C154.036 283.607 145.96 275.212 139.898 264.953C140.059 255.906 139.898 246.864 139.413 237.828C139.189 236.63 138.704 235.661 137.96 234.922C137.313 233.953 136.668 232.984 136.021 232.016C135.807 227.69 134.192 224.139 131.176 221.359C132.551 211.241 130.613 201.877 125.361 193.266C123.423 189.875 122.115 186.594 122.454 183.578C123.784 183.73 127.984 183.568 129.238 183.094C130.878 180.66 133.139 179.207 136.021 178.734C137.954 180.342 139.892 181.957 141.836 183.578Z" fill="white"/>
<path fill-rule="evenodd" clip-rule="evenodd" d="M211.614 224.266C212.576 224.099 213.221 224.423 213.553 225.234C210.218 227.716 206.664 229.976 202.892 232.016C201.733 231.68 201.733 231.196 202.892 230.563C206.171 228.929 209.078 226.83 211.614 224.266Z" fill="#474747"/>
<path fill-rule="evenodd" clip-rule="evenodd" d="M173.818 141.922C182.716 149.073 186.593 158.438 185.447 170.016C183.812 176.008 181.228 181.659 177.694 186.969C175.011 187.805 172.265 188.289 169.457 188.422C164.016 187.756 158.686 186.949 153.466 186C158.199 189.008 163.369 190.945 168.972 191.812C178.075 191.922 187.12 192.568 196.108 193.75C203.23 196.505 207.753 201.511 209.676 208.766C211.911 213.795 212.556 218.963 211.614 224.266C209.078 226.83 206.17 228.929 202.892 230.562C201.733 231.196 201.733 231.68 202.892 232.016C206.664 229.976 210.218 227.716 213.552 225.234C214.15 225.342 214.635 225.664 215.006 226.203C216.327 232.963 217.457 239.744 218.398 246.547C219.243 251.339 217.951 255.375 214.522 258.656C208.4 260.038 203.393 258.262 199.5 253.328C198.649 264.346 200.265 275.002 204.346 285.297C204.511 290.493 204.996 295.661 205.799 300.797C207.71 301.577 209.164 302.869 210.16 304.672C218.571 323.109 225.355 342.162 230.512 361.828C230.835 367.318 231.159 372.807 231.481 378.297C233.969 383.692 236.877 388.859 240.204 393.797C242.578 407.257 245.808 420.496 249.895 433.516C251.452 439.213 254.037 444.379 257.648 449.016C257.971 455.474 258.294 461.932 258.617 468.391C259.286 471.322 260.417 474.067 262.009 476.625C261.941 477.366 261.619 477.85 261.04 478.078C259.377 477.953 257.761 477.631 256.194 477.109C253.208 473.632 249.332 472.017 244.565 472.266C242.949 472.427 241.335 472.588 239.719 472.75C239.276 473.151 238.952 473.635 238.75 474.203C243.987 474.919 249.156 475.888 254.256 477.109C256.123 478.065 258.061 479.033 260.071 480.016C261.379 480.968 262.348 482.259 262.978 483.891C263.64 483.539 264.287 483.216 264.917 482.922C264.917 484.213 265.563 484.859 266.855 484.859C266.416 485.787 265.77 486.595 264.917 487.281C257.44 488.527 250.01 488.527 242.626 487.281C238.891 485.723 237.922 483.141 239.719 479.531C234.86 478.357 233.729 475.613 236.327 471.297C242.373 467.534 248.511 467.534 254.741 471.297C253.964 465.347 254.126 459.373 255.225 453.375C253.901 449.779 252.125 446.388 249.895 443.203C244.483 427.376 240.283 411.23 237.296 394.766C233.32 389.723 230.089 384.233 227.605 378.297C227.282 372.484 226.958 366.672 226.636 360.859C222.05 341.215 215.105 322.486 205.799 304.672C204.766 312.803 205.251 320.876 207.253 328.891C212.373 349.091 216.896 369.435 220.821 389.922C226.709 407.905 233.171 425.665 240.204 443.203C241.742 452.879 238.996 461.113 231.966 467.906C229.254 468.45 227.478 467.319 226.636 464.516C218.514 433.979 209.792 403.625 200.469 373.453C194.073 366.133 187.127 359.352 179.633 353.109C178.864 356.515 177.895 359.745 176.725 362.797C176.451 362.033 175.966 361.386 175.272 360.859C175.047 362.058 174.562 363.026 173.818 363.766C174.312 359.519 175.119 355.32 176.241 351.172C176.577 349.544 177.546 348.576 179.148 348.266C187.235 355.381 194.988 362.808 202.407 370.547C203.699 373.131 204.992 375.713 206.284 378.297C213.625 403.962 220.409 429.796 226.636 455.797C227.464 458.801 228.918 461.385 230.997 463.547C236.494 458.202 238.594 451.745 237.296 444.172C230.968 428.101 224.83 411.956 218.883 395.734C213.162 369.239 207.509 342.759 201.923 316.297C202.236 312.687 201.912 309.135 200.954 305.641C200.365 305.761 200.043 306.083 199.984 306.609C193.115 306.895 175.186 304.635 168.488 303.703C170.426 303.057 171.395 302.412 173.333 301.766C178.242 302.038 195.202 303.653 199.984 302.734C201.113 296.3 201.274 289.842 200.469 283.359C196.045 272.127 194.429 260.502 195.623 248.484C196.435 247.024 197.566 246.54 199.015 247.031C200.916 249.902 203.177 252.484 205.799 254.781C208.778 256.723 211.524 256.561 214.037 254.297C215.048 246.031 214.239 237.957 211.614 230.078C206.942 234.394 201.451 236.17 195.139 235.406C194.696 235.005 194.372 234.521 194.17 233.953C198.382 229.824 203.065 226.272 208.222 223.297C208.621 216.086 207.007 209.305 203.376 202.953C201.561 200.813 199.461 199.037 197.077 197.625C186.776 196.539 176.438 195.57 166.065 194.719C160.356 193.087 154.864 190.988 149.589 188.422C149.589 187.131 149.589 185.838 149.589 184.547C147.328 184.547 145.066 184.547 142.805 184.547C142.159 184.547 141.836 184.224 141.836 183.578C141.315 182.012 140.992 180.397 140.867 178.734C141.611 179.385 142.257 180.192 142.805 181.156C145.695 181.639 148.603 181.8 151.528 181.641C151.686 179.357 151.525 177.097 151.043 174.859C143.918 162.103 145.694 150.801 156.373 140.953C162.285 139.523 168.1 139.847 173.818 141.922Z" fill="#474747"/>
<path fill-rule="evenodd" clip-rule="evenodd" d="M160.25 142.891C171.955 142.376 179.224 147.865 182.056 159.359C182.341 168.194 180.24 176.429 175.756 184.063C168.867 184.863 162.083 184.378 155.404 182.609C155.562 180.326 155.402 178.066 154.92 175.828C152.46 170.873 150.684 165.707 149.59 160.328C150.227 152.57 153.781 146.758 160.25 142.891Z" fill="white"/>
<path fill-rule="evenodd" clip-rule="evenodd" d="M131.176 221.359C134.192 224.139 135.807 227.69 136.021 232.016C135.312 230.749 134.504 229.456 133.599 228.141C133.899 232.604 134.06 237.124 134.083 241.703C132.206 235.186 131.237 228.405 131.176 221.359Z" fill="#474747"/>
<path fill-rule="evenodd" clip-rule="evenodd" d="M136.021 232.016C136.668 232.984 137.313 233.953 137.96 234.922C139.108 242.022 139.108 249.126 137.96 256.234C137.298 255.883 136.651 255.56 136.021 255.266C135.375 250.744 134.73 246.224 134.083 241.703C134.06 237.124 133.899 232.604 133.599 228.141C134.504 229.456 135.312 230.749 136.021 232.016Z" fill="#474747"/>
<path fill-rule="evenodd" clip-rule="evenodd" d="M137.96 234.922C138.704 235.661 139.189 236.63 139.413 237.828C139.898 246.864 140.059 255.906 139.898 264.953C138.942 269.283 138.62 273.805 138.929 278.516C138.218 270.866 137.248 263.116 136.021 255.266C136.651 255.56 137.298 255.883 137.96 256.234C139.108 249.126 139.108 242.022 137.96 234.922Z" fill="#474747"/>
<path fill-rule="evenodd" clip-rule="evenodd" d="M139.898 264.953C145.96 275.212 154.036 283.607 164.126 290.141C165.554 291.976 167.169 293.59 168.972 294.984C168.603 296.371 167.634 297.178 166.065 297.406C168.155 297.482 170.093 297.644 171.879 297.891C170.588 298.213 169.295 298.537 168.003 298.859C164.15 298.216 160.273 297.894 156.373 297.891C154.758 297.891 153.143 297.891 151.528 297.891C149.923 291.906 146.531 287.062 141.352 283.359C140.291 281.831 139.483 280.216 138.929 278.516C138.62 273.805 138.942 269.283 139.898 264.953Z" fill="#474747"/>
<path fill-rule="evenodd" clip-rule="evenodd" d="M168.972 294.984C170.834 295.82 172.772 296.466 174.787 296.922C176.655 298.834 178.916 300.287 181.571 301.281C180.995 301.731 180.349 301.893 179.633 301.766C177.694 301.766 175.756 301.766 173.818 301.766C167.803 300.877 161.988 299.585 156.373 297.891C160.273 297.894 164.15 298.216 168.003 298.859C169.295 298.537 170.588 298.213 171.879 297.891C170.093 297.644 168.155 297.482 166.065 297.406C167.634 297.178 168.603 296.371 168.972 294.984Z" fill="#474747"/>
<path fill-rule="evenodd" clip-rule="evenodd" d="M168.488 303.219C172.849 303.747 176.547 304.332 180.602 304.672C187.3 305.604 193.685 306.125 200.469 306.125C201.116 309.354 201.761 312.584 202.407 315.812C207.993 342.275 213.646 368.755 219.367 395.25C225.315 411.472 231.452 427.617 237.781 443.688C239.078 451.26 236.978 457.718 231.481 463.062C229.403 460.9 227.949 458.317 227.12 455.312C220.894 429.311 214.11 403.478 206.768 377.812C205.477 375.229 204.184 372.646 202.892 370.062C195.472 362.324 187.719 354.897 179.633 347.781C178.031 348.091 177.062 349.06 176.725 350.688C175.604 354.836 174.797 359.034 174.302 363.281C172.883 367.479 172.236 371.838 172.364 376.359C174.556 401.339 176.01 426.365 176.725 451.438C177.807 457.632 179.584 463.606 182.056 469.359C181.06 472.461 179.122 474.883 176.241 476.625C175.078 475.626 173.785 474.818 172.364 474.203C168.448 474.036 164.571 473.551 160.735 472.75C160.088 471.459 159.443 470.166 158.796 468.875C161.36 468.205 163.782 467.236 166.065 465.969C167.14 461.555 167.624 457.035 167.518 452.406C164.41 402.009 159.565 351.795 152.981 301.766C153.304 301.281 153.628 300.797 153.951 300.312C158.723 301.654 163.568 302.623 168.488 303.219Z" fill="white"/>
<path fill-rule="evenodd" clip-rule="evenodd" d="M150.559 316.297C150.559 317.588 150.559 318.881 150.559 320.172C150.79 326.824 150.467 333.444 149.59 340.031C149.267 340.838 148.943 341.646 148.62 342.453C144.42 334.547 143.451 326.313 145.713 317.75C144.999 315.038 144.191 314.877 143.29 317.266C143.128 315.49 142.967 313.713 142.806 311.938C142.787 308.335 143.434 304.944 144.744 301.766C146.025 301.601 147.156 301.924 148.136 302.734C148.025 307.681 148.834 312.202 150.559 316.297Z" fill="#474747"/>
<path fill-rule="evenodd" clip-rule="evenodd" d="M149.59 304.672C149.594 308.58 149.917 312.455 150.559 316.297C148.834 312.202 148.025 307.681 148.136 302.734C147.156 301.924 146.025 301.601 144.744 301.766C143.434 304.944 142.787 308.335 142.806 311.938C142.967 313.713 143.128 315.49 143.29 317.266C144.191 314.877 144.999 315.038 145.713 317.75C143.451 326.313 144.42 334.547 148.62 342.453C148.943 341.646 149.267 340.838 149.59 340.031C150.467 333.444 150.79 326.824 150.559 320.172C150.881 320.172 151.205 320.172 151.528 320.172C152.681 326.534 153.327 332.992 153.466 339.547C153.466 356.984 153.466 374.422 153.466 391.859C148.762 377.51 146.662 362.655 147.167 347.297C144.082 336.057 142.305 324.593 141.836 312.906C141.868 309.143 142.192 305.428 142.806 301.766C144.979 300.822 147.24 300.499 149.59 300.797C149.59 302.088 149.59 303.381 149.59 304.672Z" fill="#474747"/>
<path fill-rule="evenodd" clip-rule="evenodd" d="M154.435 356.984C155.082 359.568 155.727 362.151 156.373 364.734C158.524 385.374 160.462 406.04 162.188 426.734C162.188 427.703 162.188 428.672 162.188 429.641C161.542 428.672 160.896 427.703 160.25 426.734C159.362 417.212 157.747 407.847 155.404 398.641C154.541 384.776 154.217 370.891 154.435 356.984Z" fill="#F7F7F7"/>
<path fill-rule="evenodd" clip-rule="evenodd" d="M153.466 393.797C154.112 395.412 154.758 397.026 155.404 398.641C157.747 407.847 159.362 417.212 160.25 426.734C158.739 420.584 156.801 414.449 154.435 408.328C153.47 414.429 153.146 420.565 153.466 426.734C152.469 415.912 152.469 404.934 153.466 393.797Z" fill="#474747"/>
<path fill-rule="evenodd" clip-rule="evenodd" d="M160.25 426.734C160.845 430.256 161.169 433.808 161.219 437.391C160.25 437.391 159.281 437.391 158.312 437.391C157.796 432.259 156.988 432.259 155.889 437.391C155.853 434.994 155.046 433.056 153.466 431.578C153.466 429.963 153.466 428.349 153.466 426.734C153.146 420.565 153.47 414.429 154.435 408.328C156.801 414.449 158.739 420.584 160.25 426.734Z" fill="#474747"/>
<path fill-rule="evenodd" clip-rule="evenodd" d="M160.25 426.734C160.896 427.703 161.542 428.672 162.188 429.641C162.45 434.027 163.096 438.225 164.126 442.234C164.126 446.756 164.126 451.276 164.126 455.797C162.021 457.915 160.568 460.498 159.765 463.547C159.115 464.275 158.308 464.599 157.342 464.516C156.456 453.47 155.164 442.491 153.466 431.578C155.046 433.056 155.853 434.994 155.889 437.391C156.988 432.259 157.796 432.259 158.312 437.391C159.281 437.391 160.25 437.391 161.219 437.391C161.169 433.808 160.845 430.256 160.25 426.734Z" fill="#474747"/>
<path fill-rule="evenodd" clip-rule="evenodd" d="M164.126 455.797C164.285 458.4 164.124 460.984 163.642 463.547C161.521 465.094 159.422 465.418 157.343 464.516C158.308 464.599 159.115 464.275 159.765 463.547C160.568 460.498 162.022 457.915 164.126 455.797Z" fill="#F7F7F7"/>
<path fill-rule="evenodd" clip-rule="evenodd" d="M256.194 477.109C255.548 477.109 254.903 477.109 254.256 477.109C249.157 475.888 243.987 474.919 238.75 474.203C238.953 473.635 239.276 473.151 239.719 472.75C241.335 472.588 242.949 472.427 244.565 472.266C249.332 472.017 253.209 473.632 256.194 477.109Z" fill="#F7F7F7"/>
<path fill-rule="evenodd" clip-rule="evenodd" d="M241.657 479.047C247.43 478.307 252.921 479.598 258.133 482.922C257.81 483.244 257.486 483.568 257.164 483.891C252.148 481.702 246.98 480.088 241.657 479.047Z" fill="#F7F7F7"/>
<path fill-rule="evenodd" clip-rule="evenodd" d="M149.59 476.141C152.802 476.598 155.064 478.374 156.374 481.469C160.897 483.729 165.418 485.99 169.941 488.25C171.646 489.023 173.262 488.861 174.787 487.766C175.311 485.794 175.958 483.857 176.725 481.953C177.048 482.115 177.372 482.276 177.695 482.437C178.777 485.414 178.939 488.482 178.179 491.641C176.834 492.662 175.38 492.822 173.818 492.125C165.917 488.663 158.486 484.465 151.528 479.531C150.246 478.741 149.6 477.61 149.59 476.141Z" fill="#474747"/>
<path fill-rule="evenodd" clip-rule="evenodd" d="M242.626 483.891C244.828 482.666 247.089 482.827 249.41 484.375C247.136 484.699 244.874 484.537 242.626 483.891Z" fill="#F7F7F7"/>
</svg>
