<svg width="1839" height="1755" viewBox="0 0 1839 1755" fill="none" xmlns="http://www.w3.org/2000/svg">
<path d="M1268.8 736.634C1280.13 752.504 1288.94 771.318 1295.21 793.075C1301.48 814.47 1292.09 832.873 1267.06 848.283C1261.35 851.72 1255.5 855.089 1249.5 858.389C1243.5 861.689 1237.32 864.994 1230.95 868.305C1217.15 875.322 1204.8 880.951 1193.9 885.194C1182.42 889.527 1173.03 897.613 1165.72 909.452C1160.78 917.371 1156.56 923.562 1153.05 928.024C1149.54 932.486 1146.6 935.151 1144.23 936.02C1139.57 937.973 1136.81 936.056 1135.94 930.269C1135.28 924.403 1136.38 916.125 1139.22 905.434C1140.82 900.083 1142.68 894.943 1144.8 890.013C1147.07 885.151 1149.74 880.386 1152.81 875.719C1160.34 861.476 1168.94 852.033 1178.6 847.39C1183.61 845.063 1190.88 841.908 1200.42 837.923C1210.16 833.859 1222.1 828.932 1236.22 823.141C1257.65 814.302 1263.39 797.605 1253.42 773.049C1243.53 748.709 1227.05 734.298 1203.98 729.816C1197.83 733.048 1192.83 738.789 1188.99 747.039C1187.06 751.164 1185.39 755.137 1183.97 758.957C1182.76 762.698 1181.76 766.178 1180.97 769.398C1175.56 790.191 1169.92 799.401 1164.07 797.03C1158.58 794.648 1157.46 783.274 1160.71 762.908C1164.22 738.538 1169.72 721.376 1177.22 711.42C1187.44 697.534 1199.96 694.043 1214.76 700.947C1216.96 701.972 1220.3 703.799 1224.79 706.429C1229.34 708.911 1235.11 712.229 1242.1 716.383C1255.85 724.408 1264.75 731.159 1268.8 736.634ZM1140.39 977.546C1136.57 989.574 1128.1 995.308 1114.97 994.748C1102.06 994.109 1094.09 988.059 1091.05 976.596C1088.49 967.153 1090.05 958.643 1095.72 951.065C1098.53 947.35 1102.19 944.845 1106.72 943.55C1111.4 942.323 1116.94 942.487 1123.36 944.043C1131.74 945.977 1137.34 949.845 1140.17 955.647C1143.06 961.302 1143.14 968.602 1140.39 977.546Z" fill="#F7F7F7"/>
<path fill-rule="evenodd" clip-rule="evenodd" d="M1313.85 645.358C1322.82 647.416 1331.86 650.41 1338.06 655.02C1348.87 663.075 1357.18 677.019 1363.69 691.938C1370.08 706.591 1374.76 722.258 1378.38 734.37L1378.59 735.061C1379.05 736.585 1379.52 738.141 1379.99 739.725L1379.99 739.728C1381.21 743.777 1382.49 748.004 1383.73 752.336C1409.02 813.322 1415.94 887.393 1400.58 946.909C1389.98 987.977 1365.8 1033.56 1332.41 1066.53C1307.07 1091.55 1276.38 1109.32 1242.27 1112.28C1239.5 1112.92 1236.69 1113.45 1233.83 1113.83C1216.65 1116.14 1197.64 1114.32 1179.39 1110.18C1157.05 1111 1134.79 1108.58 1111.9 1099.78C1108.37 1098.42 1104.86 1096.98 1101.36 1095.47C1085.28 1092.54 1069.24 1088.62 1053.33 1084.72C1043.24 1082.25 1033.2 1079.8 1023.24 1077.61C1022 1077.34 1020.76 1077.07 1019.52 1076.8C1023.55 1080.46 1027.8 1083.87 1032.29 1086.97C1045.17 1095.87 1060.21 1101.47 1075.8 1105.78C1084.92 1108.31 1094.17 1110.38 1103.29 1112.42L1103.29 1112.42C1109.8 1113.88 1116.23 1115.32 1122.49 1116.9C1176.96 1130.62 1237.68 1139.22 1292.84 1127.47C1304.07 1125.07 1315.28 1122.67 1326.49 1120.26L1326.63 1120.23L1326.77 1120.2C1382.23 1108.31 1437.53 1096.44 1493.47 1086.25C1513.22 1082.65 1533.28 1079.62 1553.41 1076.58L1553.41 1076.58C1594.61 1070.36 1636.05 1064.1 1675.55 1052.84C1685.21 1050.08 1695.36 1049.6 1705.54 1049.26C1706.2 1049.23 1706.85 1049.21 1707.51 1049.19C1717.05 1048.88 1726.57 1048.57 1735.78 1046.53C1736.71 1046.32 1737.66 1046.11 1738.62 1045.9L1740.67 1045.44C1757.08 1041.77 1776.95 1037.33 1791.5 1037.33C1791.78 1037.33 1792 1037.56 1792 1037.83C1792 1038.11 1791.78 1038.33 1791.5 1038.33C1777.07 1038.33 1757.32 1042.74 1740.87 1046.42L1740.77 1046.44C1739.14 1046.8 1737.55 1047.16 1736 1047.5C1726.69 1049.56 1717.08 1049.88 1707.57 1050.19C1706.9 1050.21 1706.24 1050.23 1705.57 1050.25C1695.39 1050.6 1685.35 1051.08 1675.82 1053.8C1636.26 1065.08 1594.71 1071.35 1553.48 1077.58C1533.37 1080.62 1513.34 1083.64 1493.65 1087.23C1437.73 1097.42 1382.44 1109.28 1326.98 1121.18C1315.68 1123.6 1304.37 1126.03 1293.05 1128.44C1237.67 1140.25 1176.77 1131.6 1122.25 1117.87C1116.05 1116.31 1109.63 1114.87 1103.13 1113.41L1103.12 1113.41C1093.97 1111.36 1084.65 1109.27 1075.53 1106.75C1059.9 1102.42 1044.74 1096.79 1031.72 1087.79C1026.73 1084.34 1022.02 1080.51 1017.59 1076.38C989.959 1070.38 962.375 1064.74 934.4 1060.54C921.592 1058.61 908.719 1057.91 895.805 1057.44C893.067 1057.33 890.327 1057.24 887.584 1057.15L887.564 1057.15L887.562 1057.15C877.388 1056.81 867.191 1056.47 857.008 1055.63C749.879 1046.8 640.49 1046.67 533.161 1054.67C519.887 1055.66 506.525 1056.81 493.105 1057.96L493.09 1057.96C440.018 1062.53 386.061 1067.17 333.205 1062.25C301.942 1059.33 270.853 1054.58 239.846 1049.84L239.836 1049.84C227.022 1047.88 214.222 1045.92 201.429 1044.09C201.156 1044.05 200.966 1043.8 201.005 1043.53C201.044 1043.25 201.297 1043.07 201.571 1043.1C214.385 1044.93 227.197 1046.89 240.018 1048.85L240.029 1048.85L240.031 1048.85C271.025 1053.6 302.067 1058.34 333.298 1061.25C386.055 1066.17 439.897 1061.54 492.96 1056.97L492.974 1056.97C506.405 1055.81 519.786 1054.66 533.087 1053.67C640.466 1045.67 749.908 1045.8 857.09 1054.63C867.247 1055.47 877.411 1055.81 887.582 1056.15L887.585 1056.15C890.337 1056.24 893.09 1056.34 895.843 1056.44C908.763 1056.92 921.682 1057.61 934.549 1059.55C962.01 1063.68 989.089 1069.18 1016.18 1075.06C996.945 1056.6 983.06 1032.35 973.789 1007.9C968.517 993.993 964.795 979.988 961.83 965.835C953.83 948.923 950.697 929.929 951.061 910.649C951.102 908.432 951.19 906.212 951.323 903.99C950.794 901.007 950.251 898.024 949.709 895.039L949.707 895.029C947.539 883.104 945.367 871.153 944.03 859.139C943.999 858.865 944.197 858.618 944.471 858.587C944.746 858.557 944.993 858.755 945.023 859.029C946.358 871.018 948.518 882.898 950.681 894.791L950.681 894.795C950.992 896.507 951.304 898.219 951.613 899.931C953.176 881.171 957.795 862.433 964.233 845.343C965.08 836.709 966.791 827.887 969.162 819.065C962.042 832.305 955.415 845.704 949.342 859.071C949.228 859.322 948.932 859.433 948.68 859.32C948.429 859.206 948.317 858.91 948.431 858.659C955.108 843.964 962.453 829.231 970.386 814.71C971.992 809.225 973.841 803.753 975.883 798.339C984.636 775.127 996.946 752.95 1008.97 735.393C1028.51 706.847 1054.08 684.075 1081.91 663.953C1088.66 656.999 1095.72 649.947 1103.28 643.789C1115.14 634.135 1128.29 626.623 1143.5 625.076C1146.06 624.816 1148.63 624.548 1151.19 624.281C1177.87 621.494 1204.27 618.739 1229.36 623.896C1257.07 621.767 1281.13 620.481 1300.85 641.28C1301.45 641.912 1302.04 642.547 1302.64 643.184C1306.23 643.775 1310.04 644.483 1313.85 645.358ZM1018.07 1075.46C1019.86 1075.85 1021.66 1076.25 1023.45 1076.64C1033.46 1078.83 1043.53 1081.3 1053.64 1083.77L1053.64 1083.77C1068.16 1087.32 1082.75 1090.89 1097.37 1093.71C1059.13 1076.46 1023.32 1050.11 996.457 1018.4C988.212 1008.66 981.271 998.184 975.623 987.133C970.874 981.611 966.899 975.681 963.626 969.439C966.445 982.256 969.946 994.942 974.724 1007.54C984.154 1032.42 998.351 1057.01 1018.07 1075.46ZM1105.75 1096.24C1107.91 1097.14 1110.08 1098.01 1112.26 1098.84C1133.73 1107.1 1154.63 1109.71 1175.61 1109.29C1170.52 1108.04 1165.5 1106.62 1160.62 1105.07C1160.63 1105.19 1160.59 1105.32 1160.51 1105.42C1160.33 1105.63 1160.02 1105.66 1159.8 1105.49C1159.25 1105.04 1158.67 1104.62 1158.07 1104.24C1154.75 1103.14 1151.5 1101.99 1148.34 1100.79C1147.43 1100.63 1146.51 1100.5 1145.58 1100.39C1142.91 1100.07 1140.2 1099.93 1137.54 1099.81C1137.1 1099.79 1136.66 1099.78 1136.22 1099.76L1136.22 1099.76C1134.04 1099.67 1131.91 1099.58 1129.92 1099.41C1121.86 1098.71 1113.8 1097.62 1105.75 1096.24ZM1144.4 1099.26C1142.12 1099.03 1139.82 1098.91 1137.59 1098.82C1137.14 1098.8 1136.7 1098.78 1136.26 1098.76C1134.07 1098.67 1131.97 1098.58 1130.01 1098.41C1120.55 1097.6 1111.1 1096.23 1101.66 1094.51C1062.1 1077.38 1024.89 1050.41 997.221 1017.75C989.903 1009.11 983.619 999.884 978.36 990.185C986.5 999.005 995.311 1007.49 1004.64 1015.61C1007.97 1018.56 1011.51 1021.55 1015.26 1024.73C1016.83 1026.05 1018.43 1027.41 1020.07 1028.81C1045.9 1050.81 1077.8 1073.8 1112.01 1088.04C1121.14 1091.83 1130.43 1095.01 1139.82 1097.37C1140.52 1097.67 1141.23 1097.96 1141.93 1098.25C1142.15 1098.34 1142.37 1098.43 1142.6 1098.52C1143.2 1098.77 1143.8 1099.01 1144.4 1099.26ZM1158.5 1103.33C1155.56 1101.5 1152.15 1100.45 1148.61 1099.82C1147.73 1099.49 1146.85 1099.15 1145.98 1098.81C1155.47 1100.82 1165.03 1101.98 1174.6 1102.09C1182.12 1104.22 1189.69 1106.17 1197.29 1107.9C1191.34 1108.52 1185.4 1108.96 1179.48 1109.18C1172.32 1107.55 1165.27 1105.57 1158.5 1103.33ZM973.666 983.172C969.333 977.633 965.728 971.717 962.784 965.513C959.855 951.509 957.664 937.342 955.439 922.952L955.439 922.95L955.433 922.914C955.101 920.765 954.768 918.612 954.431 916.454C953.779 912.27 953.066 908.097 952.328 903.929C953.455 885.209 957.733 866.385 963.918 849.099C963.484 855.396 963.533 861.577 964.145 867.565C964.234 868.436 964.326 869.305 964.42 870.17C959.522 884.398 956.62 899.033 957.108 913.792C957.915 938.163 963.408 961.69 973.666 983.172ZM952.06 910.667C952.074 909.954 952.092 909.24 952.115 908.526C952.578 911.221 953.024 913.914 953.443 916.608C953.782 918.784 954.118 920.956 954.453 923.123C956.444 935.996 958.411 948.715 960.908 961.31C954.333 945.62 951.728 928.285 952.06 910.667ZM1301.03 642.923C1300.72 642.604 1300.42 642.284 1300.12 641.966C1281.54 622.368 1259.08 622.697 1232.75 624.642C1243.44 627.161 1253.89 631.196 1264.01 637.365C1264.57 637.707 1265.13 638.049 1265.69 638.39C1274.74 639.349 1283.01 640.34 1289.81 641.3C1290.53 641.403 1291.3 641.509 1292.1 641.62L1292.1 641.621L1292.1 641.621L1292.11 641.621C1294.74 641.988 1297.78 642.409 1301.03 642.923ZM1267.7 639.609C1275.91 640.496 1283.42 641.405 1289.67 642.289C1290.4 642.392 1291.16 642.498 1291.97 642.61L1291.97 642.61C1294.95 643.025 1298.43 643.507 1302.14 644.114C1308.62 651.044 1314.92 658.284 1321.01 665.788C1305.74 654.594 1288.68 646.538 1270.07 641.051C1269.28 640.57 1268.49 640.09 1267.7 639.609ZM1263.37 638.146C1252.37 631.463 1240.99 627.317 1229.31 624.902L1228.48 624.965C1215.81 625.943 1203.14 628.169 1190.75 631.574C1205.14 630.986 1220.14 631.87 1235.94 633.954C1242.66 634.841 1249.23 635.971 1255.63 637.366C1258.26 637.622 1260.84 637.883 1263.37 638.146ZM1263.02 639.114C1263.81 639.195 1264.59 639.277 1265.36 639.359L1266.46 640.022C1265.32 639.71 1264.17 639.407 1263.02 639.114ZM1245.51 636.414C1242.31 635.865 1239.08 635.376 1235.81 634.944C1220.08 632.87 1205.17 631.988 1190.86 632.569C1206.54 633.262 1226.51 634.696 1245.51 636.414ZM1184.74 633.327C1203.65 633.965 1231.22 635.984 1255.48 638.354C1260.3 639.406 1265.03 640.609 1269.66 641.971C1273.17 644.1 1276.67 646.222 1280.17 648.343C1261.11 640.843 1237.27 635.677 1218.18 637.391C1191.72 639.767 1165.76 644.66 1141.14 652.679C1154.78 644.518 1169.5 638.024 1184.74 633.327ZM1180.93 632.216C1182.72 632.054 1184.52 631.917 1186.32 631.803C1199.19 627.971 1212.41 625.412 1225.64 624.202C1201.77 620.008 1176.71 622.622 1151.21 625.282C1148.68 625.546 1146.14 625.811 1143.6 626.07C1128.67 627.589 1115.7 634.969 1103.91 644.563C1097.97 649.402 1092.34 654.791 1086.92 660.261C1088.81 658.819 1090.75 657.28 1092.75 655.701C1095.27 653.704 1097.88 651.643 1100.54 649.636C1106.6 645.07 1112.92 640.832 1119.05 638.501C1137.56 631.474 1161.58 631.783 1179.97 632.193L1180.31 632.201C1180.51 632.206 1180.72 632.211 1180.93 632.216ZM1077.84 668.174C1051.87 687.416 1028.15 709.138 1009.79 735.956C997.809 753.458 985.539 775.565 976.819 798.69C975.348 802.591 973.978 806.52 972.728 810.459C988.212 782.602 1005.84 755.625 1025.04 731.321C1027.53 728.174 1030.08 725.118 1032.69 722.152C1043.88 705.486 1056.57 689.824 1070.72 675.498C1073.06 673.128 1075.43 670.671 1077.84 668.174ZM1037.68 716.657C1047.8 702.293 1059.06 688.733 1071.43 676.199C1073.83 673.766 1076.26 671.249 1078.72 668.696C1079.99 667.375 1081.28 666.043 1082.57 664.709C1083.05 664.365 1083.52 664.021 1084 663.678C1086.95 661.561 1090.12 659.053 1093.41 656.454L1093.41 656.448L1093.42 656.444C1095.94 654.448 1098.53 652.4 1101.14 650.434C1107.19 645.876 1113.41 641.712 1119.41 639.434C1135.57 633.298 1156.04 632.811 1173.3 633.064C1142.74 637.108 1114.64 648.769 1086.75 670.909C1074.68 680.489 1063.69 690.645 1053.57 701.331C1048.07 706.13 1042.77 711.235 1037.68 716.657ZM1028.25 728.922C1027.44 729.918 1026.63 730.924 1025.83 731.939C1005.71 757.402 987.318 785.812 971.315 815.094C968.711 824.001 966.753 832.929 965.649 841.681C967.524 836.962 969.535 832.381 971.654 827.974C986.135 797.859 1001.36 769.519 1019.5 743.438C1022.3 738.528 1025.22 733.687 1028.25 728.922ZM1026.18 734.112C1028.54 730.28 1030.97 726.496 1033.48 722.762C1037.42 718.285 1041.49 714.012 1045.69 709.937C1038.8 717.739 1032.33 725.802 1026.18 734.112ZM1014.27 752.947C998.787 776.466 985.384 801.727 972.555 828.406C969.922 833.882 967.458 839.626 965.215 845.571C964.488 853.063 964.418 860.402 965.14 867.464C965.157 867.634 965.175 867.805 965.193 867.975C970.363 853.595 977.509 839.648 985.178 826.429C992.176 801.04 1001.91 776.294 1014.27 752.947ZM987.174 823.023C995.054 795.543 1006.15 768.87 1020.34 743.971C1030.59 729.243 1041.76 715.242 1054.26 702.054C1077.63 681.635 1104.47 666.756 1133.36 656.396C1126.22 661.114 1119.42 666.308 1113.05 671.958C1070.86 709.359 1030.34 754.581 1000.04 802.216C995.791 808.893 991.423 815.845 987.174 823.023ZM984.153 830.224C976.877 843.04 970.212 856.477 965.438 870.282C966.543 880.353 968.005 890.021 969.846 899.388C972.221 880.006 976.797 860.718 981.573 840.583L981.853 839.401C982.58 836.334 983.347 833.275 984.153 830.224ZM970.485 902.551C972.73 882.195 977.529 861.962 982.567 840.723L982.826 839.632C983.842 835.346 984.936 831.075 986.106 826.823C990.939 818.499 995.984 810.451 1000.88 802.752C1031.13 755.209 1071.58 710.056 1113.71 672.704C1121.08 666.177 1129.01 660.26 1137.38 654.986C1163.12 646.184 1190.41 640.887 1218.27 638.386C1239.28 636.5 1266.19 643.04 1285.96 651.85C1292.01 655.516 1298.06 659.179 1304.09 662.857C1307.69 665.637 1311.17 668.62 1314.79 671.717C1315.62 672.426 1316.45 673.142 1317.3 673.862C1339.64 692.899 1345.46 718.942 1351.74 747.097C1352.39 750.032 1353.05 752.989 1353.74 755.963C1368.32 819.315 1370.93 882.388 1356.13 944.133L1356.11 944.169C1343.4 970.146 1326.65 991.568 1309.22 1013.86L1309.2 1013.89L1309.17 1013.93C1306.11 1017.84 1303.02 1021.79 1299.94 1025.79C1277.27 1055.18 1253.09 1080.49 1217.54 1093.74C1203.44 1099 1189.09 1101.24 1174.74 1101.09C1141.11 1091.53 1108.41 1078.07 1077.83 1061.67C1052.07 1047.86 1031.61 1036.05 1015.87 1011.07C993.166 975.047 978.517 941.32 970.485 902.551ZM969.474 902.599C967.474 892.922 965.884 882.932 964.684 872.516C960.234 886.007 957.647 899.833 958.108 913.759C958.959 939.457 965.047 964.2 976.46 986.573C977.054 987.262 977.66 987.944 978.278 988.62C981.829 992.498 985.511 996.313 989.31 1000.06C981.723 990.712 976.089 979.851 972.47 964.148C967.546 942.786 967.279 922.614 969.474 902.599ZM1005.31 1014.87C999.904 1010.08 995.087 1005.44 990.86 1000.37C982.982 990.931 977.153 980.015 973.444 963.924C968.802 943.783 968.322 924.706 970.15 905.787C978.336 943.415 992.854 976.427 1015.02 1011.6C1030.92 1036.83 1051.59 1048.74 1077.35 1062.55C1106.89 1078.38 1138.39 1091.48 1170.8 1100.99C1160.54 1100.58 1150.28 1098.98 1140.14 1096.43C1093.36 1076.94 1044.67 1049.11 1005.31 1014.87ZM1132.92 1094.45C1126.01 1092.4 1119.16 1089.93 1112.4 1087.12C1083.05 1074.9 1055.38 1056.21 1031.79 1037.22C1063.3 1060.23 1098.48 1079.56 1132.92 1094.45ZM1178.26 1102.08C1185.59 1104.1 1192.97 1105.93 1200.37 1107.57C1215.21 1105.9 1230.22 1103.25 1245.6 1100.53C1247.18 1100.26 1248.76 1099.98 1250.35 1099.7C1273.22 1095.67 1292.06 1078.37 1307.11 1057.21C1322.14 1036.06 1333.33 1011.15 1340.93 992.047C1346.66 977.625 1351.34 963.112 1355.04 948.524C1342.54 972.862 1326.54 993.326 1310 1014.49C1306.92 1018.43 1303.82 1022.39 1300.73 1026.4C1278.03 1055.83 1253.71 1081.32 1217.89 1094.68C1204.82 1099.55 1191.54 1101.85 1178.26 1102.08ZM1357.07 944.472C1353.21 960.548 1348.17 976.536 1341.86 992.416C1334.25 1011.54 1323.03 1036.54 1307.92 1057.79C1292.82 1079.02 1273.78 1096.59 1250.52 1100.68C1248.98 1100.95 1247.45 1101.22 1245.92 1101.49L1245.69 1101.53C1231.34 1104.07 1217.3 1106.55 1203.38 1108.23C1205.26 1108.63 1207.14 1109.02 1209.02 1109.39C1220.35 1111.66 1231.4 1112.21 1242.12 1111.29C1270.88 1104.55 1294.88 1084.12 1314.07 1062.28C1377.71 989.871 1414.74 897.228 1392.5 803.379C1392.63 825.174 1392.44 849.413 1388.49 870.617C1386.07 883.575 1381.05 896.247 1375.21 908.586C1372.29 914.756 1369.16 920.848 1366.06 926.852C1365.67 927.6 1365.28 928.346 1364.9 929.091L1364.9 929.092C1362.21 934.285 1359.55 939.411 1357.07 944.472ZM1392.47 799.069C1416.88 894.716 1379.52 989.326 1314.82 1062.94C1297.01 1083.21 1274.96 1102.4 1248.71 1110.53C1279.92 1106.04 1308.11 1089.11 1331.71 1065.82C1364.96 1032.99 1389.06 987.571 1399.61 946.66C1414.2 890.134 1408.61 820.399 1386.24 761.357C1389.6 774.08 1392.31 787.24 1392.47 799.069ZM1382.79 752.66C1386.76 766.453 1390.45 781.239 1391.3 794.637C1390.06 790.132 1388.68 785.626 1387.16 781.12C1375.4 746.231 1356.87 712.196 1334.51 681.662C1337.4 683.482 1340.29 685.311 1343.17 687.153C1347.51 691.942 1351.63 697.097 1355.55 702.639C1366.18 717.673 1375.29 734.588 1382.79 752.66ZM1380.45 744.708C1379.97 743.112 1379.49 741.537 1379.03 739.988C1378.55 738.414 1378.09 736.865 1377.63 735.347L1377.43 734.673C1373.81 722.553 1369.14 706.933 1362.77 692.337C1356.28 677.456 1348.06 663.715 1337.46 655.821C1331.44 651.34 1322.57 648.382 1313.62 646.331C1310.29 645.565 1306.95 644.927 1303.76 644.384C1310.82 651.989 1317.68 659.961 1324.27 668.241C1331.17 673.598 1337.7 679.627 1343.83 686.385C1344.9 687.069 1345.97 687.755 1347.04 688.442C1347.27 688.592 1347.34 688.901 1347.19 689.132C1347.04 689.364 1346.73 689.431 1346.49 689.282L1346.25 689.127C1349.77 693.185 1353.14 697.494 1356.37 702.064C1365.54 715.039 1373.59 729.407 1380.45 744.708ZM1340.48 684.256C1336.17 679.727 1331.67 675.543 1326.98 671.687C1328.98 674.251 1330.95 676.844 1332.89 679.463C1335.43 681.053 1337.96 682.65 1340.48 684.256ZM1330.55 677.993C1328.26 674.943 1325.92 671.93 1323.56 668.957C1308.61 657.383 1291.86 648.971 1273.54 643.156C1277.09 645.312 1280.65 647.464 1284.2 649.615L1286.42 650.964C1286.9 651.175 1287.37 651.388 1287.84 651.602C1294.15 654.504 1299.53 658.073 1304.66 662.034C1313.31 667.306 1321.94 672.61 1330.55 677.993ZM1310.56 666.806C1312.17 668.16 1313.79 669.542 1315.42 670.945L1315.43 670.949C1316.26 671.662 1317.1 672.38 1317.95 673.103C1340.56 692.368 1346.44 718.749 1352.71 746.856L1352.72 746.873L1352.73 746.927C1353.38 749.848 1354.03 752.788 1354.71 755.74C1368.99 817.797 1371.83 879.626 1358.06 940.225C1359.99 936.399 1361.99 932.538 1364 928.646L1364 928.644L1364.01 928.628C1364.4 927.885 1364.78 927.14 1365.17 926.394C1368.28 920.39 1371.39 914.312 1374.31 908.159C1380.13 895.852 1385.11 883.269 1387.51 870.435C1391.67 848.115 1391.64 822.384 1391.48 799.632L1391.48 799.421L1391.48 799.201C1389.96 793.282 1388.21 787.36 1386.22 781.438C1374.23 745.876 1355.17 711.189 1332.2 680.208C1325.01 675.691 1317.79 671.234 1310.56 666.806ZM1234.81 1112.68C1226.33 1112.87 1217.66 1112.14 1208.82 1110.37C1205.99 1109.8 1203.15 1109.21 1200.32 1108.58C1194.63 1109.22 1188.95 1109.71 1183.28 1110.01C1200.3 1113.55 1217.8 1114.98 1233.7 1112.84C1233.78 1112.83 1233.87 1112.82 1233.96 1112.8C1234.24 1112.77 1234.53 1112.73 1234.81 1112.68ZM1136.95 654.08C1150.87 645.315 1166 638.32 1181.71 633.235L1181.33 633.225L1180.96 633.216C1147.61 636.246 1117.38 647.874 1087.37 671.691C1078.03 679.109 1069.33 686.874 1061.18 694.966C1083.9 676.804 1109.55 663.46 1136.95 654.08Z" fill="#E31F26"/>
</svg>
